<?xml version="1.0" standalone="no"?>
<!DOCTYPE svg PUBLIC "-//W3C//DTD SVG 1.1//EN" "http://www.w3.org/Graphics/SVG/1.1/DTD/svg11.dtd" >
<svg xmlns="http://www.w3.org/2000/svg" xmlns:xlink="http://www.w3.org/1999/xlink" version="1.1">
<metadata></metadata>
<defs>
<font id="linux_libertine_obold_italic" horiz-adv-x="0" >
<font-face units-per-em="2048" ascent="1638" descent="-410" />
<missing-glyph horiz-adv-x="512" />
<glyph unicode="&#x2e;&#x2e;&#x2e;" horiz-adv-x="1533" d="M1165 119q0 60 45 102.5t107 42.5t104.5 -40.5t42.5 -100.5q0 -58 -44.5 -100.5t-106.5 -42.5t-105 40.5t-43 98.5zM625 119q0 60 44.5 102.5t106.5 42.5t105 -40.5t43 -100.5q0 -58 -45 -100.5t-107 -42.5t-104.5 40.5t-42.5 98.5zM82 119q0 60 44.5 102.5t106.5 42.5 t105 -40.5t43 -100.5q0 -58 -45 -100.5t-107 -42.5t-104.5 40.5t-42.5 98.5z" />
<glyph unicode="&#x21;&#x21;" horiz-adv-x="841" d="M870 1352q46 0 73 -39.5t13 -110.5q-15 -75 -63 -203t-68 -192q-76 -244 -102 -371q-13 -41 -39 -41t-22 27q1 12 9 77t18 151.5t16 156.5q6 73 7.5 194t16.5 201q16 77 58 113.5t83 36.5zM514 88q9 46 48 78.5t83 32.5t70.5 -32.5t17.5 -78.5q-7 -44 -46 -76t-85 -32 q-44 0 -70 32t-18 76zM494 1348q45 0 72 -39t14 -111q-15 -75 -63 -203t-68 -192q-23 -76 -43.5 -147.5t-31.5 -111t-20 -75t-10 -39.5q-11 -41 -37 -41q-27 0 -22 27q0 3 17.5 147t25.5 240q6 72 7.5 194t16.5 201q16 75 58.5 112.5t83.5 37.5zM137 84q9 44 48 76.5 t83 32.5q46 0 71.5 -32.5t16.5 -76.5q-9 -45 -47.5 -77t-83.5 -32q-44 0 -70 32.5t-18 76.5z" />
<glyph unicode="&#x3f;&#x3f;" horiz-adv-x="1599" d="M509 1167q-4 -20 -2 -50.5t-4 -59.5q-8 -38 -42 -61t-78 -23q-39 0 -67.5 32.5t-16.5 86.5q11 51 43.5 90.5t95.5 85.5q108 80 281 80q164 0 241.5 -86t47.5 -228q-7 -32 -21.5 -62.5t-29 -53.5t-41.5 -50.5t-43.5 -43t-51.5 -41.5t-48.5 -35.5t-50.5 -34.5 q-31 -20 -50.5 -36t-46.5 -45t-46 -70t-30 -93l-5 -27q-9 -40 -24 -54.5t-55 -14.5q-36 0 -45 16.5t-1 52.5l6 31q9 44 17.5 71.5t30 74.5t62 94t98.5 94q126 98 157 242q20 97 -5 161t-101 64q-63 0 -114.5 -32t-60.5 -75zM257 119q13 60 64.5 102.5t109.5 42.5t89.5 -40.5 t18.5 -100.5q-13 -58 -64 -100.5t-109 -42.5t-90 40.5t-19 98.5zM1279 1167q-4 -20 -2 -50.5t-4 -59.5q-8 -38 -42 -61t-78 -23q-39 0 -67.5 32.5t-16.5 86.5q11 51 43.5 90.5t95.5 85.5q108 80 281 80q164 0 241.5 -86t47.5 -228q-7 -32 -21.5 -62.5t-29 -53.5t-41.5 -50.5 t-43.5 -43t-51.5 -41.5t-48.5 -35.5t-50.5 -34.5q-31 -20 -50.5 -36t-46.5 -45t-46 -70t-30 -93l-5 -27q-9 -40 -24 -54.5t-55 -14.5q-36 0 -45 16.5t-1 52.5l6 31q9 44 17.5 71.5t30 74.5t62 94t98.5 94q126 98 157 242q20 97 -5 161t-101 64q-63 0 -114.5 -32t-60.5 -75z M1027 119q13 60 64.5 102.5t109.5 42.5t89.5 -40.5t18.5 -100.5q-13 -58 -64 -100.5t-109 -42.5t-90 40.5t-19 98.5z" />
<glyph unicode="&#x3f;&#x21;" horiz-adv-x="1216" d="M487 1167q-4 -20 -2.5 -50.5t-4.5 -59.5q-8 -38 -42 -61t-78 -23q-39 0 -67.5 32.5t-16.5 86.5q11 51 44 90.5t96 85.5q108 80 280 80q164 0 242 -86t48 -228q-7 -32 -21.5 -62.5t-29 -53.5t-41.5 -50.5t-43.5 -43t-51.5 -41.5t-48.5 -35.5t-50.5 -34.5 q-31 -20 -50.5 -36t-46.5 -45t-46 -70t-30 -93l-6 -27q-9 -40 -23.5 -54.5t-54.5 -14.5q-36 0 -45.5 16.5t-1.5 52.5l6 31q9 44 17.5 71.5t30 74.5t62 94t98.5 94q126 98 157 242q20 97 -5 161t-101 64q-63 0 -114 -32t-60 -75zM235 119q13 60 64 102.5t109 42.5t90 -40.5 t19 -100.5q-13 -58 -64 -100.5t-109 -42.5t-90 40.5t-19 98.5zM1277 1352q58 0 90 -40t16 -114q-12 -57 -73 -217q-128 -347 -165 -506q-20 -86 -72 -86q-35 0 -41 29.5t7 81.5q14 74 29.5 227t19.5 260q4 145 18 211q11 54 41.5 90.5t63.5 50t66 13.5zM879 123 q0 60 44.5 102.5t106.5 42.5t105 -40.5t43 -100.5q0 -58 -45 -100.5t-107 -42.5t-104.5 40.5t-42.5 98.5z" />
<glyph unicode="&#x21;&#x3f;" horiz-adv-x="1202" d="M859 1163q-4 -20 -2 -50.5t-4 -59.5q-8 -38 -42 -61t-78 -23q-39 0 -67.5 32t-16.5 86q11 51 43.5 91t95.5 86q107 79 281 79q164 0 241.5 -85.5t47.5 -227.5q-8 -37 -23 -70.5t-41.5 -64.5t-47 -53t-58.5 -51t-56 -41.5t-59 -40.5q-31 -20 -51 -36t-47 -45t-46 -70 t-30 -93l-5 -27q-9 -40 -23.5 -54.5t-54.5 -14.5q-36 0 -45.5 16.5t-1.5 52.5l6 31q9 44 17.5 71.5t30 74.5t62 94t98.5 94q126 98 157 241q20 97 -5 161.5t-101 64.5q-63 0 -114.5 -32t-60.5 -75zM608 115q13 60 64 102.5t109 42.5t89.5 -40.5t18.5 -100.5 q-13 -59 -63.5 -101.5t-108.5 -42.5t-90 41t-19 99zM526 1348q58 0 90 -40t16 -114q-5 -25 -15.5 -57.5t-16.5 -49.5t-23 -60.5t-19 -49.5q-128 -347 -165 -506q-20 -86 -72 -86q-35 0 -41 29.5t7 81.5q14 74 29.5 227t19.5 260q4 140 19 211q11 54 41.5 90.5t63.5 50 t66 13.5zM127 119q0 60 45 102.5t107 42.5t104.5 -40.5t42.5 -100.5q0 -58 -45 -100.5t-107 -42.5t-104.5 40.5t-42.5 98.5z" />
<glyph unicode="&#xb0;C" horiz-adv-x="1636" d="M1106 -33q-93 0 -173.5 23.5t-138.5 64.5t-102 97.5t-65 122.5t-28.5 139t9.5 147q29 145 98 264t163.5 198t210 122t237.5 43q97 0 171 -12t107.5 -26.5t64 -26.5t50.5 -13q-21 -152 -18 -307l-62 -8q-24 323 -321 323q-44 0 -89 -9.5t-97.5 -30.5t-101 -61.5t-93 -96.5 t-80 -141t-55.5 -189q-23 -105 -9 -202.5t52.5 -171.5t112.5 -118.5t169 -44.5q130 0 227.5 49t225.5 177l41 -31q-127 -142 -245.5 -211.5t-260.5 -69.5zM651 1141q12 56 -15 102.5t-91 46.5q-63 0 -108.5 -45.5t-55.5 -103.5q-11 -58 17 -102t89 -44q62 0 108 44.5 t56 101.5zM311 1143q17 85 88.5 145t155.5 60t132.5 -60t33.5 -145q-17 -85 -88.5 -145t-155.5 -60t-132.5 60t-33.5 145z" />
<glyph unicode="&#xb0;F" horiz-adv-x="1642" d="M1176 1032l-78 -401h270q51 0 75 21.5t46 70.5l27 59q4 19 18 19h45q7 0 4 -10q-3 -9 -12.5 -39.5t-15.5 -50.5t-13.5 -50.5t-11.5 -54.5q-16 -79 -23 -197l-6 -6h-47q-14 0 -14 15l2 63q0 47 -18.5 68.5t-67.5 21.5h-273l-79 -414q-9 -48 12.5 -69t81.5 -21h53 q17 0 14 -16l-8 -39l-4 -4l-256 4l-264 -4l-4 4l8 39q3 16 18 16h54q61 0 91.5 22.5t39.5 67.5l172 885q8 48 -10 69t-80 21h-62q-12 0 -12 15l8 41l8 4l254 -4l154 2l510 2q-21 -167 -21 -320l-61 -8q-7 53 -11.5 80t-17.5 65t-31 56t-50 31.5t-77 13.5h-249q-74 0 -88 -68 zM651 1141q12 56 -15 102.5t-91 46.5q-63 0 -108.5 -45.5t-55.5 -103.5q-11 -58 17 -102t89 -44q62 0 108 44.5t56 101.5zM311 1143q17 85 88.5 145t155.5 60t132.5 -60t33.5 -145q-17 -85 -88.5 -145t-155.5 -60t-132.5 60t-33.5 145z" />
<glyph unicode="ft" horiz-adv-x="1468" d="M958 242l125 540h-430l-6 -34q-17 -98 -51.5 -263.5t-44.5 -218.5q-20 -104 -47 -194.5t-46.5 -141t-55.5 -112t-46.5 -76.5t-46.5 -65q-55 -77 -130.5 -116t-154.5 -39q-114 0 -173.5 42.5t-59.5 91.5q0 36 25 65.5t72 29.5q32 0 63.5 -23.5t51.5 -50.5q2 -3 6.5 -10.5 l6 -10t6 -8.5t7 -8.5t7.5 -6.5t9.5 -5t11 -2.5t13.5 -1.5q28 0 60.5 21t52.5 53q32 49 54 129t31 139t21.5 171.5t17.5 151.5q9 70 19.5 132t31.5 176.5t33 184.5h-168q-12 0 -12 4q0 3 3.5 25.5t4.5 26.5q9 32 57 34l136 7q55 264 186 419q53 62 135 96.5t142 34.5 q129 0 197 -42.5t68 -117.5q0 -41 -27.5 -81t-78.5 -40q-98 0 -112 129q-5 39 -15.5 50t-51.5 11q-37 0 -61.5 -28.5t-54.5 -111.5q-28 -77 -51 -203l-20 -116h442l23 90q4 15 10 44.5t10 44t13 33.5t23 30t34 16q27 7 56.5 12.5t61 9.5t52 0t20.5 -16q0 -11 -8 -47.5 t-19.5 -82.5t-13.5 -55l-16 -79h203q17 -12 6.5 -50.5t-29.5 -46.5h-201l-123 -522q-13 -52 -13 -88q0 -37 22 -37q18 0 62.5 27.5t80.5 68.5q19 0 36 -19.5t23 -37.5q-80 -89 -179 -141.5t-202 -52.5t-103 116q0 67 19 146z" />
<glyph unicode="tt" horiz-adv-x="1398" d="M242 242l125 540h-144q-12 0 -12 4q0 3 4.5 25.5t5.5 26.5q8 31 58 34l108 7l27 102q4 15 8.5 38t7.5 36.5t9.5 31.5t14 28.5t20.5 20t30 13.5q26 7 57 12.5t63.5 9.5t54 0t21.5 -16q0 -11 -8 -47.5t-19.5 -81t-13.5 -55.5l-20 -92h395l27 102q4 15 8.5 38t7.5 36.5 t9.5 31.5t14 28.5t20.5 20t30 13.5q26 7 57 12.5t64 9.5t54.5 0t21.5 -16q0 -11 -8 -47.5t-19.5 -81t-13.5 -55.5l-21 -92h203q17 -12 6.5 -50.5t-29.5 -46.5h-200l-123 -522q-15 -73 -15 -88q0 -37 23 -37q18 0 62.5 27.5t80.5 68.5q19 0 36.5 -19.5t23.5 -37.5 q-80 -89 -179 -141.5t-202 -52.5q-105 0 -105 116q0 47 21 146l125 540h-396l-122 -522q-15 -72 -15 -88q0 -37 23 -37q18 0 62.5 27.5t80.5 68.5q19 0 36.5 -19.5t23.5 -37.5q-80 -89 -179 -141.5t-202 -52.5q-105 0 -105 116q0 47 21 146z" />
<glyph unicode="Qu" horiz-adv-x="2803" d="M1059 -186q37 -13 113.5 -43.5t116.5 -44.5t99.5 -27.5t110.5 -13.5q84 0 188.5 23t200.5 75l31 -49q-109 -92 -256.5 -146.5t-294.5 -54.5q-245 0 -446 98q-153 73 -256.5 103t-202.5 30q-39 0 -92 -43q-11 -12 -23.5 -26.5t-27 -32t-23.5 -27.5l-123 76q25 29 59.5 58 t57.5 45t74 50t71 48q62 42 151 79q-181 36 -293.5 168.5t-112.5 333.5q0 187 73.5 345.5t194.5 279.5q108 108 244.5 169t281.5 61q237 0 385.5 -142t148.5 -379q0 -166 -56.5 -317t-154.5 -263.5t-236.5 -183.5t-296.5 -82q-120 -39 -235 -116q-11 -6 -19 -13q29 3 58 3 q9 0 61.5 7t104 10.5t141.5 -10t183 -48.5zM2331 219l-4 -15l9 46l-4 4q-131 -154 -225 -210t-183 -56q-70 0 -126 42t-56 126t16 151l78 326q31 125 -8 125q-18 0 -62.5 -27.5t-80.5 -69.5q-19 0 -36.5 20t-23.5 38q70 90 170.5 139t208.5 49q43 0 66 -16.5t35 -50.5 q19 -52 -15 -189l-76 -327q-9 -44 -9 -81.5t19 -62t54 -24.5q18 0 36 6.5t41 26t39.5 35t48 54.5t50 62.5t61.5 79.5l79 319q2 10 8 39t9.5 41t13.5 33t22.5 30t35 17t52.5 8q80 0 107 -13.5t27 -41.5q0 -9 -4.5 -27.5t-11.5 -44.5t-10 -41l-106 -485q-14 -65 -14 -87 q0 -38 23 -38q18 0 62.5 27.5t80.5 68.5q19 0 36 -19.5t23 -37.5q-71 -91 -164.5 -139.5t-199.5 -48.5q-79 0 -103 67q-6 16 -6 49q0 19 17 123zM934 1262q-85 0 -164.5 -54.5t-142.5 -164.5q-58 -101 -104 -265t-46 -315q0 -188 78 -292.5t211 -104.5q120 0 223.5 111 t163 295t59.5 393q0 192 -75 294.5t-203 102.5z" />
<glyph unicode="f&#xe0e0;" horiz-adv-x="1527" d="M934 879h133l59 226q-29 0 -51 11.5t-34 33t-18 40.5t-11 44q-7 36 -29 49.5t-66 13.5q-19 0 -38.5 -5t-44 -17.5t-47.5 -40t-39 -67.5q-3 -7 -16 -37t-17 -42t-12 -38.5t-13 -54.5l-22 -116h243h23zM1401 1219q-33 -106 -55 -224l-23 -116h225q15 0 15 -11l-11 -61 q-3 -11 -20 -18t-33 -7h-190l-6 -34q-17 -97 -51.5 -260.5t-45.5 -221.5q-25 -131 -51 -224t-57.5 -154.5t-53 -92t-58.5 -74.5q-52 -61 -141 -102t-166 -41q-114 0 -173.5 42t-59.5 91q0 36 25 65.5t72 29.5q34 0 68.5 -24t46.5 -50q12 -27 26.5 -40t41.5 -13q28 0 60 21 t52 53q22 34 39.5 77t28 78t21 93t15 89.5t13 101.5t12.5 97q19 146 80 493h-162h-27h-205l-6 -34q-17 -98 -51.5 -263.5t-44.5 -218.5q-24 -129 -55 -230.5t-68 -174t-59.5 -108t-59.5 -86.5q-56 -76 -131 -115.5t-154 -39.5q-114 0 -173.5 42.5t-59.5 91.5q0 36 25 65 t72 29q34 0 68 -22t47 -51q12 -27 26 -40t41 -13q28 0 60.5 20.5t52.5 52.5q32 49 54 130.5t31 143.5t21 174.5t18 153.5q9 70 19.5 132t31.5 176.5t33 184.5h-168q-12 0 -12 4q0 3 3.5 25.5t4.5 26.5q8 31 57 34l136 7q26 127 70.5 214.5t117.5 174.5q52 61 151 95.5 t165 34.5q107 0 189.5 -38t109.5 -97q21 32 42 56q54 62 127.5 96.5t129.5 34.5q128 0 205 -53t77 -130q0 -41 -26 -77t-77 -36q-97 0 -112 131q-3 23 -5 33t-8.5 21.5t-19 15t-33.5 3.5q-70 0 -114 -139z" />
<glyph unicode="ff" horiz-adv-x="1466" d="M934 879h133q27 128 67 227q-1 0 -4 -0.5t-4 -0.5q-29 0 -51 11.5t-34 33t-18 40.5t-11 44q-7 36 -29 49.5t-66 13.5q-19 0 -38.5 -5t-44 -17.5t-47.5 -40t-39 -67.5q-3 -7 -16 -37t-17 -42t-12 -38.5t-13 -54.5l-22 -116h243h23zM391 782h-168q-12 0 -12 4q0 3 3.5 25.5 t4.5 26.5q8 31 57 34l136 7q26 127 70.5 214.5t117.5 174.5q52 61 151 95.5t165 34.5q107 0 189.5 -38t109.5 -97q21 32 42 56q52 62 142.5 96.5t153.5 34.5q129 0 219.5 -54t90.5 -129q0 -41 -24.5 -75.5t-75.5 -34.5q-29 0 -51 11.5t-34 32.5t-18 40t-11 44 q-7 36 -29 49.5t-66 13.5q-98 0 -149 -129q-31 -76 -59 -224l-23 -116h225q15 0 15 -11l-11 -61q-3 -11 -20 -18t-33 -7h-190l-6 -34q-17 -97 -51.5 -260.5t-45.5 -221.5q-25 -131 -51 -224t-57.5 -154.5t-53 -92t-58.5 -74.5q-52 -61 -141 -102t-166 -41q-114 0 -173.5 42 t-59.5 91q0 36 25 65.5t72 29.5q34 0 68.5 -24t46.5 -50q12 -27 26.5 -40t41.5 -13q28 0 60 21t52 53q22 34 39.5 77t28 78t21 93t15 89.5t13 101.5t12.5 97q19 146 80 493h-162h-27h-205l-6 -34q-17 -98 -51.5 -263.5t-44.5 -218.5q-24 -129 -55 -230.5t-68 -174 t-59.5 -108t-59.5 -86.5q-56 -76 -131 -115.5t-154 -39.5q-114 0 -173.5 42.5t-59.5 91.5q0 36 25 65t72 29q34 0 68 -22t47 -51q12 -27 26 -40t41 -13q28 0 60.5 20.5t52.5 52.5q32 49 54 130.5t31 143.5t21 174.5t18 153.5q9 70 19.5 132t31.5 176.5t33 184.5z" />
<glyph unicode="fi" horiz-adv-x="1421" d="M1322 656l-87 -402q-29 -125 8 -125q18 0 62.5 27.5t80.5 68.5q19 0 36.5 -19.5t23.5 -37.5q-70 -90 -170.5 -139t-208.5 -49q-43 0 -65.5 16.5t-34.5 50.5q-16 46 14 189l90 421q12 57 12 84q0 38 -36 41h-383l-7 -34q-17 -98 -51.5 -263.5t-44.5 -218.5 q-20 -104 -47 -194.5t-46.5 -141t-55.5 -112t-46.5 -76.5t-46.5 -65q-55 -77 -130.5 -116t-154.5 -39q-114 0 -173.5 42.5t-59.5 91.5q0 36 25 65.5t72 29.5q32 0 63.5 -23.5t51.5 -50.5q1 -2 5.5 -9.5t6 -9t5.5 -7.5t6 -8l6.5 -6.5t8 -5.5t8.5 -3.5t10.5 -3t11.5 -0.5 q28 0 60 21t52 53q31 49 52 127t28.5 143t17 168t16.5 153q9 70 19.5 132t31.5 176.5t33 184.5h-168q-12 0 -12 4q0 3 3.5 25.5t4.5 26.5q8 31 57 34l136 7q16 82 39.5 145t59.5 114t63 81t77 79q58 56 148.5 93.5t167.5 37.5q89 0 183 -27.5t161 -78.5t67 -110 q0 -51 -30.5 -94.5t-94.5 -43.5q-37 0 -64 14.5t-42.5 41.5t-23 50t-13.5 55q-9 45 -48 68.5t-94 23.5q-51 0 -106 -37.5t-87 -92.5q-31 -54 -45 -95t-28 -108l-24 -116h409q158 14 234 14q42 0 42 -43q0 -16 -6 -44.5t-17.5 -75t-17.5 -74.5z" />
<glyph unicode=" "  horiz-adv-x="512" />
<glyph unicode="&#x09;" horiz-adv-x="512" />
<glyph unicode="&#xa0;" horiz-adv-x="512" />
<glyph unicode="!" horiz-adv-x="544" d="M526 1348q58 0 90 -40t16 -114q-5 -25 -15.5 -57.5t-16.5 -49.5t-23 -60.5t-19 -49.5q-128 -347 -165 -506q-20 -86 -72 -86q-35 0 -41 29.5t7 81.5q14 74 29.5 227t19.5 260q4 140 19 211q11 54 41.5 90.5t63.5 50t66 13.5zM127 119q0 60 45 102.5t107 42.5t104.5 -40.5 t42.5 -100.5q0 -58 -45 -100.5t-107 -42.5t-104.5 40.5t-42.5 98.5z" />
<glyph unicode="&#x22;" horiz-adv-x="770" d="M554 842l-27 8q12 348 15 360q9 40 50 75.5t98 35.5q54 0 66.5 -20t4.5 -56q-3 -14 -42 -111.5t-76 -188.5l-37 -91zM282 842l-27 8q12 348 15 360q9 40 50 75.5t99 35.5q38 0 56 -11.5t17.5 -28.5t-3.5 -36q-3 -14 -41.5 -111.5t-75.5 -188.5l-37 -91z" />
<glyph unicode="#" horiz-adv-x="1052" d="M672 518l80 219h-181q-14 -38 -42 -109.5t-42 -109.5h185zM854 737l-80 -219h227l-44 -135h-229q-16 -44 -60 -165.5t-69 -188.5h-102l131 354h-185q-21 -56 -64.5 -173.5t-68.5 -180.5h-106l130 354h-191l46 135h193q57 155 79 219h-193l46 135h193q22 59 65.5 177 t65.5 178h108l-133 -355h187q22 59 64.5 177.5t64.5 177.5h100l-127 -355h225l-46 -135h-227z" />
<glyph unicode="$" horiz-adv-x="1052" d="M656 803l97 368q-64 -6 -114 -52t-65 -118q-20 -93 82 -198zM639 443l-100 -379q73 9 126 51t66 104q24 112 -92 224zM1080 1198q-20 -183 -42 -289q-16 -11 -45.5 -14t-45.5 4q-2 49 -6.5 83.5t-16 75t-35.5 67t-59 38.5l-110 -413l8 -5q3 -2 21 -13.5t24.5 -15.5 t24 -16t26.5 -19t24.5 -19t26 -21.5t23 -22t22.5 -25.5t18 -26q35 -54 47.5 -102t-1.5 -115q-32 -152 -177 -266q-125 -99 -289 -102l-46 -173q-18 -10 -81 -10l48 184q-99 3 -169.5 19t-108.5 16q-9 125 32 314q65 17 90 6q0 -110 50 -182.5t128 -89.5l114 430q-3 2 -44 30 t-55.5 40t-45 38t-49.5 50.5t-33 52.5q-42 85 -14 215q15 67 59.5 130t106.5 107q59 42 133.5 65t140.5 25l43 163q27 10 81 10l-46 -175q64 -5 131 -25t97 -24z" />
<glyph unicode="%" horiz-adv-x="1304" d="M465 746q0 -22 10.5 -40t23.5 -18q51 0 113 82q96 127 96 249q0 66 -56 66q-52 0 -115 -106q-37 -63 -54.5 -113t-17.5 -120zM417 1058q46 46 106.5 73.5t122.5 27.5q79 0 116 -40q33 -23 91.5 -39.5t102.5 -16.5q199 0 310 102l82 -43l-1037 -1155l-99 25l923 1026 q-117 -47 -218 -47q-67 0 -127 38q-10 -148 -120 -281q-99 -120 -220 -120q-76 0 -115.5 39t-39.5 116q0 171 122 295zM946 99q0 -22 10.5 -40t23.5 -18q52 0 113 82q96 127 96 249q0 66 -56 66q-52 0 -115 -106q-37 -63 -54.5 -113t-17.5 -120zM898 411q46 46 107 73.5 t123 27.5t103 -29t41 -96q0 -84 -35 -164.5t-86 -141.5q-99 -120 -219 -120q-76 0 -116 39t-40 116q0 171 122 295z" />
<glyph unicode="&#x26;" horiz-adv-x="1492" d="M763 1098q-9 -28 -0.5 -106t32.5 -132l7 -12q185 132 205 231q15 71 -12 123.5t-83 52.5q-32 0 -64 -16t-52 -49q-20 -34 -33 -92zM1235 727q53 88 -57 96q-14 2 -12 15l10 49l9 6q121 -4 198 -4l160 4l3 -4l-10 -47q-3 -17 -25 -19q-42 -3 -79 -31t-92 -94 q-213 -254 -313 -379q5 -13 14.5 -40t15.5 -43t15.5 -39.5t17.5 -37.5t18.5 -28t22 -20.5t23.5 -6.5q24 0 40.5 3t45.5 22t58 55q14 0 29 -18.5t20 -40.5q-132 -145 -267 -145q-37 0 -65.5 5t-61 19t-60 46t-48.5 80q-172 -150 -379 -150q-182 0 -262 73q-88 80 -50 254 q25 116 122 214.5t302 194.5q-49 94 -62.5 155.5t0.5 134.5q10 48 47.5 110t92.5 113t139.5 80.5t170.5 29.5q63 0 112.5 -23t75.5 -58.5t35.5 -77t1.5 -80.5q-22 -103 -114.5 -179t-248.5 -149l6 -10q45 -135 133 -324q4 -11 12.5 -13t16.5 5q74 81 143 166.5t96 130.5z M606 649q-95 -72 -137 -144.5t-60 -156.5q-22 -104 14.5 -194.5t96.5 -90.5q71 0 135.5 35.5t141.5 116.5q-96 195 -191 434z" />
<glyph unicode="'" horiz-adv-x="440" d="M259 842l-27 8q12 348 15 360q9 40 50 75.5t99 35.5q38 0 56 -11.5t17.5 -28.5t-3.5 -36q-3 -14 -41.5 -111.5t-75.5 -188.5l-37 -91z" />
<glyph unicode="(" horiz-adv-x="645" d="M198 518q57 268 236 521t418 436l39 -70q-357 -352 -471 -887q-33 -153 -38 -293.5t7 -231t40 -175.5t45.5 -119.5t39.5 -69.5l-72 -65q-72 82 -125 174.5t-81.5 173.5t-43.5 167.5t-17.5 150t2 129.5t10 97.5t11.5 61.5z" />
<glyph unicode=")" horiz-adv-x="645" d="M666 514q-57 -268 -236 -520.5t-418 -435.5l-39 69q359 354 472 887q33 153 38 293.5t-7 231t-40 175.5t-45.5 119.5t-39.5 69.5l71 65q72 -82 125 -174.5t81.5 -173.5t43.5 -167.5t17.5 -150t-2 -129.5t-10 -97.5t-11.5 -61.5z" />
<glyph unicode="*" horiz-adv-x="886" d="M506 1159q-6 1 -24 5t-25.5 5t-27.5 0q-46 -7 -80.5 -8t-51 19.5t-7.5 64.5q5 25 25 45.5t52 20.5q29 0 51.5 -17.5t50.5 -46t58 -43.5q5 43 -9 102.5t-9 84.5q7 31 35 55t55 24q30 0 49.5 -18.5t12.5 -52.5q-6 -28 -43.5 -96.5t-45.5 -98.5q38 16 75.5 45t64.5 47.5 t54 18.5q39 0 52.5 -23.5t8.5 -46.5q-9 -42 -51.5 -62t-99.5 -20q-69 0 -105 -6q16 -23 43.5 -43.5t47.5 -32.5t32 -37t4 -61q-6 -26 -29 -42.5t-45 -16.5q-33 0 -50 22t-20 50t-8.5 69t-14.5 65q-20 -27 -40 -69.5t-32.5 -69t-39.5 -47t-67 -20.5q-24 0 -36.5 16.5 t-7.5 40.5q8 38 30.5 64t47 37.5t60 32t60.5 44.5z" />
<glyph unicode="+" horiz-adv-x="1099" d="M755 551h321l-33 -152h-320l-71 -333h-159l71 333h-321l32 152h321l71 336h159z" />
<glyph unicode="," horiz-adv-x="499" d="M294 260q81 0 112.5 -64t4.5 -188q-12 -52 -58 -118t-99 -111q-52 -44 -119.5 -77.5t-123.5 -43.5q-26 21 0 63q67 18 148 98.5t91 125.5q3 13 0 23.5t-11.5 17.5t-15 11.5t-17.5 9t-12 5.5q-32 17 -45 57t-4 81q7 34 58.5 72t90.5 38z" />
<glyph unicode="-" horiz-adv-x="733" d="M670 440h-406q-35 0 -55.5 12.5t-20.5 30.5q0 29 32.5 74t62.5 45h409q74 0 74 -43q0 -25 -32 -72t-64 -47z" />
<glyph unicode="." horiz-adv-x="462" d="M82 119q0 60 44.5 102.5t106.5 42.5t105 -40.5t43 -100.5q0 -58 -45 -100.5t-107 -42.5t-104.5 40.5t-42.5 98.5z" />
<glyph unicode="/" horiz-adv-x="606" d="M830 1397l-658 -1440h-122l659 1440h121z" />
<glyph unicode="0" horiz-adv-x="1052" d="M779 1157q-91 0 -163 -151q-56 -117 -116 -354t-60 -410q0 -174 99 -174q97 0 185 219q44 110 95 325.5t51 347.5q0 101 -25 149t-66 48zM519 -20q-159 0 -241 116t-82 304q0 211 77.5 399.5t188.5 298.5q153 151 336 151q64 0 119 -20t103.5 -62.5t76.5 -121t28 -185.5 q0 -196 -72 -390t-165 -300q-84 -97 -182 -143.5t-187 -46.5z" />
<glyph unicode="1" horiz-adv-x="1052" d="M771 250q-8 -36 -8 -63.5t4.5 -46t18 -32t26 -21t35.5 -12t39 -6t44 -3.5q13 -9 7.5 -35t-22.5 -35q-240 4 -320 4l-327 -4q-13 9 -7.5 35t22.5 35q41 2 63.5 5t55 13.5t52 29t38.5 53t29 83.5l136 641q11 50 11.5 74t-5 30t-19.5 6q-87 0 -211 -51q-34 30 -24 88 q64 26 222 87.5t232 93.5q64 30 103 30q33 0 25 -35q-40 -116 -63 -225z" />
<glyph unicode="2" horiz-adv-x="1052" d="M526 1194q117 55 232 55q131 0 230 -73.5t99 -188.5q0 -29 -4 -56t-9.5 -49t-20 -48t-24.5 -44t-35.5 -46.5t-41 -46t-52 -52t-58.5 -54.5t-70.5 -64t-77.5 -70l-111 -101q-74 -67 -149 -153h289q66 0 96 25t83 128q45 0 82 -20q-71 -220 -131 -336h-723q-5 11 -2.5 35 t10.5 39q131 120 349 345l168 173q88 91 126 173.5t38 188.5q0 77 -47.5 124.5t-116.5 47.5q-112 0 -145 -64q-13 -16 -4.5 -62t4.5 -69q-8 -45 -46.5 -68t-85.5 -23q-43 0 -67.5 27.5t-24.5 64.5q0 149 240 262z" />
<glyph unicode="3" horiz-adv-x="1052" d="M665 1126q-60 0 -98 -18t-51 -74q-34 -145 -122 -145q-38 0 -65 22t-27 60q0 65 107 144q51 37 90 61.5t109.5 48.5t139.5 24q78 0 139 -25t94 -63t49.5 -77.5t16.5 -75.5q0 -101 -55 -167t-176 -130l2 -7q99 -34 151.5 -103t52.5 -157q0 -106 -37.5 -176t-111.5 -144 q-143 -144 -423 -144q-70 0 -151.5 19.5t-127.5 47.5t-46 73q0 42 28.5 74.5t76.5 32.5q80 0 116 -75q16 -31 58.5 -58.5t93.5 -27.5q112 0 185 90q40 49 58 93.5t18 123.5q0 106 -65.5 164.5t-140.5 58.5q-62 0 -102 -4q-15 26 10 82q111 13 191 52q93 45 127 103t34 158 q0 58 -44 98.5t-104 40.5z" />
<glyph unicode="4" horiz-adv-x="1052" d="M729 1026q-120 -133 -482 -598h354zM1029 428q29 0 22 -33q-4 -20 -26.5 -41.5t-42.5 -21.5h-162l-18 -82q-9 -42 -10 -72.5t7.5 -50t19 -31t33.5 -18t40.5 -8.5t49.5 -4q13 -9 7.5 -35t-21.5 -35q-61 1 -124.5 2t-100.5 1.5t-71 0.5l-301 -4q-13 9 -7.5 35t22.5 35 q40 2 61.5 5t50.5 13.5t45.5 29t33 52.5t27.5 84l17 82h-341q-33 0 -43.5 3t-16.5 11l-21 37q-3 9 -8 20t-7.5 17.5t-1.5 9.5q1 6 19 27q36 43 209 252t280.5 332.5t191.5 207.5h173l-175 -821h189z" />
<glyph unicode="5" horiz-adv-x="1052" d="M733 395q0 165 -127 205q-44 14 -130.5 26.5t-143.5 14.5l-22 16l207 592q34 -3 117.5 -11.5t128.5 -8.5q41 0 83 2.5t70 5t86 8.5t94 10l38 -26l-74 -176q-193 -13 -224 -13q-167 0 -277 11q-55 -144 -79 -216q40 -6 218 -49q151 -37 225 -133.5t74 -205.5 q0 -64 -11.5 -114t-38 -92t-53.5 -71.5t-75 -73.5q-64 -59 -162.5 -87.5t-200.5 -28.5q-170 0 -260 57q-27 17 -42.5 42.5t-15.5 49.5q0 45 30 78.5t81 33.5q50 0 86 -23t51 -56q17 -38 47.5 -65t59.5 -27q92 0 150 68q90 106 90 257z" />
<glyph unicode="6" horiz-adv-x="1052" d="M485 604q-52 -137 -52 -323q0 -106 45.5 -160.5t91.5 -54.5q35 0 76 24t68 72q26 46 46.5 132t20.5 166q0 82 -37 139.5t-103 57.5q-63 0 -156 -53zM1109 1232q-98 -37 -174.5 -78t-174.5 -112q-81 -59 -145.5 -151.5t-98.5 -201.5q119 59 212 71q74 -2 132 -20t92 -45 t56 -63.5t30 -70.5t8 -70q0 -105 -42.5 -205.5t-121.5 -174.5q-63 -59 -156.5 -95t-195.5 -36q-63 0 -123 24.5t-111 71.5t-82 125.5t-31 175.5q0 193 101 374t260 300q128 95 254 154.5t291 97.5q20 -23 20 -71z" />
<glyph unicode="7" horiz-adv-x="1052" d="M535 1020q-48 0 -81.5 -35.5t-80.5 -142.5q-41 -7 -67 6q36 216 78 395q1 6 9 6q10 -3 23 -8.5t28.5 -8.5t45.5 -3h692l8 -19q-172 -261 -315 -495t-216 -361.5t-200 -357.5l-209 -21l-6 25q409 567 713 1020h-422z" />
<glyph unicode="8" horiz-adv-x="1052" d="M775 1161q-94 0 -131 -41q-46 -52 -46 -165q0 -93 78 -142l85 -53q56 32 92.5 104t36.5 153q0 64 -31 104t-84 40zM1009 809q-70 -68 -175 -98l93 -68q107 -78 107 -225q0 -108 -46 -188t-141 -147q-145 -103 -340 -103q-152 0 -255 68t-103 187q0 131 138 260 q87 81 232 146l-35 27q-139 103 -139 213q0 146 125 256q127 112 333 112q142 0 222.5 -70.5t80.5 -161.5q0 -70 -23.5 -114.5t-73.5 -93.5zM536 66q108 0 172 73q33 38 57 100t24 129q0 47 -24 83.5t-85 78.5l-92 64q-65 -42 -107 -86.5t-62 -92.5t-27 -91t-7 -99 q0 -68 44.5 -113.5t106.5 -45.5z" />
<glyph unicode="9" horiz-adv-x="1052" d="M781 625q53 139 53 323q0 106 -46 160.5t-92 54.5q-35 0 -76 -24t-68 -72q-26 -46 -46.5 -132t-20.5 -166q0 -82 37 -140t103 -58q61 0 156 54zM157 -3q99 37 175.5 77.5t173.5 111.5q81 59 145.5 152t98.5 202q-119 -59 -212 -71q-74 2 -132 20t-92 45t-56 63.5 t-30 70.5t-8 70q0 105 42.5 205.5t121.5 174.5q63 59 156.5 95t195.5 36q63 0 123 -24.5t111 -71.5t82 -125.5t31 -175.5q0 -193 -101 -374t-260 -300q-128 -96 -253.5 -155t-290.5 -97q-21 24 -21 71z" />
<glyph unicode=":" horiz-adv-x="524" d="M145 139q0 60 45 103t107 43t104.5 -41t42.5 -101q0 -58 -44.5 -100.5t-106.5 -42.5t-105 40.5t-43 98.5zM266 743q0 60 45 103t107 43t104.5 -40.5t42.5 -100.5q0 -59 -45 -101.5t-106 -42.5q-62 0 -105 40.5t-43 98.5z" />
<glyph unicode=";" horiz-adv-x="524" d="M260 741q0 60 45 103t107 43t104.5 -41t42.5 -101q0 -58 -44.5 -100.5t-106.5 -42.5t-105 40.5t-43 98.5zM314 260q81 0 113 -64.5t5 -187.5q-12 -52 -58 -118t-100 -111q-53 -44 -119.5 -77.5t-122.5 -43.5q-26 21 0 63q67 18 148 98.5t91 125.5q3 13 0 23.5t-11.5 17.5 t-15.5 11.5t-17.5 9t-12.5 5.5q-32 17 -45 57t-4 81q7 34 58.5 72t90.5 38z" />
<glyph unicode="&#x3c;" horiz-adv-x="1048" d="M435 492l561 -238l-27 -127l-758 319l19 91l894 319l-27 -127z" />
<glyph unicode="=" horiz-adv-x="1128" d="M1076 406l-24 -115h-835l24 115h835zM1131 662l-25 -117h-835l25 117h835z" />
<glyph unicode="&#x3e;" horiz-adv-x="1048" d="M831 487l-560 238l27 127l758 -322l-19 -90l-894 -317l27 127z" />
<glyph unicode="?" horiz-adv-x="880" d="M487 1167q-4 -20 -2.5 -50.5t-4.5 -59.5q-8 -38 -42 -61t-78 -23q-39 0 -67.5 32.5t-16.5 86.5q11 51 44 90.5t96 85.5q108 80 280 80q164 0 242 -86t48 -228q-7 -32 -21.5 -62.5t-29 -53.5t-41.5 -50.5t-43.5 -43t-51.5 -41.5t-48.5 -35.5t-50.5 -34.5 q-31 -20 -50.5 -36t-46.5 -45t-46 -70t-30 -93l-6 -27q-9 -40 -23.5 -54.5t-54.5 -14.5q-36 0 -45.5 16.5t-1.5 52.5l6 31q9 44 17.5 71.5t30 74.5t62 94t98.5 94q126 98 157 242q20 97 -5 161t-101 64q-63 0 -114 -32t-60 -75zM235 119q13 60 64 102.5t109 42.5t90 -40.5 t19 -100.5q-13 -58 -64 -100.5t-109 -42.5t-90 40.5t-19 98.5z" />
<glyph unicode="@" horiz-adv-x="2023" d="M1336 655q14 54 9 89.5t-38 35.5q-89 0 -173 -78q-149 -135 -197 -366q-8 -40 -10.5 -70.5t2.5 -59t24 -44t52 -15.5q95 0 220 248q98 196 111 260zM1336 164q-4 -19 3 -24t25 -5q23 0 60 15t84 49.5t91 82t82 120.5t56 157q30 136 12.5 240.5t-62.5 179.5t-113 123 t-139 71t-142 23q-114 0 -232 -48.5t-224.5 -137.5t-190.5 -230.5t-120 -312.5q-17 -78 -18.5 -158t12.5 -161.5t52 -152t95.5 -125.5t147.5 -86.5t204 -31.5q227 0 437 154l28 -60q-83 -57 -148 -91t-161.5 -58.5t-209.5 -24.5q-169 0 -303.5 56.5t-216 159t-112 246.5 t8.5 319q34 159 124.5 307t218 261.5t296 182t345.5 68.5q107 0 199.5 -24t162.5 -67.5t122.5 -105.5t79 -138t33 -164t-15.5 -185q-30 -141 -123.5 -265.5t-221.5 -199t-255 -74.5q-118 0 -143 31q-31 39 -19 96q-56 -59 -122.5 -91t-107.5 -32q-125 0 -176 58 q-61 69 -30 213q27 126 131 250.5t235.5 200t240.5 75.5q120 0 164 -78l86 68l47 -23l-224 -518q-47 -109 -53 -135z" />
<glyph unicode="A" horiz-adv-x="1454" d="M649 580h299l-67 485h-13l-264 -459q-9 -15 1.5 -20.5t43.5 -5.5zM356 162q-11 -20 -13.5 -35.5t7 -25.5t19 -16t32 -10t34.5 -5.5t38 -3.5q7 -9 2 -35t-16 -35q-144 4 -260 4q-39 0 -187 -4q-7 9 -1.5 35t16.5 35q39 3 62 7.5t52 18.5t55 42.5t54 74.5l631 1048 q66 0 233 91l178 -1172q2 -15 6 -28t8 -22.5t12 -17.5t12.5 -13.5t16.5 -10t16.5 -6.5t20 -4.5t20 -3l22.5 -2.5t22 -2q7 -9 2 -35t-16 -35q-144 4 -263 4q-187 0 -335 -4q-7 9 -3 35t15 35q12 1 38.5 2t37 2t30 4t27 8t17.5 13t12 21t0 31l-45 334h-373q-35 0 -50 -7 t-26 -28z" />
<glyph unicode="B" horiz-adv-x="1271" d="M698 1151l-73 -381h110q124 0 202.5 81t78.5 230q0 158 -162 158q-62 0 -94.5 -10.5t-43.5 -27.5t-18 -50zM608 684l-100 -512q-5 -22 -5 -34q0 -29 25.5 -42.5t92.5 -13.5q82 0 147 23t106 60.5t67.5 88.5t37.5 103.5t11 109.5q0 102 -60 159.5t-182 57.5h-140z M596 1321q26 0 126.5 2t154.5 2q414 0 414 -252q0 -111 -69.5 -199.5t-177.5 -134.5l-2 -4q237 -70 237 -268q0 -219 -154 -345t-463 -126q-65 0 -176.5 2t-145.5 2l-303 -4q-9 8 -9 25q0 33 21 45q39 2 60 5t47 13.5t40 29.5t28 52.5t24 83.5l160 821q9 44 9 83 q0 26 -6.5 44.5t-16 28.5t-29.5 16t-36.5 8t-47.5 4q-9 7 -9 23q0 34 23 47q223 -4 301 -4z" />
<glyph unicode="C" horiz-adv-x="1382" d="M774 -20q-299 0 -444 129q-97 85 -129.5 233.5t-3.5 302.5q32 165 114.5 299.5t197 222t251.5 134.5t282 47q83 0 153 -13t108.5 -29.5t80.5 -32t72 -18.5q-7 -202 -18 -317q-19 -9 -44.5 -12.5t-43.5 2.5q-5 58 -15.5 103t-34.5 90t-60.5 74.5t-96 48t-137.5 18.5 q-114 0 -219.5 -78.5t-180 -210t-104.5 -289.5q-25 -120 -12 -228t50.5 -190.5t104.5 -131t150 -48.5q251 0 477 213q16 0 34 -14.5t23 -28.5q-127 -135 -269 -205.5t-286 -70.5z" />
<glyph unicode="D" horiz-adv-x="1429" d="M547 244q-8 -40 -8 -64q0 -58 37 -78t126 -20q90 0 179 60.5t159 163.5t113.5 252.5t43.5 314.5q0 64 -9.5 116t-33 99t-61 79t-97 51t-136.5 19q-120 0 -151 -154zM362 0l-303 -4q-8 7 -8 23q0 34 23 47q39 2 60 5t46.5 13.5t40 29.5t28 52.5t23.5 83.5l160 821 q10 55 10 82q0 62 -31.5 80t-107.5 22q-8 7 -8 23q0 34 22 47q226 -4 304 -4q36 0 122.5 1t141.5 1q151 0 267.5 -40t189 -112t109 -167t36.5 -211q0 -195 -79.5 -368.5t-186.5 -256.5q-115 -89 -257 -130.5t-284 -41.5q-39 0 -159 2t-159 2z" />
<glyph unicode="E" horiz-adv-x="1183" d="M772 752q103 0 142.5 22.5t60.5 104.5q11 9 44 9t40 -9q-12 -54 -37 -177q-18 -90 -33 -180q-11 -9 -44 -9t-40 9q9 71 -22.5 99t-130.5 28h-160l-90 -465q-7 -41 11 -69.5t50 -28.5h199q107 0 190 71.5t138 190.5q20 5 46.5 2t39.5 -12q-4 -12 -47.5 -146.5 t-71.5 -195.5q-177 4 -271 4h-462q-210 -2 -306 -4q-7 9 -1.5 35t16.5 35q40 2 61.5 4t46 8.5t36.5 17.5t25 32t21.5 49.5t16.5 72.5l157 819q9 44 12 72.5t-2 50t-12.5 32.5t-28.5 18t-42 9t-60 4q-7 9 -3 35t15 35l304 -4h579q51 0 98 8q7 0 7 -6t-7.5 -62t-16 -127.5 t-11.5 -107.5q-36 -18 -86 -10q-13 118 -49.5 168.5t-139.5 50.5h-168q-34 0 -63 -30.5t-37 -69.5l-74 -383h160z" />
<glyph unicode="F" horiz-adv-x="1060" d="M514 250q-7 -36 -7.5 -63.5t3.5 -46.5t15.5 -32t22.5 -20.5t33 -12t37.5 -6t43.5 -3.5q12 -9 7 -35t-22 -35q-156 4 -317 4q-143 0 -303 -4q-12 9 -7.5 35t21.5 35q39 2 60 5t47 13.5t40 29.5t28 52.5t24 83.5l157 819q9 44 12 72.5t-2 50t-12.5 32.5t-28.5 18t-42 9 t-60 4q-7 9 -3 35t15 35l304 -4h589q52 0 99 8q6 0 6 -6t-8 -64.5t-17 -132.5t-12 -110q-36 -18 -86 -10q-7 60 -16 96.5t-28.5 69.5t-54.5 48t-89 15h-177q-34 0 -63 -30.5t-37 -69.5l-82 -424h160q103 0 142.5 22.5t60.5 104.5q11 9 44 9t40 -9q-14 -61 -37 -176 q-17 -85 -33 -181q-11 -9 -44 -9t-40 9q9 71 -23 99t-131 28h-159z" />
<glyph unicode="G" horiz-adv-x="1480" d="M1061 1348q103 0 196 -18t162 -36t115 -18q-21 -220 -21 -336l-90 -12q-6 70 -31 127.5t-71 105t-124 74.5t-181 27q-79 0 -166.5 -37.5t-159.5 -114.5q-144 -153 -201 -440q-14 -70 -16 -139t7.5 -137.5t37 -127t70 -103.5t109 -71t151.5 -26q79 0 130.5 18t111.5 68 l59 305q11 57 -20 74t-121 24q-7 9 -2 38t16 38q184 -4 301 -4q118 0 236 4q7 -9 1.5 -38t-16.5 -38q-47 -5 -73.5 -26t-36.5 -72l-45 -240q-6 -33 18 -57q-116 -83 -283 -131.5t-340 -48.5q-327 0 -479 155q-87 87 -118 220t-3 274q31 160 120.5 296t217.5 232 q123 93 265 142t274 49z" />
<glyph unicode="H" horiz-adv-x="1505" d="M1219 1071q8 42 9.5 72t-5.5 50t-16 31.5t-30 18t-38 8.5t-49 4q-12 9 -7.5 35t21.5 35q156 -4 303 -4q139 0 299 4q12 -9 7.5 -35t-21.5 -35q-39 -2 -60 -5t-47 -13.5t-40 -29.5t-28 -52.5t-24 -83.5l-160 -821q-8 -42 -10 -72t5 -50t15.5 -31.5t29.5 -18t38 -8.5t49 -4 q12 -9 8.5 -35t-20.5 -35q-156 4 -299 4t-303 -4q-12 9 -7.5 35t21.5 35q39 2 60 5t47 13.5t40 29.5t28 52.5t24 83.5l78 403h-512l-78 -403q-8 -42 -10 -72t5 -50t15.5 -31.5t29.5 -18t38 -8.5t49 -4q12 -9 8.5 -35t-20.5 -35q-156 4 -300 4q-143 0 -303 -4q-12 9 -7 35 t22 35q39 2 60 5t46.5 13.5t40 29.5t28 52.5t23.5 83.5l160 821q8 42 9.5 72t-5.5 50t-16 31.5t-30 18t-38 8.5t-49 4q-12 9 -7.5 35t21.5 35q156 -4 304 -4q139 0 299 4q12 -9 7 -35t-22 -35q-39 -2 -60 -5t-46.5 -13.5t-40 -29.5t-28 -52.5t-23.5 -83.5l-62 -319h512z" />
<glyph unicode="I" horiz-adv-x="718" d="M432 1071q8 42 9.5 72t-5.5 50t-16 31.5t-30 18t-38 8.5t-49 4q-12 9 -7.5 35t21.5 35q156 -4 304 -4q139 0 299 4q12 -9 7 -35t-22 -35q-39 -2 -60 -5t-46.5 -13.5t-40 -29.5t-28 -52.5t-23.5 -83.5l-160 -821q-8 -42 -10 -72t5 -50t15.5 -31.5t29.5 -18t38 -8.5t49 -4 q12 -9 8.5 -35t-20.5 -35q-156 4 -300 4q-143 0 -303 -4q-12 9 -7 35t22 35q39 2 60 5t46.5 13.5t40 29.5t28 52.5t23.5 83.5z" />
<glyph unicode="J" horiz-adv-x="735" d="M764 1069l-168 -858q-16 -84 -43.5 -155t-54 -116t-66.5 -89t-64.5 -64t-64.5 -51q-155 -119 -319 -119q-32 0 -72 15.5t-70 50.5t-22 79q8 41 56.5 78t78.5 37q27 0 45.5 -10.5t25 -21t14.5 -32t11 -28.5q11 -21 33.5 -34t48.5 -13q27 0 44.5 10t34 33t32 75.5t31 122 t38.5 187.5l174 903q9 44 12 72.5t-2.5 50t-14.5 32.5t-32.5 18t-47 9t-68.5 4q-7 9 -3 35t15 35q196 -4 326 -4q101 0 293 4q7 -9 1.5 -35t-16.5 -35q-41 -2 -62.5 -5.5t-44 -13.5t-34.5 -30t-23.5 -52.5t-21.5 -84.5z" />
<glyph unicode="K" horiz-adv-x="1445" d="M432 1071q8 42 9.5 72t-5.5 50t-16 31.5t-30 18t-38 8.5t-49 4q-12 9 -7.5 35t21.5 35q156 -4 304 -4q139 0 299 4q12 -9 7 -35t-22 -35q-39 -2 -60 -5t-46.5 -13.5t-40 -29.5t-28 -52.5t-23.5 -83.5l-68 -350q46 7 97.5 39.5t162.5 120.5q174 128 248 194 q186 163 24 180q-7 9 -1.5 35t16.5 35q184 -4 241 -4q3 0 187 4q7 -9 3 -35t-15 -35q-37 -4 -73.5 -16t-61.5 -23t-64.5 -38t-56.5 -40.5t-66 -52.5t-66 -53l-251 -198q-11 -8 -18 -15.5t-10 -15t-4.5 -10.5t-2.5 -11v-8q-5 -22 41 -92l327 -530q28 -43 59 -61t77 -25 q7 -9 2.5 -35t-15.5 -35q-184 4 -217 4q-139 0 -217 -4q-8 0 -8 12q4 59 -43 144l-219 403q-23 41 -41 57.5t-53 19.5l-74 -382q-8 -42 -10 -72t5 -50t15.5 -31.5t29.5 -18t38 -8.5t49 -4q12 -9 8.5 -35t-20.5 -35q-156 4 -300 4q-143 0 -303 -4q-12 9 -7 35t22 35 q39 2 60 5t46.5 13.5t40 29.5t28 52.5t23.5 83.5z" />
<glyph unicode="L" horiz-adv-x="1130" d="M702 86q143 0 227 68t142 194q18 3 44 0t38 -10q-60 -194 -117 -342q-178 4 -235 4h-439l-303 -4q-12 9 -7 35t22 35q39 2 60 5t46.5 13.5t40 29.5t28 52.5t23.5 83.5l160 821q8 42 9.5 72t-5.5 50t-16 31.5t-30 18t-38 8.5t-49 4q-12 9 -7.5 35t21.5 35q226 -4 304 -4 q34 0 71 0.5t100.5 1.5t127.5 2q12 -9 7 -35t-22 -35q-39 -2 -60 -5t-46.5 -13.5t-40 -29.5t-28 -52.5t-23.5 -83.5l-160 -823q-33 -162 37 -162h118z" />
<glyph unicode="M" horiz-adv-x="1765" d="M1350 238l114 856h-4l-653 -1084q-14 -26 -41 -26q-10 0 -22 8t-13 18l-190 1010h-9l-200 -768q-14 -48 -17.5 -77t4.5 -54.5t34 -38t73 -16.5q7 -9 2 -35t-16 -35q-118 4 -224 4q-52 0 -170 -4q-7 9 -1.5 35t16.5 35q83 7 118.5 46t63.5 136l242 844q9 32 14 51.5 t6.5 38t2 28t-7.5 18.5t-14 12.5t-25 7t-32.5 4.5t-44.5 3q-7 9 -2.5 35t15.5 35l403 -4l174 -909h10l551 909l396 4q7 -9 2.5 -35t-15.5 -35q-98 -6 -126.5 -32.5t-37.5 -112.5l-108 -862q-5 -36 -7.5 -56.5t-2.5 -42.5t1 -32t8.5 -21t14.5 -14.5t24 -8t32.5 -5.5t44.5 -2 q7 -9 2.5 -35t-15.5 -35q-132 4 -215 4q-143 0 -327 -4q-7 9 -3 35t15 35q40 2 56 3t37 8t27 14.5t16 29.5t14 46.5t10 70.5z" />
<glyph unicode="N" horiz-adv-x="1452" d="M1257 0q-54 -25 -145 -25q-32 40 -61 91l-502 815q-24 41 -37 41q-17 0 -25 -41l-118 -609q-7 -36 -11 -62t-3 -47t3 -34.5t12.5 -24t18.5 -16t28.5 -10.5t36 -7t46.5 -5q7 -9 1.5 -35t-16.5 -35q-196 4 -235 4q-29 0 -221 -4q-7 9 -3 35t15 35q41 4 63 7.5t47 12 t37 20.5t26 35t22.5 53.5t17.5 77.5l166 854q-2 45 -37.5 85t-93.5 44q-7 9 -2 35t16 35l336 -4l135 -215l395 -639q11 -18 21.5 -25.5t20 -0.5t14.5 32l110 576q7 36 11 62t3 47t-3 34.5t-12.5 24t-18.5 16t-28.5 10.5t-36 7t-46.5 5q-7 9 -1.5 35t16.5 35q196 -4 237 -4 q29 0 221 4q7 -9 2 -35t-16 -35q-41 -4 -62.5 -7.5t-46.5 -12t-37 -20.5t-25.5 -35t-22 -53.5t-17.5 -77.5l-164 -840z" />
<glyph unicode="O" horiz-adv-x="1431" d="M934 1262q-85 0 -164.5 -54.5t-142.5 -164.5q-58 -101 -104 -265t-46 -315q0 -188 78 -292.5t211 -104.5q120 0 223.5 111t163 295t59.5 393q0 192 -75 294.5t-203 102.5zM711 -20q-148 0 -267 60t-191 178t-72 275q0 187 73.5 345.5t194.5 279.5q108 108 244.5 169 t281.5 61q237 0 385.5 -142t148.5 -379q0 -231 -103.5 -425t-287 -308t-407.5 -114z" />
<glyph unicode="P" horiz-adv-x="1204" d="M940 1339q221 0 315 -67q72 -52 92 -129t5 -152q-17 -91 -66 -178.5t-129 -146.5q-134 -99 -393 -99q-28 0 -68 6q-35 25 -22 86q40 -6 96 -6q120 0 184 70.5t95 232.5q59 299 -189 299q-75 0 -103.5 -36.5t-49.5 -145.5l-160 -823q-8 -42 -10 -72t5 -50t15.5 -31.5 t29.5 -18t38 -8.5t49 -4q12 -9 8.5 -35t-20.5 -35q-156 4 -300 4q-143 0 -303 -4q-12 9 -7 35t22 35q39 2 60 5t46.5 13.5t40 29.5t28 52.5t23.5 83.5l160 821q8 42 9.5 72t-5.5 50t-16 31.5t-30 18t-38 8.5t-49 4q-12 9 -7.5 35t21.5 35q39 0 311.5 7t311.5 7z" />
<glyph unicode="Q" horiz-adv-x="1431" d="M934 1262q-85 0 -164.5 -54.5t-142.5 -164.5q-58 -101 -104 -265t-46 -315q0 -188 78 -292.5t211 -104.5q120 0 223.5 111t163 295t59.5 393q0 192 -75 294.5t-203 102.5zM259 -264q155 155 351 251q-190 30 -309.5 164.5t-119.5 341.5q0 187 73.5 345.5t194.5 279.5 q108 108 244.5 169t281.5 61q237 0 385.5 -142t148.5 -379q0 -218 -93 -404.5t-259.5 -303.5t-372.5 -136q-101 -34 -214 -106h12q60 0 117 -19.5t101.5 -47t87 -55t90.5 -47t95 -19.5q48 0 99 18.5t88 56.5l24 -45q-79 -92 -155 -140t-164 -48q-71 0 -134 22t-109 53.5 t-88.5 63.5t-91 54t-98.5 22q-34 0 -80 -30q-52 -48 -88 -91l-63 62q19 25 46 49z" />
<glyph unicode="R" horiz-adv-x="1404" d="M1069 1048q0 59 -18.5 101.5t-50 64.5t-66 31.5t-74.5 9.5q-75 0 -103.5 -36.5t-49.5 -145.5l-78 -407h84q74 0 134 18.5t112 60t81 119t29 184.5zM940 1339q204 0 311 -69t107 -224q0 -70 -20.5 -132.5t-52.5 -106t-74.5 -80.5t-80.5 -59t-77 -37l184 -430 q32 -71 67 -103t97 -32q1 -3 1 -14q0 -38 -13 -56q-37 -16 -205 -16q-81 0 -132.5 49.5t-90.5 132.5l-162 356q-10 26 -23 37.5t-51 18t-115 6.5l-63 -330q-10 -49 -10 -83q0 -33 8.5 -53t29.5 -29.5t40.5 -13t58.5 -5.5q9 -7 9 -25q0 -33 -21 -45q-156 4 -300 4 q-143 0 -303 -4q-8 7 -8 23q0 34 23 47q39 2 60 5t46.5 13.5t40 29.5t28 52.5t23.5 83.5l160 821q10 55 10 82q0 62 -31.5 80t-107.5 22q-9 7 -9 23q0 34 23 47q39 0 311.5 7t311.5 7z" />
<glyph unicode="S" horiz-adv-x="987" d="M1077 1292q-15 -182 -39 -311q-22 -16 -60 -16q-18 0 -40 6q-3 48 -8 83.5t-18 77.5t-33.5 68.5t-57 45t-84.5 18.5q-80 0 -142.5 -60t-62.5 -154q0 -71 54 -135t116 -100q49 -29 93.5 -64.5t91 -86t74.5 -114.5t28 -131q0 -59 -15.5 -110t-45 -92.5t-58.5 -71t-69 -61.5 q-131 -104 -326 -104q-118 0 -188.5 10t-110 20t-82.5 10q-3 31 -3 72q0 115 30 266q44 12 68 12q19 0 32 -5q3 -135 74.5 -217t173.5 -82t172 58t70 154q0 45 -14.5 83.5t-47 72.5t-63 58.5t-83.5 60.5q-118 80 -179 163.5t-61 196.5q0 218 177 343q59 42 146 67t170 25 q80 0 135 -10t102.5 -25t83.5 -21z" />
<glyph unicode="T" horiz-adv-x="1280" d="M846 252q-9 -44 -12 -72.5t2.5 -50t14.5 -32.5t32.5 -18t47 -9t68.5 -4q7 -9 2 -35t-16 -35q-196 4 -330 4q-133 0 -325 -4q-7 9 -3 35t15 35q45 2 70 4t51.5 9t39.5 18t27 32.5t22 50t17 72.5l154 784q13 67 14 109.5t-15 68t-52 25.5h-97q-101 0 -170.5 -49 t-121.5 -168q-51 0 -74 10q61 146 106 299q0 2 4 4t7 2q197 -16 454 -16h277q263 0 444 16q4 0 4 -6q-23 -133 -30 -293q-23 -10 -80 -10q-1 115 -54.5 163t-167.5 48h-45q-51 0 -80 -51.5t-49 -157.5z" />
<glyph unicode="U" horiz-adv-x="1437" d="M653 1069l-100 -518q-12 -61 -18 -104.5t-7.5 -98.5t11.5 -100.5t41 -79.5q81 -102 213 -102q69 0 127.5 16.5t100.5 42.5t77.5 67t58 81.5t42 95t30.5 98t22 100.5l99 502q22 112 -1 145q-18 26 -90 35q-15 2 -55 6q-7 9 -1.5 35t16.5 35q196 -4 249 -4q19 0 211 4 q7 -9 2 -35t-16 -35q-34 -4 -47.5 -6t-36 -7t-31 -12.5t-22 -20t-20 -32t-14.5 -45.5t-15 -63l-93 -465q-28 -143 -76 -252.5t-124.5 -195.5t-190 -131t-260.5 -45q-272 0 -381 86q-149 118 -90 417l115 586q8 43 11.5 72.5t-1 50t-11.5 32t-25.5 18.5t-36.5 9t-52 4 q-7 9 -3 35t15 35q196 -4 287 -4q130 0 322 4q7 -9 1.5 -35t-16.5 -35q-44 -2 -68 -4t-49 -9t-37.5 -18t-25.5 -32.5t-20.5 -50t-16.5 -72.5z" />
<glyph unicode="V" horiz-adv-x="1374" d="M1384 1112q50 85 98.5 111.5t125.5 31.5q11 9 16 35t-2 35q-148 -4 -186 -4q-116 0 -260 4q-11 -9 -16.5 -35t1.5 -35q22 -2 37.5 -4t35.5 -6t31 -11t19.5 -16.5t7 -24.5t-11.5 -34l-414 -729l-49 -80l-12 92l-100 732q-3 20 4 34t19 22t36.5 13.5t44.5 7.5t55 4 q11 9 16.5 35t-1.5 35q-148 -4 -347 -4q-120 0 -264 4q-11 -9 -15 -35t3 -35q30 -3 44.5 -5t37 -9.5t34.5 -18t23.5 -30t16.5 -47.5l211 -1122q4 -22 20.5 -35t34.5 -13t41 12.5t35 35.5z" />
<glyph unicode="W" horiz-adv-x="2019" d="M1374 1255l117 -813l12 -86l39 74l375 729q9 19 10 34t-7.5 24.5t-19.5 16.5t-30 11t-34.5 6t-37.5 4q-7 9 -2 35t16 35q144 -4 261 -4q38 0 186 4q7 -9 2 -35t-16 -35q-51 -3 -84 -12.5t-71 -41t-69 -89.5l-591 -1089q-13 -25 -35 -36.5t-41 -11.5q-17 0 -35 15.5 t-21 32.5l-143 817l-434 -817q-25 -48 -76 -48q-19 0 -35.5 13t-19.5 35l-170 1122q-4 27 -15 46.5t-23.5 30.5t-35 18t-38 9.5t-44.5 5.5q-7 9 -3 35t15 35q144 -4 265 -4q198 0 346 4q7 -9 1.5 -35t-16.5 -35q-85 -5 -125.5 -21.5t-35.5 -59.5l92 -732l6 -65l25 53 l421 825q60 -12 119 0z" />
<glyph unicode="X" horiz-adv-x="1411" d="M889 182l-119 322q-13 35 -23.5 39.5t-29.5 -15.5q-104 -117 -293 -360q-61 -91 68 -100q7 -9 1.5 -35t-16.5 -35q-156 4 -239 4q-102 0 -220 -4q-7 9 -1.5 35t16.5 35q77 7 129.5 27t101.5 71l406 430q31 32 33.5 49t-19.5 60l-203 415q-39 80 -72 105t-96 30 q-8 9 -3.5 35t14.5 35q118 -4 305 -4q129 0 289 4q7 -9 2.5 -35t-15.5 -35q-80 -4 -98.5 -30.5t6.5 -83.5l100 -262q8 -22 14 -31.5t15.5 -10t22.5 12.5q114 112 256 305q61 91 -66 100q-7 9 -3 35t15 35q156 -4 228 -4q82 0 200 4q7 -9 3 -35t-15 -35q-75 -7 -124 -26.5 t-97 -71.5l-336 -360q-32 -35 -35 -55t19 -72l213 -467q36 -78 74.5 -104t105.5 -31q7 -9 3 -35t-15 -35q-118 4 -279 4q-147 0 -307 -4q-7 9 -2 35t16 35q33 2 53 7.5t29.5 14t9.5 23.5t-5 30t-17 39z" />
<glyph unicode="Y" horiz-adv-x="1241" d="M842 250q-9 -44 -11.5 -72.5t3 -50t14.5 -32.5t32.5 -18.5t48 -9.5t68.5 -4q7 -9 2 -33.5t-16 -33.5q-196 4 -311 4q-152 0 -344 -4q-7 9 -3 33.5t15 33.5q54 2 82 5.5t55.5 13.5t41.5 31t26 52.5t22 84.5l54 280q10 58 8.5 81.5t-19.5 68.5l-164 440q-31 82 -61.5 106 t-95.5 29q-7 9 -3 35t15 35q118 -4 277 -4q85 0 245 4q7 -9 2 -35t-16 -35q-80 -4 -97 -30t7 -84l131 -377q6 -17 15 -23t19 -1.5t19 18.5l271 397q29 46 7.5 70.5t-87.5 29.5q-7 9 -3 35t15 35q156 -4 217 -4q66 0 184 4q7 -9 2 -35t-16 -35q-74 -7 -110.5 -23.5 t-77.5 -74.5l-338 -438q-25 -31 -39 -68.5t-27 -101.5z" />
<glyph unicode="Z" horiz-adv-x="1224" d="M860 90q95 0 178 73t138 199q52 0 75 -10q-79 -263 -123 -362q0 -6 -10 -6q-197 16 -454 16h-588q-37 0 -31 31q3 22 25 47l950 1108q9 10 14 16.5t9 14.5t-0.5 12t-16.5 4h-377q-188 0 -301 -258q-54 0 -76 10q58 140 119 346q0 6 10 6q197 -16 455 -16h395q31 0 75.5 2 t53.5 2q19 0 26 -5t5 -15q-3 -18 -14 -35.5t-47 -59.5l-904 -1063q-18 -21 -23 -32.5t4.5 -18t39.5 -6.5h393z" />
<glyph unicode="[" horiz-adv-x="813" d="M65 -395l390 1835h490q8 -10 9 -31t-10 -31q-90 -6 -144.5 -15t-95.5 -22.5t-63.5 -40.5t-36.5 -60.5t-26 -90.5l-266 -1251q-10 -48 -13 -77.5t4.5 -56t23.5 -41t51.5 -26.5t82 -18.5t119.5 -12.5q7 -9 2.5 -30.5t-15.5 -30.5h-502z" />
<glyph unicode="\" horiz-adv-x="628" d="M386 1430l256 -1528h-133l-256 1528h133z" />
<glyph unicode="]" horiz-adv-x="813" d="M969 1440l-390 -1835h-489q-8 10 -9 30.5t10 30.5q90 6 144.5 15t95.5 23t63.5 41t36.5 60.5t26 90.5l266 1251q10 48 13 77.5t-4.5 56t-24 40.5t-52.5 26t-81.5 18.5t-119.5 12.5q-7 9 -2.5 31t15.5 31h502z" />
<glyph unicode="^" horiz-adv-x="1060" d="M671 1165l-274 -456h-110l382 622h81l105 -622h-110z" />
<glyph unicode="_" horiz-adv-x="995" d="M948 -225l-16 -90h-977l14 90h979z" />
<glyph unicode="`" horiz-adv-x="802" d="M616 1430l99 -256q6 -18 6 -31t-2 -19q-2 -8 -12.5 -15t-20.5 -7q-17 0 -53 41l-195 223l8 20q3 1 21 12t31.5 18t38.5 13.5t51 6.5q19 0 28 -6z" />
<glyph unicode="a" horiz-adv-x="1142" d="M1040 893q42 0 42 -43q0 -16 -6 -44.5t-17.5 -75t-17.5 -74.5l-87 -402q-14 -56 -14 -87q0 -38 23 -38q18 0 62.5 27.5t80.5 68.5q19 0 36 -19.5t23 -37.5q-71 -91 -164.5 -139.5t-199.5 -48.5q-79 0 -103 67q-6 16 -6 49q0 52 17 123l10 37l-8 4q-90 -133 -180.5 -206.5 t-157.5 -73.5q-107 0 -163 74.5t-56 186.5q0 214 150 405q89 114 207.5 183.5t242.5 69.5q37 0 56 -1.5t39 -5t38 -5.5q15 -3 32 -3q19 0 61 4.5t60 4.5zM746 463q23 58 39.5 136t22.5 127l5 48q-6 39 -70 39t-123 -45.5t-106 -123.5q-48 -80 -76 -176.5t-28 -184.5 q0 -50 22.5 -80t67.5 -30q48 0 107.5 73t138.5 217z" />
<glyph unicode="b" horiz-adv-x="1067" d="M546 569l-69 -309q-23 -105 -10 -149.5t68 -44.5q78 0 154 74.5t125.5 203.5t49.5 272q0 105 -67 105q-71 0 -124 -33.5t-127 -118.5zM572 687l3 -1q183 213 345 213q52 0 91 -16t60.5 -39.5t34.5 -56.5t17 -60t4 -56q0 -154 -62.5 -279t-191.5 -241q-190 -171 -443 -171 q-129 0 -180 77.5t-27 184.5l207 911q8 36 11 60.5t-1.5 42.5t-13 27.5t-27.5 15t-40 7t-56 1.5q-9 28 10 69q26 4 106.5 19t143 25t90.5 10q34 0 48 -17t14 -51q0 -30 -31 -168z" />
<glyph unicode="c" horiz-adv-x="888" d="M862 178q-72 -85 -180 -141.5t-201 -56.5q-102 0 -166 24.5t-108 81.5q-43 56 -55.5 141t8.5 185q23 110 80.5 205t132.5 158t162 98.5t172 35.5q147 0 215 -62t49 -151q-11 -48 -47.5 -81t-81.5 -33q-46 0 -73.5 27.5t-23.5 68.5q3 35 0.5 67t-21.5 55t-52 23 q-77 0 -141.5 -87t-100.5 -253q-34 -160 15 -254t147 -94q52 0 105 25t122 82q13 0 28 -24.5t15 -39.5z" />
<glyph unicode="d" horiz-adv-x="1148" d="M911 1153q10 43 11 70.5t-4.5 44.5t-25 25.5t-43 11t-65.5 2.5q-9 27 11 69q26 4 106.5 19t143 25t90.5 10q34 0 47.5 -17t13.5 -51q0 -19 -4 -42t-13.5 -66t-13.5 -60l-207 -934q-13 -61 -13 -88q0 -37 22 -37q18 0 62.5 27.5t80.5 68.5q19 0 36 -19.5t23 -37.5 q-80 -89 -179 -141.5t-202 -52.5t-103 116q0 57 19 144l-4 2q-95 -138 -172 -200t-163 -62q-127 0 -186.5 76t-59.5 198q0 144 69.5 293.5t196.5 249.5q69 55 134 78.5t147 23.5q56 0 98.5 -32t62.5 -81h1zM783 577q6 26 8 37zM773 541l21 96q0 1 0.5 5t0.5 5 q0 59 -34 108.5t-89 49.5q-84 0 -156 -80t-110.5 -193.5t-38.5 -224.5q0 -192 84 -192q58 0 119 69t139 213q40 71 64 144z" />
<glyph unicode="e" horiz-adv-x="837" d="M702 758q0 57 -65 57q-34 0 -60.5 -11.5t-56 -44t-57.5 -101t-53 -172.5q36 6 72.5 17.5t77 33.5t71.5 51t51 73t20 97zM395 408q-2 -16 -2 -70q0 -236 109 -236q74 0 132.5 31.5t145.5 120.5q18 0 38 -16.5t28 -34.5q-87 -112 -198 -167.5t-220 -55.5q-72 0 -125.5 16 t-86 43t-52.5 68t-27.5 84.5t-7.5 99.5q0 81 19 163t62.5 163t106 143t158 100.5t209.5 38.5q118 0 184 -42.5t66 -100.5q0 -104 -64 -166q-105 -102 -475 -182z" />
<glyph unicode="f" horiz-adv-x="813" d="M391 782h-168q-12 0 -12 4q0 3 3.5 25.5t4.5 26.5q8 31 57 34l136 7q60 297 184 432q109 119 299 119q130 0 223.5 -54.5t93.5 -129.5q0 -40 -27 -75t-79 -35q-92 0 -115 129q-16 78 -94 78q-83 0 -128 -86.5t-79 -261.5l-22 -116h225q14 0 14 -11l-10 -61 q-3 -11 -20 -18t-33 -7h-191l-8 -47q-36 -205 -94 -469q-28 -130 -59.5 -230t-66.5 -169t-58 -106t-58 -84q-57 -76 -132 -115.5t-153 -39.5q-114 0 -173.5 42.5t-59.5 91.5q0 37 23 66t70 29q75 0 119 -74q34 -55 67 -55q28 0 60.5 22t52.5 54q32 49 54 129t31 139 t21.5 171.5t17.5 151.5q24 181 84 493z" />
<glyph unicode="g" horiz-adv-x="1017" d="M350 -27q-75 -55 -103 -85q-54 -59 -54 -119q0 -179 319 -179q50 0 88.5 10t60.5 25t36 36t19 40t5 39q0 45 -20 68t-103 61q-210 96 -248 104zM911 596q0 -98 -51.5 -174t-130.5 -114t-170 -38q-81 0 -139 35q-28 -54 -6 -125q10 -32 74.5 -61.5t197.5 -69.5 q98 -29 174 -96t76 -158q0 -98 -70 -163t-180.5 -92t-257.5 -27q-70 0 -139 9.5t-139 31.5t-113 65t-43 102q0 33 18.5 66t46.5 59.5t67 53.5t72.5 46t71.5 39q14 7 21 11q-74 27 -74 119q0 132 131 223q-55 33 -85 101t-30 141q0 130 98.5 224.5t262.5 94.5q74 0 141 -19.5 t99 -56.5q98 90 204 90q42 0 68.5 -25t26.5 -59q0 -35 -21.5 -58t-54.5 -23q-44 0 -69 42q-14 24 -36 24q-16 0 -78 -58q37 -52 37 -160zM678 596q0 49 -1 77t-6 60t-14.5 47.5t-27 26t-43.5 10.5q-20 0 -36 -3t-28 -7t-21 -14t-15 -17.5t-10 -23.5t-6 -26t-3 -32t-1 -34.5 t0.5 -39.5t0.5 -42q0 -13 -1 -42.5t-0.5 -45.5t2.5 -41.5t8.5 -39.5t17.5 -29t30 -21.5t45 -6.5q18 0 33 4t25.5 9t19 16t14 20t9 26t5.5 28t2.5 33t1 33.5t0 37t-0.5 37.5z" />
<glyph unicode="h" horiz-adv-x="1269" d="M463 147q-2 -10 -6 -29.5t-6 -30.5t-7.5 -27.5t-11 -26t-15.5 -21t-22.5 -18t-31 -10.5t-41.5 -4q-81 0 -108 13.5t-27 41.5q0 9 4 25t11 42.5t11 44.5l225 1006q8 36 11 60.5t-1.5 42.5t-13 27.5t-27.5 15t-40 7t-56 1.5q-9 27 11 69q26 4 106.5 19t143 25t90.5 10 q34 0 47.5 -17t13.5 -51q0 -19 -4 -42t-13.5 -66t-13.5 -60l-119 -543q124 142 224.5 195t191.5 53q71 0 126.5 -40t55.5 -124q0 -46 -26 -155l-78 -326q-31 -125 8 -125q18 0 63 27.5t81 68.5q19 0 36 -19.5t23 -37.5q-70 -90 -170.5 -139t-208.5 -49q-43 0 -65.5 16.5 t-34.5 50.5q-19 54 14 189l76 327q18 79 18 119q0 44 -17.5 59t-53.5 15q-50 0 -123 -71.5t-179 -209.5z" />
<glyph unicode="i" horiz-adv-x="700" d="M408 1221q0 50 37.5 88.5t105.5 38.5q60 0 96.5 -42.5t36.5 -93.5q0 -45 -40.5 -86t-104.5 -41q-59 0 -95 41t-36 95zM601 656l-87 -402q-29 -125 8 -125q18 0 63 27.5t81 68.5q19 0 36 -19.5t23 -37.5q-70 -90 -170.5 -139t-208.5 -49q-43 0 -65.5 16.5t-34.5 50.5 q-16 46 14 189l90 421q12 58 12 84q0 38 -36 41l-82 6q-9 13 -7.5 39.5t11.5 38.5q73 9 188 18t164 9q42 0 42 -43q0 -16 -6 -44.5t-17.5 -75t-17.5 -74.5z" />
<glyph unicode="j" horiz-adv-x="675" d="M289 360l61 297q12 58 12 84q0 38 -36 41l-82 6q-9 13 -7.5 39.5t11.5 38.5q73 9 188 18t164 9q42 0 42 -43q0 -15 -6.5 -44.5t-17.5 -73.5t-17 -76l-35 -175q-74 -350 -119 -489q-86 -267 -220 -358q-84 -58 -196 -58q-100 0 -163.5 31t-63.5 98q0 44 25 68t56 24 q32 0 55.5 -11t36 -27.5t23.5 -35.5t18.5 -35.5t20.5 -27.5t30 -11q38 0 66 52t62 184q20 80 47 235.5t45 239.5zM418 1221q0 50 37.5 88.5t105.5 38.5q60 0 96.5 -42.5t36.5 -93.5q0 -45 -40.5 -86t-104.5 -41q-59 0 -95 41t-36 95z" />
<glyph unicode="k" horiz-adv-x="1146" d="M452 147q-2 -10 -6 -29.5t-6 -30.5t-7.5 -27.5t-11 -26t-15.5 -21t-22.5 -18t-31 -10.5t-41.5 -4q-81 0 -108 13.5t-27 41.5q0 9 4 25t11 42.5t11 44.5l226 1006q8 36 11 60.5t-1.5 42.5t-13 27.5t-27.5 15t-40 7t-56 1.5q-9 28 10 69q26 4 106.5 19t143 25t90.5 10 q34 0 48 -17t14 -51q0 -19 -4 -42t-13.5 -66t-13.5 -60l-139 -636q39 7 104 62l82 70q107 95 206.5 152t151.5 57q63 0 98.5 -37.5t35.5 -83.5q0 -55 -32 -99t-79 -44q-38 0 -84 54q-9 11 -14.5 16.5t-15 10t-21.5 4.5q-73 0 -156 -73l-106 -94l2 -8q47 -13 77.5 -45 t57.5 -86q27 -53 84 -230q13 -40 26 -59t40 -19q19 0 48 22.5t58 64.5q30 0 61 -35q-43 -89 -119.5 -133.5t-160.5 -44.5q-61 0 -105.5 48t-96.5 162q-20 45 -45 137t-44 126q-18 33 -40 33q-20 0 -30 -2z" />
<glyph unicode="l" horiz-adv-x="663" d="M426 1153q10 43 11 70.5t-4.5 44.5t-25 25.5t-43 11t-65.5 2.5q-9 28 10 69q26 4 106.5 19t143 25t90.5 10q34 0 48 -17t14 -51q0 -19 -4 -42t-13.5 -66t-13.5 -60l-207 -934q-13 -61 -13 -88q0 -37 21 -37q19 0 63.5 27t80.5 69q19 0 36 -19.5t23 -37.5 q-80 -89 -179 -141.5t-202 -52.5q-104 0 -104 116q0 54 20 146z" />
<glyph unicode="m" horiz-adv-x="1810" d="M299 498q31 140 31 223q0 58 -37 61l-82 6q-9 13 -7.5 39.5t11.5 38.5q216 27 340 27q20 0 34 -14t14 -35q0 -86 -25 -207l2 -2q133 156 218 210t171 54q71 0 126.5 -40t55.5 -124q0 -16 -3 -37q182 201 378 201q71 0 126.5 -40t55.5 -124q0 -42 -27 -155l-77 -326 q-31 -125 8 -125q18 0 62.5 27.5t80.5 68.5q19 0 36.5 -19.5t23.5 -37.5q-70 -90 -170.5 -139t-208.5 -49q-43 0 -66 16.5t-35 50.5q-19 52 15 189l75 327q19 83 19 119q0 74 -51 74q-59 0 -124.5 -57t-155.5 -171l-87 -381q-2 -9 -8 -38.5t-9 -40.5t-13 -32.5t-23 -30.5 t-35.5 -17t-52.5 -8q-81 0 -108 13.5t-27 41.5q0 9 4.5 27t11.5 44t10 41l92 416q19 83 19 139q0 54 -41 54q-50 0 -114 -67t-183 -222l-78 -320q-3 -10 -8.5 -38.5t-9 -40.5t-13.5 -33t-22.5 -30t-35 -17t-52.5 -8q-81 0 -108 13.5t-27 41.5q0 9 4.5 27t11.5 44t10 41z" />
<glyph unicode="n" horiz-adv-x="1257" d="M287 498q30 135 30 223q0 59 -36 61l-82 6q-9 13 -7.5 39.5t11.5 38.5q216 27 340 27q20 0 34 -14t14 -35q0 -81 -26 -207l4 -4q133 157 227.5 211.5t200.5 54.5q71 0 127 -40t56 -124q0 -42 -27 -155l-78 -326q-31 -125 8 -125q18 0 63 27.5t81 68.5q19 0 36 -19.5 t23 -37.5q-70 -90 -170.5 -139t-208.5 -49q-43 0 -65.5 16.5t-34.5 50.5q-19 54 14 189l76 327q18 79 18 119q0 44 -17.5 59t-53.5 15q-51 0 -123.5 -72.5t-183.5 -216.5l-78 -320q-2 -9 -8 -38.5t-9.5 -41t-13.5 -32.5t-23 -30t-35.5 -17t-52.5 -8q-81 0 -108 13.5 t-27 41.5q0 9 4.5 27t11.5 44t10 41z" />
<glyph unicode="o" horiz-adv-x="980" d="M401 348q0 -282 121 -282q44 0 80 17.5t60.5 45t42.5 68t28.5 81t16.5 89t8 86.5t2 79q0 36 -1 62.5t-4.5 62.5t-11.5 61t-20 48t-32 35t-46 12q-244 0 -244 -465zM137 332q0 138 83 278.5t223 218.5q126 70 253 70q73 0 130.5 -20t94 -51.5t60.5 -75t33.5 -87t9.5 -90.5 q0 -196 -91 -334.5t-236 -211.5q-44 -22 -113 -35.5t-133 -13.5q-74 0 -132 24.5t-91.5 61.5t-54.5 86t-28.5 92.5t-7.5 87.5z" />
<glyph unicode="p" horiz-adv-x="1124" d="M647 827q120 72 236 72q147 0 221 -85t74 -222q0 -113 -68.5 -258.5t-181.5 -241.5q-132 -112 -307 -112q-83 0 -146 67l-80 -356q-7 -20 -2 -35t10 -23.5t18 -14t21.5 -7.5t20.5 -4l39 -6q12 -3 12 -17v-61l-4 -4q-139 4 -219 4l-301 -10l-4 4v59q0 12 20 16l39 7 q50 8 75 29t34 63l196 909q-102 -84 -147 -143q-38 0 -58 73q40 50 95 97.5t141 109.5l25 101q15 61 70.5 114.5t111.5 53.5q47 0 66.5 -14t19.5 -42q0 -14 -12.5 -63t-14.5 -60zM915 559q0 236 -102 236q-36 0 -73.5 -12t-59 -24t-55.5 -34l-131 -571q64 -88 151 -88 q63 0 117 57.5t85.5 139.5t49.5 161.5t18 134.5z" />
<glyph unicode="q" horiz-adv-x="1087" d="M829 655q0 64 -34.5 107t-89.5 43q-101 0 -172.5 -73.5t-104.5 -193.5t-33 -276q0 -82 26.5 -127t65.5 -45q58 0 147 90.5t124 188.5q28 82 49.5 171t21.5 115zM610 -330l135 533l-6 2q-90 -125 -168 -175t-159 -50q-92 0 -157.5 49t-94.5 120t-29 152q0 149 70.5 280 t183.5 213q72 53 157.5 79t159.5 26q120 0 197 -108l77 68q24 22 56 34t47 12q41 0 45.5 -33t-11.5 -86l-259 -1116q-5 -14 -2.5 -26t4 -20t9 -14.5t12.5 -10t15 -6.5t15.5 -4.5t14.5 -2.5l39 -6q12 -2 12 -16v-41l-4 -4q-227 4 -307 4q-33 0 -87 -2.5t-91 -4.5l-38 -3l-4 4 v39q0 12 21 16l39 6q49 7 73 28t35 64z" />
<glyph unicode="r" horiz-adv-x="872" d="M553 467l-78 -320q-2 -10 -8 -39t-9.5 -40.5t-13.5 -32.5t-22.5 -30t-35 -17t-52.5 -8q-81 0 -108 13.5t-27 41.5q0 9 4.5 27t11.5 44t10 41l76 351q31 144 31 223q0 58 -37 61l-82 6q-9 13 -7.5 39.5t11.5 38.5q216 27 340 27q20 0 34 -14t14 -35q0 -86 -25 -207l6 -4 q64 134 143.5 200t154.5 66q63 0 95.5 -37t32.5 -84q0 -55 -32 -99t-79 -44q-37 0 -83 54q-26 31 -52 31q-42 0 -90 -58t-123 -195z" />
<glyph unicode="s" horiz-adv-x="854" d="M872 727q5 -44 -20.5 -74.5t-54.5 -38.5q-35 -9 -66 3t-43 42q-2 6 -11 30t-12.5 32t-13 27t-17.5 27t-20 19t-27.5 15t-33.5 4q-43 0 -77 -27t-34 -63q0 -30 12.5 -57t26 -44.5t41 -37t39 -26.5t37.5 -21q231 -122 231 -271q0 -51 -21.5 -100t-63 -91.5t-114.5 -68.5 t-165 -26q-87 0 -159.5 19.5t-122.5 66t-50 112.5q0 45 29.5 75t58.5 30q80 0 131 -119q22 -50 63.5 -74t92.5 -24q38 0 72 30t34 70q0 70 -32 118.5t-99 86.5q-105 61 -169 131.5t-64 134.5q0 62 24 110t61 76t86.5 46t94.5 24t92 6q98 0 177.5 -49.5t86.5 -122.5z" />
<glyph unicode="t" horiz-adv-x="751" d="M242 242l125 540h-144q-12 0 -12 4q0 3 4.5 25.5t5.5 26.5q8 31 58 34l108 7l27 102q4 15 10 44.5t10 44t13 33.5t23 30t34 16q27 7 57.5 12.5t63 9.5t54 0t21.5 -16q0 -11 -8 -47.5t-19.5 -82t-13.5 -54.5l-20 -92h203q17 -12 6.5 -50.5t-29.5 -46.5h-201l-122 -522 q-14 -56 -14 -88q0 -37 22 -37q18 0 62.5 27.5t80.5 68.5q19 0 36.5 -19.5t23.5 -37.5q-80 -89 -179 -141.5t-202 -52.5q-104 0 -104 116q0 62 20 146z" />
<glyph unicode="u" horiz-adv-x="1323" d="M883 219l-4 -15l9 46l-4 4q-131 -154 -225 -210t-183 -56q-70 0 -126 42t-56 126t16 151l78 326q31 125 -8 125q-18 0 -62.5 -27.5t-80.5 -68.5q-19 0 -36.5 19.5t-23.5 37.5q70 90 170.5 139t208.5 49q43 0 66 -16.5t35 -50.5q19 -52 -15 -189l-76 -327q-9 -44 -9 -81.5 t19 -62t54 -24.5q18 0 36 6.5t41 26t39.5 35t48 54.5t50 62.5t61.5 79.5l79 319q2 10 8 39t9.5 41t13.5 33t22.5 30t35 17t52.5 8q81 0 108 -13.5t27 -41.5q0 -9 -4.5 -27.5t-11.5 -44.5t-10 -41l-107 -485q-13 -61 -13 -87q0 -38 22 -38q18 0 62.5 27.5t80.5 68.5 q19 0 36 -19.5t23 -37.5q-71 -91 -164.5 -139.5t-199.5 -48.5q-79 0 -103 67q-6 16 -6 49q0 19 17 123z" />
<glyph unicode="v" horiz-adv-x="1038" d="M679 220l8 -4q94 73 167.5 201.5t86.5 225.5q9 64 -42 140q-11 16 -11 42q0 74 124 74q55 0 89 -27t34 -70q0 -92 -55 -218q-64 -148 -200 -321q-37 -47 -90.5 -105.5t-129.5 -120.5t-119 -62q-37 0 -55 38.5t-27 105.5l-64 487q-13 105 -37 105q-16 0 -55 -28.5 t-74 -72.5q-48 9 -65 57q77 93 181.5 162.5t168.5 69.5q109 0 131 -266z" />
<glyph unicode="w" horiz-adv-x="1492" d="M904 446l-7 2q-43 -79 -92.5 -158t-103.5 -152t-104.5 -118.5t-84.5 -44.5q-68 0 -82 144l-43 487q-9 105 -37 105q-16 0 -55 -28.5t-74 -72.5q-48 9 -65 57q77 93 181.5 162.5t168.5 69.5q33 0 58 -24t39.5 -64t23 -84.5t10.5 -93.5l18 -349l9 -4q49 47 121.5 165.5 t136.5 263.5q74 32 137 32q27 -68 64.5 -228t61.5 -293l8 -4q79 64 134 191.5t69 235.5q9 64 -42 140q-12 17 -12 42q0 74 124 74q55 0 89.5 -27t34.5 -70q0 -92 -55 -218q-83 -194 -174 -321q-24 -34 -57 -74.5t-80.5 -93t-95.5 -86.5t-81 -34q-19 0 -33 10.5t-23.5 34.5 t-14 43.5t-11.5 55.5z" />
<glyph unicode="x" horiz-adv-x="1058" d="M402 683q-15 35 -59 35q-43 0 -114 -34q-11 11 -21.5 36t-12.5 43q74 43 180.5 89.5t154.5 46.5q36 0 55 -26.5t49 -111.5l53 -148l49 68q29 43 49 69.5t48.5 57.5t54.5 48t60.5 28.5t72.5 11.5q57 0 99.5 -26t42.5 -72q0 -47 -28 -84t-67 -37q-44 0 -92 30 q-29 17 -52 17q-27 0 -54 -36l-154 -210l128 -294q21 -49 45 -49q28 0 51.5 10t57.5 44l51 -51q-85 -94 -156 -126t-148 -32q-58 0 -89.5 42.5t-61.5 132.5l-39 119q-62 -92 -112 -150q-83 -94 -126 -119.5t-118 -25.5q-55 0 -100 30t-45 80q0 100 99 100q33 0 64.5 -13.5 t54.5 -27.5t34 -14q22 0 62 53q6 8 29.5 39t34.5 45.5t29.5 40.5t32.5 47t25 42q-16 48 -45.5 118.5t-50.5 116.5z" />
<glyph unicode="y" horiz-adv-x="1052" d="M391 692q-11 16 -20.5 21t-29.5 5q-45 0 -120 -36q-11 11 -22 36t-13 43q73 42 183.5 90t158.5 48q38 0 61.5 -34t45.5 -117q57 -235 78 -570l8 -2l167 279q66 111 66 224q0 19 -27.5 70t-27.5 90q0 30 38 45t79 15q29 0 57 -8t51.5 -31t23.5 -56q0 -75 -23 -144.5 t-81 -163.5l-391 -639q-94 -153 -214.5 -247.5t-213.5 -94.5q-18 0 -39.5 5.5t-45.5 18t-40 37.5t-16 58q0 63 33 104t73 41q14 0 42 -14t40 -27q13 -13 42.5 -31t45.5 -18q28 0 73 44t104 140q14 30 -8 211.5t-63.5 371.5t-74.5 236z" />
<glyph unicode="z" horiz-adv-x="935" d="M937 922q43 -13 77 -58q-34 -36 -601 -625q9 2 18.5 3.5t17 2.5t17.5 0.5t16 -0.5t15.5 -2t14 -2.5t14.5 -3.5t13 -3.5t13.5 -4t12.5 -3.5q16 -5 51.5 -18t63 -20t55.5 -7q19 0 32 2.5t36.5 13t51 39.5t57.5 74q24 0 40.5 -15t22.5 -34q-38 -79 -84.5 -136t-94.5 -87.5 t-93 -44t-90 -13.5q-112 0 -203 43q-82 38 -149 38q-35 -11 -96 -86q-73 11 -86 40q5 12 60.5 74t100.5 108q293 301 460 477q-15 0 -38.5 -2t-39.5 -2q-26 0 -72.5 14t-101.5 14q-46 0 -110 -37t-82 -77q-47 0 -65 22q32 94 125 193.5t161 99.5q146 0 319 -49q18 -5 43 -5 q13 5 19.5 8t27.5 20.5t51 48.5z" />
<glyph unicode="{" horiz-adv-x="628" d="M660 1130l-57 -339q-22 -128 -85 -188.5t-177 -92.5l-1 -8q96 -47 131.5 -117t4.5 -190l-80 -306q-30 -129 -0.5 -201.5t96.5 -72.5q7 -9 3.5 -24.5t-14.5 -24.5q-51 0 -92.5 6.5t-80.5 21t-64 39.5t-42 62t-15.5 88t15.5 117l86 348q24 98 -8.5 155t-132.5 70 q-9 12 -5 32.5t19 33.5q101 10 158.5 71.5t76.5 147.5l68 377q15 83 58 146t102.5 98t124 52t132.5 17q7 -9 3.5 -24.5t-13.5 -24.5q-25 -7 -41 -13.5t-40 -19.5t-41 -31.5t-35.5 -45.5t-32 -67.5t-21.5 -91.5z" />
<glyph unicode="|" horiz-adv-x="450" d="M258 -477h-116l268 1907h116z" />
<glyph unicode="}" horiz-adv-x="628" d="M184 -115l57 340q22 128 84.5 188.5t176.5 92.5l2 8q-96 47 -132 117t-5 190l81 305q30 129 0.5 202t-96.5 73q-7 9 -3.5 24.5t13.5 24.5q51 0 92.5 -6.5t81 -21t64 -39.5t42 -62t16 -88t-15.5 -117l-86 -348q-24 -98 8.5 -155t132.5 -70q9 -12 5 -32.5t-19 -33.5 q-101 -10 -158.5 -71.5t-76.5 -147.5l-69 -377q-15 -83 -58 -146t-102.5 -98t-124 -52t-132.5 -17q-7 9 -3.5 24.5t14.5 24.5q30 9 49 16.5t48 27t48 45.5t37.5 72t28.5 107z" />
<glyph unicode="~" horiz-adv-x="919" d="M129 428q40 108 130 200.5t177 92.5q31 0 70 -21t70 -45.5t69.5 -45.5t69.5 -21q28 0 49 2.5t51 12t57.5 32.5t49.5 59q34 4 53 -12q-36 -77 -80.5 -134.5t-85 -86.5t-71.5 -42t-52 -13q-36 0 -75 21t-67.5 45.5t-67 45.5t-73.5 21q-62 0 -124 -27.5t-105 -89.5 q-28 -13 -45 6z" />
<glyph unicode="&#xa1;" horiz-adv-x="544" d="M183 -459q-58 0 -90 40t-16 114q12 57 73 217q128 347 165 506q20 86 72 86q35 0 41 -29t-6 -82q-14 -75 -30 -228t-20 -259q-4 -145 -18 -211q-11 -54 -41.5 -90.5t-63.5 -50t-66 -13.5zM582 770q0 -60 -45 -102.5t-107 -42.5t-104.5 40.5t-42.5 100.5q0 58 44.5 100.5 t106.5 42.5t105 -40.5t43 -98.5z" />
<glyph unicode="&#xa2;" horiz-adv-x="1105" d="M774 1196h65l-30 -142q132 -7 195 -72.5t47 -139.5q-11 -48 -48 -81.5t-83 -33.5q-47 0 -75 27.5t-24 68.5q12 100 -33 133l-144 -676q32 -10 62 -10q80 0 223 117q24 0 11 -63q-66 -77 -156 -131.5t-172 -65.5l-32 -152h-66l32 151q-90 4 -148 28.5t-99 76.5 q-44 56 -57.5 141.5t7.5 184.5q30 139 107 250t177.5 173t209.5 73zM586 311l139 656q-144 -23 -211 -338q-22 -114 -2 -194t74 -124z" />
<glyph unicode="&#xa3;" horiz-adv-x="1105" d="M295 598q-31 0 -41 5.5t-8 17.5l7 32q8 41 99 41h59l11 49q29 137 90.5 229t160.5 175q137 110 314 110q17 0 35.5 -1.5t44.5 -8t44.5 -17.5t29.5 -31.5t5 -47.5q-11 -53 -48.5 -85t-86.5 -32q-43 0 -81 53q-8 13 -13 37t-12.5 38t-26.5 14q-115 0 -184 -328l-32 -154 h173q27 0 42 -6.5t13 -15.5l-7 -33q-4 -20 -35.5 -30.5t-65.5 -10.5h-141q-62 -250 -253 -391q60 0 105 -9.5t70.5 -23t45 -27t41.5 -23t48 -9.5q46 0 107 31t108 83l40 -30q-51 -92 -135.5 -159t-183.5 -67q-50 0 -100.5 20t-84.5 43.5t-71.5 43.5t-65.5 20q-31 0 -50 -9 t-25 -19t-10 -27q-9 -41 -42 -63.5t-65 -22.5q-23 0 -40 17.5t-13 37.5q9 41 44.5 78.5t85.5 63.5q23 16 42 37.5t45 66t52.5 126.5t50.5 196l4 16h-96z" />
<glyph unicode="&#xa4;" horiz-adv-x="948" d="M356 614q-23 -107 26 -179.5t144 -72.5q96 0 174.5 72.5t101.5 177.5q23 107 -27.5 179.5t-137.5 72.5q-94 0 -176.5 -72.5t-104.5 -177.5zM502 250q-105 0 -181 51q-16 -17 -58 -60t-56 -59l-92 121l121 88q-60 111 -36 221q25 117 132 226q-58 56 -82 84l131 116 l72 -112q100 51 207 51q101 0 180 -53q111 111 124 125l86 -125l-126 -93q59 -105 34 -219q-22 -103 -125 -217q54 -58 81 -90l-129 -119l-73 119q-102 -55 -210 -55z" />
<glyph unicode="&#xa5;" horiz-adv-x="1105" d="M1009 362l-19 -86h-248q-1 -5 -3 -13t-3 -13q-9 -44 -12.5 -72.5t1.5 -49.5t13.5 -31.5t32 -17.5t46.5 -9t67 -4q7 -9 1.5 -35t-16.5 -35q-192 4 -295 4q-138 0 -328 -4q-7 9 -1.5 35t15.5 35q45 2 68.5 4t50 9t39.5 17.5t27.5 31.5t23 49.5t17.5 72.5l6 26h-233l18 86 h233l30 140h-233l18 86h228q-1 22 -22 92l-98 328q-21 79 -54.5 115t-92.5 40q-7 9 -2 35t15 35q114 -4 262 -4q76 0 230 4q7 -9 1.5 -35t-15.5 -35q-78 -4 -96.5 -20t-8.5 -56l76 -323q9 -38 22 -39t35 33l204 329q13 22 14.5 36t-10.5 22t-31 12t-53 6q-7 9 -1.5 35 t16.5 35q154 -4 193 -4q45 0 161 4q7 -9 1.5 -35t-16.5 -35q-67 -7 -110 -33.5t-82 -85.5l-220 -325q-29 -44 -41 -69t-21 -62h248l-19 -86h-248l-30 -140h249z" />
<glyph unicode="&#xa6;" horiz-adv-x="450" d="M582 1380l-158 -741h-115l158 741h115zM359 330l-158 -742h-115l157 742h116z" />
<glyph unicode="&#xa7;" horiz-adv-x="954" d="M807 -53q-12 -56 -42 -106t-80 -93t-127 -68.5t-172 -25.5q-43 0 -85.5 10.5t-81 33t-66 53.5t-38.5 76t0 97q8 38 49 69.5t74 31.5q53 0 80 -39.5t21 -65.5q-6 -29 -27.5 -57.5t-23.5 -40.5q-2 -8 0.5 -21.5t11 -31.5t34 -30.5t64.5 -12.5q68 0 120.5 53t73.5 153 q6 30 -3 60t-24 52t-45 48t-50.5 40.5t-54.5 37.5q-140 95 -186 184t-20 211q28 132 186 259q-46 91 -22 208q11 53 51.5 116t96.5 107q117 93 266 93q147 0 223.5 -70t49.5 -197q-8 -40 -51 -71t-79 -31q-54 0 -76.5 38.5t-16.5 65.5q8 35 26.5 60.5t21.5 38.5q9 40 -14 67 t-92 27q-77 0 -127.5 -58t-69.5 -145q-14 -66 13 -102.5t96 -75.5q38 -22 56.5 -33.5t50.5 -32t47.5 -33.5t40 -34t35.5 -38t26.5 -41t20 -48t9 -53.5t1.5 -62.5t-11 -70q-30 -141 -198 -268q63 -114 38 -234zM424 780q-30 -43 -46 -116q-17 -81 27 -154t178 -150 q97 -55 156 -133q43 47 59 123q7 32 7.5 60t-7.5 53.5t-19 46.5t-33 43.5t-44.5 40.5t-58.5 40.5t-68 41.5t-81 45q-42 25 -70 59z" />
<glyph unicode="&#xa8;" horiz-adv-x="839" d="M726 1174q4 47 36.5 79.5t77.5 32.5q44 0 73 -32.5t25 -79.5q-4 -46 -37.5 -78.5t-76.5 -32.5q-45 0 -73.5 32.5t-24.5 78.5zM368 1174q4 47 37 79.5t77 32.5q45 0 73.5 -32.5t24.5 -79.5q-4 -46 -36.5 -78.5t-77.5 -32.5q-44 0 -73 32.5t-25 78.5z" />
<glyph unicode="&#xa9;" horiz-adv-x="1296" d="M955 446q-40 -51 -101.5 -86.5t-127.5 -35.5q-57 0 -109.5 23t-78.5 63q-58 87 -30 217q26 124 123 209.5t211 85.5q42 0 74.5 -5t47 -10.5t32.5 -14.5t24 -11q-5 -98 -13 -144q-9 -6 -36 -6q-20 74 -42.5 98.5t-81.5 24.5q-51 0 -98.5 -53.5t-73.5 -175.5 q-47 -219 94 -219q99 0 159 71q17 -6 27 -31zM635 47q-148 0 -257 78.5t-153.5 212t-11.5 289.5q25 117 91 224t155.5 184.5t200 123t221.5 45.5t202 -45.5t146 -123.5t77 -183t-5 -225q-33 -157 -134 -290.5t-243 -211.5t-289 -78zM867 1141q-202 0 -375.5 -150 t-218.5 -364q-30 -139 9.5 -257.5t136.5 -187.5t230 -69q200 0 373.5 150.5t218.5 363.5q30 140 -9.5 258.5t-136 187t-228.5 68.5z" />
<glyph unicode="&#xaa;" horiz-adv-x="645" d="M601 1077q16 72 16.5 111t-10.5 51t-35 12q-83 0 -93 -43q-2 -12 -0.5 -24.5t-1.5 -26.5q-5 -23 -32 -40t-55 -17q-25 0 -41.5 16.5t-9.5 48.5q12 57 97 102.5t153 45.5q98 0 133 -39q26 -28 33 -78t-9 -123l-38 -164q-10 -42 -11 -64t3 -27t14 -5q13 0 34 12l12 -32 q-29 -23 -72 -40.5t-71 -17.5q-40 0 -58 16t-14 52q-39 -34 -83 -51t-76 -17q-68 0 -100 31q-36 33 -18 113q12 59 81.5 104.5t173.5 73.5zM551 858l38 164q-159 -51 -177 -137q-15 -74 48 -74q24 0 40 9t51 38z" />
<glyph unicode="&#xab;" horiz-adv-x="1136" d="M281 424l7 33q209 166 299 248q65 58 136 129q14 -5 28 -18.5t18 -27.5q-165 -235 -274 -348q61 -113 126 -348q-10 -14 -30 -27t-36 -18q-47 81 -97 152t-77 104.5t-100 120.5zM643 424l7 33q108 86 150.5 120.5t122 105t161.5 151.5q14 -5 28.5 -18.5t18.5 -27.5 q-163 -231 -275 -348q63 -117 127 -348q-10 -14 -30 -27t-36 -18q-47 81 -97 152t-77 104.5t-100 120.5z" />
<glyph unicode="&#xac;" horiz-adv-x="1146" d="M976 272l93 439h-845l24 110h987l-117 -549h-142z" />
<glyph unicode="&#xad;" horiz-adv-x="733" d="M670 440h-406q-35 0 -55.5 12.5t-20.5 30.5q0 29 32.5 74t62.5 45h409q74 0 74 -43q0 -25 -32 -72t-64 -47z" />
<glyph unicode="&#xae;" horiz-adv-x="1296" d="M991 762q-10 -47 -46 -86t-67 -54l-30 -16l57 -168q11 -34 25.5 -48.5t37.5 -14.5l-6 -27q-27 -8 -46 -8q-44 0 -74.5 20t-39.5 58l-58 160q-10 6 -51 6l-40 -187q-2 -7 -0.5 -10.5t11.5 -3.5h23q11 0 15.5 -3t2.5 -9l-6 -29q-103 4 -130 4l-108 -4l6 29q3 12 23 12h24 q15 0 18 16l95 447q4 22 -3 22l-31 -2q-10 0 -14 3.5t-2 9.5l5 26q70 10 258 10q41 0 72 -10t47 -26t26 -36.5t9 -41t-3 -39.5zM871 762q12 56 -1.5 84t-60.5 28q-41 0 -56 -6l-50 -235q24 0 38.5 1t38 8t38.5 19.5t30 38.5t23 62zM635 47q-148 0 -257 78.5t-153.5 212 t-11.5 289.5q25 117 91 224t155.5 184.5t200 123t221.5 45.5t202 -45.5t146 -123.5t77 -183t-5 -225q-33 -157 -134 -290.5t-243 -211.5t-289 -78zM867 1141q-202 0 -375.5 -150t-218.5 -364q-30 -139 9.5 -257.5t136.5 -187.5t230 -69q200 0 373.5 150.5t218.5 363.5 q30 140 -9.5 258.5t-136 187t-228.5 68.5z" />
<glyph unicode="&#xaf;" horiz-adv-x="813" d="M838 1083h-502q-21 0 -21 23q0 4 2 8q3 20 20.5 40t35.5 20h499q12 0 18.5 -7t6.5 -16v-6q-3 -20 -22 -41t-37 -21z" />
<glyph unicode="&#xb0;" horiz-adv-x="546" d="M627 1073q0 53 -33.5 97t-93.5 44q-59 0 -94 -42.5t-35 -98.5q0 -54 36 -94.5t93 -40.5t92 41t35 94zM283 1075q0 90 63.5 153.5t153.5 63.5q89 0 152 -63t63 -154q0 -89 -63 -152t-152 -63t-153 63t-64 152z" />
<glyph unicode="&#xb1;" horiz-adv-x="1079" d="M1004 178l-43 -162h-809l43 162h809zM796 766h321l-33 -152h-321l-70 -333h-159l71 333h-321l32 152h321l71 336h159z" />
<glyph unicode="&#xb2;" horiz-adv-x="696" d="M375 1282q11 51 97.5 110.5t190.5 59.5q115 0 156 -42q25 -25 31.5 -55.5t-3.5 -80.5q-9 -39 -27.5 -69t-57.5 -66q-60 -55 -131 -109l-98 -77q-55 -39 -72 -91h158q42 0 83.5 37.5t70.5 89.5q39 0 51 -12q-21 -66 -105 -232h-454q24 116 164 235l136 111q85 70 104 154 q15 75 2 115q-5 15 -19.5 23t-28.5 8q-60 0 -81 -37q-3 -6 -13 -48l-6 -30q-4 -18 -6 -23q-10 -25 -37.5 -42t-57.5 -17q-66 0 -47 88z" />
<glyph unicode="&#xb3;" horiz-adv-x="696" d="M474 797q57 0 112 65.5t55 139.5q0 83 -123 83q-32 0 -67 -8l13 62q48 7 95.5 29.5t83 64.5t35.5 92q0 31 -18.5 48.5t-46.5 17.5q-33 0 -65 -23t-42 -57q-6 -28 -31.5 -55t-63.5 -27q-52 0 -52 44q0 3 1 8v5q3 13 15 32t37 43t58 44t83 33.5t106 13.5q85 0 136 -31.5 t51 -85.5q0 -91 -124 -166q-3 -1 -3 -5q0 -1 2 -3q108 -36 108 -129q0 -129 -128 -219q-112 -78 -260 -78q-51 0 -92.5 7t-73.5 28t-32 55q0 33 26.5 59.5t61.5 26.5q19 0 32.5 -10t19 -20.5t11 -26t7.5 -18.5q24 -39 73 -39z" />
<glyph unicode="&#xb4;" horiz-adv-x="698" d="M407 1380q12 4 33 4q76 0 110 -49l14 -47l-277 -221q-42 -33 -82 -33q-12 0 -21.5 10t-7.5 19q4 27 23 49z" />
<glyph unicode="&#xb5;" horiz-adv-x="1206" d="M780 99l-16 -1q-51 -37 -68.5 -49t-55 -33.5t-69 -28.5t-69.5 -7q-58 0 -86 14q-2 -13 -16 -84.5t-15 -106.5q0 -107 -8 -147q-13 -63 -56 -97t-93 -34q-38 0 -81 41t-30 100q10 49 45 146q46 127 57 180q3 16 8 50.5t8 51.5q2 19 4.5 88t8.5 99l81 381q5 23 11.5 79.5 t11.5 102.5l4 45l272 26q-26 -147 -40 -213l-80 -374q-23 -97 -16.5 -158t53.5 -61q64 0 131.5 24.5t107.5 67.5l146 688l256 29l-139 -658q-15 -75 -7.5 -106t39.5 -31q45 0 87 29q28 -29 22 -58q-136 -114 -284 -114q-65 0 -96.5 29t-27.5 90z" />
<glyph unicode="&#xb6;" horiz-adv-x="1232" d="M758 -424q42 0 59.5 28t30.5 99l254 1436q6 44 6 67q0 18 -3 29.5t-10.5 17t-13.5 7t-18 2.5q-20 0 -34.5 -8t-23.5 -18.5t-15.5 -30.5t-9.5 -34t-7 -38l-252 -1426q-6 -30 -6 -63q0 -68 43 -68zM969 -295q-8 -41 -8 -72q0 -33 14 -43t51 -12h61q13 0 9 -14l-9 -43h-671 l8 43q3 14 14 14h60q51 1 69.5 25t32.5 104l133 758q-55 -25 -162 -25q-49 0 -96 9.5t-97 34.5t-87.5 63t-61.5 100t-24 141q0 59 8 111q35 194 163.5 309t328.5 115q89 0 202.5 -5t128.5 -5l144 6l227 4l-8 -43q-3 -14 -15 -14h-61q-52 0 -70.5 -26t-31.5 -101z" />
<glyph unicode="&#xb7;" horiz-adv-x="659" d="M444 362q-73 0 -120.5 49.5t-47.5 116.5q0 65 50.5 115.5t117.5 50.5q65 0 116.5 -48.5t51.5 -117.5q0 -67 -49 -116.5t-119 -49.5z" />
<glyph unicode="&#xb8;" horiz-adv-x="1107" d="M484 -207l-10 12l133 209h70l-55 -98q185 -39 166 -172q-11 -77 -88 -130.5t-177 -53.5q-16 0 -29.5 1t-21.5 2t-19.5 5.5t-15.5 6t-19.5 9t-20.5 10.5q7 44 28 54q75 -29 115 -29q47 0 77.5 22t36.5 62q3 22 -7 38.5t-26 25.5t-43 15t-46.5 7.5t-47.5 3.5z" />
<glyph unicode="&#xb9;" horiz-adv-x="696" d="M537 1311q-27 0 -117 -31q-15 15 -4 68q201 72 288 114q9 5 31.5 6t29.5 -6l-115 -542q-5 -26 -6 -44.5t3.5 -30.5t10.5 -19.5t18.5 -12t24 -6t30.5 -2.5q3 -12 -1 -32t-12 -30q-57 2 -190 2q-164 0 -222 -2q-4 8 0 29.5t13 32.5q36 2 56 5.5t44 14.5t38.5 34t22.5 61 l66 307q11 49 9.5 66.5t-18.5 17.5z" />
<glyph unicode="&#xba;" horiz-adv-x="753" d="M204 879q27 126 126.5 203t216.5 77q87 0 138 -35q52 -37 74.5 -102t7.5 -131q-24 -112 -115.5 -191t-228.5 -79q-124 0 -183.5 72.5t-35.5 185.5zM522 1100q-28 0 -49.5 -11t-35.5 -27t-26 -45t-18 -53.5t-15 -64.5q-10 -46 -13 -76.5t1.5 -65t27.5 -52t64 -17.5 q46 0 79.5 34.5t54.5 135.5q29 123 14 182.5t-84 59.5z" />
<glyph unicode="&#xbb;" horiz-adv-x="1136" d="M1038 457l-7 -33q-209 -166 -299 -248q-65 -58 -136 -129q-14 5 -28 18t-18 27q165 235 274 348q-61 113 -126 348q10 14 29.5 27.5t35.5 18.5q15 -25 30 -49.5t26.5 -43t28 -41.5t25 -36t27 -36.5t25 -32.5t27.5 -34.5t26 -32t30 -36t30 -35.5zM676 457l-7 -33 q-209 -166 -299 -248q-65 -58 -136 -129q-14 5 -28 18t-18 27q165 235 274 348q-61 113 -126 348q10 14 30 27.5t36 18.5q47 -81 97 -152t77 -104.5t100 -120.5z" />
<glyph unicode="&#xbc;" horiz-adv-x="1433" d="M1349 1231l114 -27l-1128 -1341l-113 26zM530 1210q-29 0 -116 -30q-15 15 -5 67q196 70 289 115q9 5 31.5 6t29.5 -6l-115 -543q-5 -26 -6.5 -44.5t3.5 -30.5t10.5 -19.5t19 -11.5t24.5 -5.5t30 -2.5q3 -12 -1 -32t-12 -30q-57 2 -190 2q-164 0 -222 -2q-4 8 0 29.5 t13 32.5q36 2 56 5.5t44 14t38.5 33.5t22.5 61l66 307q11 50 9 67t-19 17zM1217 -102l9 43h110l24 86h-116l86 401q5 21 -19 21h-97q-40 -45 -211.5 -226.5t-235.5 -257.5l18 -24h281l-9 -43q-8 -38 -22.5 -61t-38.5 -34t-44 -14.5t-56 -5.5q-9 -11 -13 -32.5t0 -29.5 q87 3 185 3q122 0 207 -3q8 10 12.5 30t1.5 32q-55 3 -71 23t-1 92zM1140 286q-9 -43 -28 -129.5t-28 -129.5h-182z" />
<glyph unicode="&#xbd;" horiz-adv-x="1433" d="M1349 1231l114 -27l-1128 -1341l-113 26zM535 1210q-30 0 -117 -30q-15 15 -5 67q196 70 289 115q9 5 31.5 6t29.5 -6l-115 -543q-5 -26 -6.5 -44.5t3.5 -30.5t10.5 -19.5t19 -11.5t24.5 -5.5t30 -2.5q3 -12 -1 -32t-12 -30q-57 2 -190 2q-164 0 -222 -2q-4 8 0 29.5 t13 32.5q36 2 56 5.5t44 14t38.5 33.5t22.5 61l66 307q11 50 9.5 67t-18.5 17zM1026 375q11 51 97.5 110.5t190.5 59.5q115 0 156 -42q25 -25 31.5 -55.5t-3.5 -80.5q-16 -74 -85 -136q-54 -49 -131 -108l-98 -77q-55 -39 -72 -91h158q42 0 83.5 37.5t70.5 89.5q39 0 51 -12 q-21 -66 -105 -232h-454q24 116 164 235l136 110q86 71 105 155q15 73 1 115q-5 14 -19.5 22t-28.5 8q-60 0 -81 -37q-4 -6 -13 -47q-1 -3 -2 -9.5t-2 -11.5t-2 -9q-4 -18 -6 -23q-10 -25 -37.5 -42t-57.5 -17q-66 0 -47 88z" />
<glyph unicode="&#xbe;" horiz-adv-x="1433" d="M1349 1231l114 -27l-1128 -1341l-113 26zM1225 -98l9 43h110l24 86h-116l86 401q5 21 -19 21h-96q-40 -45 -212 -226.5t-236 -257.5l18 -24h281l-9 -43q-8 -38 -22.5 -61t-38.5 -34t-44 -14.5t-56 -5.5q-9 -11 -13 -32t0 -29q58 2 185 2q151 0 208 -2q8 10 12 29.5 t1 31.5q-55 3 -71 23t-1 92zM470 692q57 0 112 65.5t55 139.5q0 84 -123 84q-33 0 -68 -8l14 61q78 11 146 62t68 125q0 31 -18.5 48t-46.5 17q-33 0 -65 -23t-42 -57q-6 -28 -31.5 -55t-63.5 -27q-52 0 -52 44q0 4 1 9v5q3 13 15 32t37 43t58 44t83 33.5t106 13.5 q85 0 136 -31.5t51 -85.5q0 -91 -124 -166q-3 -1 -3 -6l2 -2q108 -36 108 -129q0 -129 -128 -219q-112 -78 -260 -78q-37 0 -69.5 4t-63 13.5t-48 28t-17.5 44.5q0 33 26 59.5t61 26.5q19 0 32.5 -10t19.5 -20.5t11.5 -26.5t7.5 -19q24 -39 73 -39zM1148 290 q-9 -43 -27.5 -129.5t-27.5 -129.5h-183z" />
<glyph unicode="&#xbf;" horiz-adv-x="880" d="M550 -287q4 20 2 51t4 60q8 38 42 61t78 23q39 0 67.5 -32.5t16.5 -86.5q-11 -51 -43.5 -90.5t-95.5 -85.5q-108 -80 -281 -80q-164 0 -241.5 85.5t-47.5 227.5q9 44 32.5 85.5t47.5 70.5t67 64.5t66.5 52.5t71.5 49q31 20 51 36t47 45t46 70t30 93l5 26q9 40 24 55 t55 15q36 0 45 -16.5t1 -53.5l-6 -30q-9 -44 -17.5 -71.5t-30 -74.5t-62 -94t-98.5 -94q-126 -98 -157 -242q-20 -97 5 -161t101 -64q63 0 114.5 31.5t60.5 74.5zM801 762q-13 -60 -64 -103t-109 -43t-89.5 41t-18.5 101q13 59 63.5 101t108.5 42t90 -40.5t19 -98.5z" />
<glyph unicode="&#xc0;" horiz-adv-x="1454" d="M863 1700q-42 -19 -83.5 -50t-65.5 -63l3 -24l278 -119q31 -14 69 -14q14 0 29.5 9.5t16.5 20.5q4 26 -15 43q-30 29 -104.5 92.5t-127.5 104.5zM649 580h299l-67 485h-13l-264 -459q-9 -15 1.5 -20.5t43.5 -5.5zM356 162q-11 -20 -13.5 -35.5t7 -25.5t19 -16t32 -10 t34.5 -5.5t38 -3.5q7 -9 2 -35t-16 -35q-144 4 -260 4q-39 0 -187 -4q-7 9 -1.5 35t16.5 35q39 3 62 7.5t52 18.5t55 42.5t54 74.5l631 1048q66 0 233 91l178 -1172q2 -15 6 -28t8 -22.5t12 -17.5t12.5 -13.5t16.5 -10t16.5 -6.5t20 -4.5t20 -3l22.5 -2.5t22 -2q7 -9 2 -35 t-16 -35q-144 4 -263 4q-187 0 -335 -4q-7 9 -3 35t15 35q12 1 38.5 2t37 2t30 4t27 8t17.5 13t12 21t0 31l-45 334h-373q-35 0 -50 -7t-26 -28z" />
<glyph unicode="&#xc1;" horiz-adv-x="1454" d="M1078 1706q36 -18 69 -50t48 -63l-9 -24l-312 -119q-36 -14 -74 -14q-14 0 -26 9t-11 21q4 25 27 43q106 82 288 197zM649 580h299l-67 485h-13l-264 -459q-9 -15 1.5 -20.5t43.5 -5.5zM356 162q-11 -20 -13.5 -35.5t7 -25.5t19 -16t32 -10t34.5 -5.5t38 -3.5q7 -9 2 -35 t-16 -35q-144 4 -260 4q-39 0 -187 -4q-7 9 -1.5 35t16.5 35q39 3 62 7.5t52 18.5t55 42.5t54 74.5l631 1048q66 0 233 91l178 -1172q2 -15 6 -28t8 -22.5t12 -17.5t12.5 -13.5t16.5 -10t16.5 -6.5t20 -4.5t20 -3l22.5 -2.5t22 -2q7 -9 2 -35t-16 -35q-144 4 -263 4 q-187 0 -335 -4q-7 9 -3 35t15 35q12 1 38.5 2t37 2t30 4t27 8t17.5 13t12 21t0 31l-45 334h-373q-35 0 -50 -7t-26 -28z" />
<glyph unicode="&#xc2;" horiz-adv-x="1454" d="M649 580h299l-67 485h-13l-264 -459q-9 -15 1.5 -20.5t43.5 -5.5zM356 162q-11 -20 -13.5 -35.5t7 -25.5t19 -16t32 -10t34.5 -5.5t38 -3.5q7 -9 2 -35t-16 -35q-144 4 -260 4q-39 0 -187 -4q-7 9 -1.5 35t16.5 35q39 3 62 7.5t52 18.5t55 42.5t54 74.5l631 1048 q66 0 233 91l178 -1172q2 -15 6 -28t8 -22.5t12 -17.5t12.5 -13.5t16.5 -10t16.5 -6.5t20 -4.5t20 -3l22.5 -2.5t22 -2q7 -9 2 -35t-16 -35q-144 4 -263 4q-187 0 -335 -4q-7 9 -3 35t15 35q12 1 38.5 2t37 2t30 4t27 8t17.5 13t12 21t0 31l-45 334h-373q-35 0 -50 -7 t-26 -28zM1315 1483q-2 -15 -13.5 -30.5t-26.5 -22.5q-173 57 -238 114q-97 -64 -268 -114q-12 6 -17.5 22.5t-3.5 32.5q141 83 290 213l30 10q47 -55 118 -119.5t129 -105.5z" />
<glyph unicode="&#xc3;" horiz-adv-x="1454" d="M1157 1552q67 0 113 88q23 0 38.5 -11.5t13.5 -29.5q-38 -88 -97 -139t-117 -51q-76 0 -127 43q-48 35 -114 35q-20 0 -32 -2t-27 -9.5t-27.5 -25t-24.5 -45.5q-22 0 -37 8.5t-12 28.5q38 82 91.5 136t105.5 54q89 0 145 -51q33 -29 108 -29zM649 580h299l-67 485h-13 l-264 -459q-9 -15 1.5 -20.5t43.5 -5.5zM356 162q-11 -20 -13.5 -35.5t7 -25.5t19 -16t32 -10t34.5 -5.5t38 -3.5q7 -9 2 -35t-16 -35q-144 4 -260 4q-39 0 -187 -4q-7 9 -1.5 35t16.5 35q39 3 62 7.5t52 18.5t55 42.5t54 74.5l631 1048q66 0 233 91l178 -1172q2 -15 6 -28 t8 -22.5t12 -17.5t12.5 -13.5t16.5 -10t16.5 -6.5t20 -4.5t20 -3l22.5 -2.5t22 -2q7 -9 2 -35t-16 -35q-144 4 -263 4q-187 0 -335 -4q-7 9 -3 35t15 35q12 1 38.5 2t37 2t30 4t27 8t17.5 13t12 21t0 31l-45 334h-373q-35 0 -50 -7t-26 -28z" />
<glyph unicode="&#xc4;" horiz-adv-x="1454" d="M588 1427q0 50 32.5 83.5t81.5 33.5t82 -33.5t33 -83.5q0 -49 -32.5 -81.5t-82.5 -32.5t-82 32.5t-32 81.5zM1237 1427q0 49 33.5 83t83.5 34q49 0 80.5 -33.5t31.5 -83.5t-31.5 -82t-80.5 -32q-50 0 -83.5 32.5t-33.5 81.5zM649 580h299l-67 485h-13l-264 -459 q-9 -15 1.5 -20.5t43.5 -5.5zM356 162q-11 -20 -13.5 -35.5t7 -25.5t19 -16t32 -10t34.5 -5.5t38 -3.5q7 -9 2 -35t-16 -35q-144 4 -260 4q-39 0 -187 -4q-7 9 -1.5 35t16.5 35q39 3 62 7.5t52 18.5t55 42.5t54 74.5l631 1048q66 0 233 91l178 -1172q2 -15 6 -28t8 -22.5 t12 -17.5t12.5 -13.5t16.5 -10t16.5 -6.5t20 -4.5t20 -3l22.5 -2.5t22 -2q7 -9 2 -35t-16 -35q-144 4 -263 4q-187 0 -335 -4q-7 9 -3 35t15 35q12 1 38.5 2t37 2t30 4t27 8t17.5 13t12 21t0 31l-45 334h-373q-35 0 -50 -7t-26 -28z" />
<glyph unicode="&#xc5;" horiz-adv-x="1454" d="M649 580h299l-67 485h-13l-264 -459q-9 -15 1.5 -20.5t43.5 -5.5zM356 162q-11 -20 -13.5 -35.5t7 -25.5t19 -16t32 -10t34.5 -5.5t38 -3.5q7 -9 2 -35t-16 -35q-144 4 -260 4q-39 0 -187 -4q-7 9 -1.5 35t16.5 35q39 3 62 7.5t52 18.5t55 42.5t54 74.5l631 1048 q66 0 233 91l178 -1172q2 -15 6 -28t8 -22.5t12 -17.5t12.5 -13.5t16.5 -10t16.5 -6.5t20 -4.5t20 -3l22.5 -2.5t22 -2q7 -9 2 -35t-16 -35q-144 4 -263 4q-187 0 -335 -4q-7 9 -3 35t15 35q12 1 38.5 2t37 2t30 4t27 8t17.5 13t12 21t0 31l-45 334h-373q-35 0 -50 -7 t-26 -28zM995 1647q-46 0 -76 -33.5t-33 -81.5q-3 -45 23.5 -80t71.5 -35t76 35t34 80q3 48 -24 81.5t-72 33.5zM810 1532q4 70 61 120t128 50q72 0 121.5 -49.5t45.5 -120.5q-5 -69 -60 -119.5t-128 -50.5q-71 0 -121.5 50t-46.5 120z" />
<glyph unicode="&#xc6;" horiz-adv-x="1957" d="M274 209l716 942q38 55 14.5 79.5t-98.5 24.5q-17 0 -13 15l10 51l5 4l423 -4h611q54 0 102 8q4 0 6 -1.5t1 -4.5q0 -7 -7.5 -62.5t-18 -127.5t-13.5 -107q-40 -18 -90 -10q-5 47 -11.5 77.5t-19.5 60t-33 45.5t-52.5 26t-78.5 10h-174q-35 0 -66 -31t-39 -69l-82 -383 h166q108 0 149.5 22.5t63.5 104.5q11 9 46 9t42 -9q-24 -97 -41 -177q-10 -44 -34 -180q-11 -9 -45.5 -9t-42.5 9q11 71 -22.5 99t-137.5 28h-166l-99 -465q-9 -41 10 -69.5t53 -28.5h207q111 0 199 72t146 190q21 5 48.5 2t41.5 -12q-13 -34 -37 -106t-46.5 -131.5 t-44.5 -104.5q-184 4 -282 4h-483q-215 -2 -316 -4q-8 9 -2.5 35t16.5 35q42 2 64.5 4t48 8.5t38 17.5t26.5 32t23 49.5t18 72.5l62 295h-364l-288 -383q-14 -19 -17.5 -34.5t5.5 -25t21 -16.5t33.5 -11t38 -5.5t39.5 -3.5q8 -9 2.5 -35t-16.5 -35q-150 4 -272 4 q-41 0 -193 -4q-7 9 -1.5 35t16.5 35q74 5 123 32t112 111zM746 647h311l100 469q10 48 -11 46q-18 -4 -48 -44z" />
<glyph unicode="&#xc7;" horiz-adv-x="1382" d="M587 -207l-11 12l113 177q-234 16 -359 127q-97 85 -129.5 233.5t-3.5 302.5q32 165 114.5 299.5t197 222t251.5 134.5t282 47q83 0 153 -13t108.5 -29.5t80.5 -32t72 -18.5q-7 -202 -18 -317q-19 -9 -44.5 -12.5t-43.5 2.5q-5 58 -15.5 103t-34.5 90t-60.5 74.5t-96 48 t-137.5 18.5q-114 0 -219.5 -78.5t-180 -210t-104.5 -289.5q-25 -120 -12 -228t50.5 -190.5t104.5 -131t150 -48.5q251 0 477 213q16 0 34 -14.5t23 -28.5q-127 -135 -269 -205.5t-286 -70.5h-14l-35 -64q185 -39 166 -172q-11 -77 -88.5 -130.5t-177.5 -53.5q-16 0 -29.5 1 t-21.5 2t-19.5 5.5t-15.5 6t-19.5 9t-20.5 10.5q7 44 28 54q75 -29 115 -29q47 0 77.5 22t36.5 62q4 27 -10 45.5t-44.5 27t-54.5 12t-60 5.5z" />
<glyph unicode="&#xc8;" horiz-adv-x="1183" d="M799 1700q-42 -19 -83.5 -50t-65.5 -63l3 -24l278 -119q32 -14 70 -14q14 0 29 9t16 21q4 27 -14 43q-29 29 -104 92t-129 105zM772 752q103 0 142.5 22.5t60.5 104.5q11 9 44 9t40 -9q-12 -54 -37 -177q-18 -90 -33 -180q-11 -9 -44 -9t-40 9q9 71 -22.5 99t-130.5 28 h-160l-90 -465q-7 -41 11 -69.5t50 -28.5h199q107 0 190 71.5t138 190.5q20 5 46.5 2t39.5 -12q-4 -12 -47.5 -146.5t-71.5 -195.5q-177 4 -271 4h-462q-210 -2 -306 -4q-7 9 -1.5 35t16.5 35q40 2 61.5 4t46 8.5t36.5 17.5t25 32t21.5 49.5t16.5 72.5l157 819q9 44 12 72.5 t-2 50t-12.5 32.5t-28.5 18t-42 9t-60 4q-7 9 -3 35t15 35l304 -4h579q51 0 98 8q7 0 7 -6t-7.5 -62t-16 -127.5t-11.5 -107.5q-36 -18 -86 -10q-13 118 -49.5 168.5t-139.5 50.5h-168q-34 0 -63 -30.5t-37 -69.5l-74 -383h160z" />
<glyph unicode="&#xc9;" horiz-adv-x="1183" d="M1008 1706q36 -18 69 -50t48 -63l-9 -24l-312 -119q-36 -14 -73 -14q-14 0 -26 9t-11 21q4 26 26 43q106 82 288 197zM772 752q103 0 142.5 22.5t60.5 104.5q11 9 44 9t40 -9q-12 -54 -37 -177q-18 -90 -33 -180q-11 -9 -44 -9t-40 9q9 71 -22.5 99t-130.5 28h-160 l-90 -465q-7 -41 11 -69.5t50 -28.5h199q107 0 190 71.5t138 190.5q20 5 46.5 2t39.5 -12q-4 -12 -47.5 -146.5t-71.5 -195.5q-177 4 -271 4h-462q-210 -2 -306 -4q-7 9 -1.5 35t16.5 35q40 2 61.5 4t46 8.5t36.5 17.5t25 32t21.5 49.5t16.5 72.5l157 819q9 44 12 72.5 t-2 50t-12.5 32.5t-28.5 18t-42 9t-60 4q-7 9 -3 35t15 35l304 -4h579q51 0 98 8q7 0 7 -6t-7.5 -62t-16 -127.5t-11.5 -107.5q-36 -18 -86 -10q-13 118 -49.5 168.5t-139.5 50.5h-168q-34 0 -63 -30.5t-37 -69.5l-74 -383h160z" />
<glyph unicode="&#xca;" horiz-adv-x="1183" d="M1163 1483q-2 -15 -13.5 -30.5t-26.5 -22.5q-173 57 -238 114q-97 -64 -268 -114q-12 6 -17.5 22.5t-3.5 32.5q144 84 291 213l30 10q47 -56 118 -120t128 -105zM772 752q103 0 142.5 22.5t60.5 104.5q11 9 44 9t40 -9q-12 -54 -37 -177q-18 -90 -33 -180q-11 -9 -44 -9 t-40 9q9 71 -22.5 99t-130.5 28h-160l-90 -465q-7 -41 11 -69.5t50 -28.5h199q107 0 190 71.5t138 190.5q20 5 46.5 2t39.5 -12q-4 -12 -47.5 -146.5t-71.5 -195.5q-177 4 -271 4h-462q-210 -2 -306 -4q-7 9 -1.5 35t16.5 35q40 2 61.5 4t46 8.5t36.5 17.5t25 32t21.5 49.5 t16.5 72.5l157 819q9 44 12 72.5t-2 50t-12.5 32.5t-28.5 18t-42 9t-60 4q-7 9 -3 35t15 35l304 -4h579q51 0 98 8q7 0 7 -6t-7.5 -62t-16 -127.5t-11.5 -107.5q-36 -18 -86 -10q-13 118 -49.5 168.5t-139.5 50.5h-168q-34 0 -63 -30.5t-37 -69.5l-74 -383h160z" />
<glyph unicode="&#xcb;" horiz-adv-x="1183" d="M573 1604q0 50 33 83t82 33t82 -33t33 -83t-32.5 -82.5t-82.5 -32.5t-82.5 32.5t-32.5 82.5zM956 1604q0 49 33.5 82.5t83.5 33.5q49 0 81 -33t32 -83t-32 -82.5t-81 -32.5q-50 0 -83.5 33t-33.5 82zM772 752q103 0 142.5 22.5t60.5 104.5q11 9 44 9t40 -9 q-12 -54 -37 -177q-18 -90 -33 -180q-11 -9 -44 -9t-40 9q9 71 -22.5 99t-130.5 28h-160l-90 -465q-7 -41 11 -69.5t50 -28.5h199q107 0 190 71.5t138 190.5q20 5 46.5 2t39.5 -12q-4 -12 -47.5 -146.5t-71.5 -195.5q-177 4 -271 4h-462q-210 -2 -306 -4q-7 9 -1.5 35 t16.5 35q40 2 61.5 4t46 8.5t36.5 17.5t25 32t21.5 49.5t16.5 72.5l157 819q9 44 12 72.5t-2 50t-12.5 32.5t-28.5 18t-42 9t-60 4q-7 9 -3 35t15 35l304 -4h579q51 0 98 8q7 0 7 -6t-7.5 -62t-16 -127.5t-11.5 -107.5q-36 -18 -86 -10q-13 118 -49.5 168.5t-139.5 50.5 h-168q-34 0 -63 -30.5t-37 -69.5l-74 -383h160z" />
<glyph unicode="&#xcc;" horiz-adv-x="718" d="M554 1700q-42 -19 -84 -50t-66 -63l3 -24l278 -119q31 -14 70 -14q14 0 29 9t16 21q4 27 -14 43q-30 29 -104.5 92.5t-127.5 104.5zM432 1071q8 42 9.5 72t-5.5 50t-16 31.5t-30 18t-38 8.5t-49 4q-12 9 -7.5 35t21.5 35q156 -4 304 -4q139 0 299 4q12 -9 7 -35t-22 -35 q-39 -2 -60 -5t-46.5 -13.5t-40 -29.5t-28 -52.5t-23.5 -83.5l-160 -821q-8 -42 -10 -72t5 -50t15.5 -31.5t29.5 -18t38 -8.5t49 -4q12 -9 8.5 -35t-20.5 -35q-156 4 -300 4q-143 0 -303 -4q-12 9 -7 35t22 35q39 2 60 5t46.5 13.5t40 29.5t28 52.5t23.5 83.5z" />
<glyph unicode="&#xcd;" horiz-adv-x="718" d="M742 1706q36 -18 69 -50t48 -63l-9 -24l-312 -119q-36 -14 -74 -14q-14 0 -25.5 9t-10.5 21q4 26 26 43q106 82 288 197zM432 1071q8 42 9.5 72t-5.5 50t-16 31.5t-30 18t-38 8.5t-49 4q-12 9 -7.5 35t21.5 35q156 -4 304 -4q139 0 299 4q12 -9 7 -35t-22 -35 q-39 -2 -60 -5t-46.5 -13.5t-40 -29.5t-28 -52.5t-23.5 -83.5l-160 -821q-8 -42 -10 -72t5 -50t15.5 -31.5t29.5 -18t38 -8.5t49 -4q12 -9 8.5 -35t-20.5 -35q-156 4 -300 4q-143 0 -303 -4q-12 9 -7 35t22 35q39 2 60 5t46.5 13.5t40 29.5t28 52.5t23.5 83.5z" />
<glyph unicode="&#xce;" horiz-adv-x="718" d="M924 1483q-2 -15 -13.5 -30.5t-26.5 -22.5q-173 57 -238 114q-97 -64 -268 -114q-12 6 -17.5 22.5t-3.5 32.5q141 83 290 213l30 10q47 -55 118 -119.5t129 -105.5zM432 1071q8 42 9.5 72t-5.5 50t-16 31.5t-30 18t-38 8.5t-49 4q-12 9 -7.5 35t21.5 35q156 -4 304 -4 q139 0 299 4q12 -9 7 -35t-22 -35q-39 -2 -60 -5t-46.5 -13.5t-40 -29.5t-28 -52.5t-23.5 -83.5l-160 -821q-8 -42 -10 -72t5 -50t15.5 -31.5t29.5 -18t38 -8.5t49 -4q12 -9 8.5 -35t-20.5 -35q-156 4 -300 4q-143 0 -303 -4q-12 9 -7 35t22 35q39 2 60 5t46.5 13.5t40 29.5 t28 52.5t23.5 83.5z" />
<glyph unicode="&#xcf;" horiz-adv-x="718" d="M338 1569q0 50 33 83.5t82 33.5t81.5 -33.5t32.5 -83.5t-32.5 -82.5t-81.5 -32.5t-82 33t-33 82zM721 1569q0 49 33.5 83t83.5 34q49 0 80.5 -33.5t31.5 -83.5t-31.5 -82.5t-80.5 -32.5q-50 0 -83.5 33t-33.5 82zM432 1071q8 42 9.5 72t-5.5 50t-16 31.5t-30 18t-38 8.5 t-49 4q-12 9 -7.5 35t21.5 35q156 -4 304 -4q139 0 299 4q12 -9 7 -35t-22 -35q-39 -2 -60 -5t-46.5 -13.5t-40 -29.5t-28 -52.5t-23.5 -83.5l-160 -821q-8 -42 -10 -72t5 -50t15.5 -31.5t29.5 -18t38 -8.5t49 -4q12 -9 8.5 -35t-20.5 -35q-156 4 -300 4q-143 0 -303 -4 q-12 9 -7 35t22 35q39 2 60 5t46.5 13.5t40 29.5t28 52.5t23.5 83.5z" />
<glyph unicode="&#xd0;" horiz-adv-x="1429" d="M547 244q-8 -40 -8 -64q0 -58 37 -78t126 -20q90 0 179 60.5t159 163.5t113.5 252.5t43.5 314.5q0 64 -9.5 116t-33 99t-61 79t-97 51t-136.5 19q-120 0 -151 -154l-80 -415q111 1 227 8l-20 -103q-114 7 -224 8zM362 0l-303 -4q-8 7 -8 23q0 34 23 47q39 2 60 5 t46.5 13.5t40 29.5t28 52.5t23.5 83.5l64 330q-67 -1 -178 -7l20 103q108 -6 176 -7l78 402q10 55 10 82q0 62 -31.5 80t-107.5 22q-8 7 -8 23q0 34 22 47q226 -4 304 -4q36 0 122.5 1t141.5 1q151 0 267.5 -40t189 -112t109 -167t36.5 -211q0 -195 -79.5 -368.5 t-186.5 -256.5q-115 -89 -257 -130.5t-284 -41.5q-39 0 -159 2t-159 2z" />
<glyph unicode="&#xd1;" horiz-adv-x="1452" d="M1157 1552q67 0 113 88q23 0 38 -11.5t13 -29.5q-38 -88 -96.5 -139t-116.5 -51q-76 0 -127 43q-48 35 -114 35q-20 0 -32 -2t-27 -9.5t-27.5 -25t-24.5 -45.5q-22 0 -37 8.5t-12 28.5q38 82 91.5 136t105.5 54q89 0 145 -51q33 -29 108 -29zM1257 0q-54 -25 -145 -25 q-32 40 -61 91l-502 815q-24 41 -37 41q-17 0 -25 -41l-118 -609q-7 -36 -11 -62t-3 -47t3 -34.5t12.5 -24t18.5 -16t28.5 -10.5t36 -7t46.5 -5q7 -9 1.5 -35t-16.5 -35q-196 4 -235 4q-29 0 -221 -4q-7 9 -3 35t15 35q41 4 63 7.5t47 12t37 20.5t26 35t22.5 53.5t17.5 77.5 l166 854q-2 45 -37.5 85t-93.5 44q-7 9 -2 35t16 35l336 -4l135 -215l395 -639q11 -18 21.5 -25.5t20 -0.5t14.5 32l110 576q7 36 11 62t3 47t-3 34.5t-12.5 24t-18.5 16t-28.5 10.5t-36 7t-46.5 5q-7 9 -1.5 35t16.5 35q196 -4 237 -4q29 0 221 4q7 -9 2 -35t-16 -35 q-41 -4 -62.5 -7.5t-46.5 -12t-37 -20.5t-25.5 -35t-22 -53.5t-17.5 -77.5l-164 -840z" />
<glyph unicode="&#xd2;" horiz-adv-x="1431" d="M922 1700q-42 -19 -83.5 -50t-65.5 -63l3 -24l278 -119q31 -14 70 -14q14 0 29 9t16 21q4 27 -14 43q-29 29 -104 92t-129 105zM934 1262q-85 0 -164.5 -54.5t-142.5 -164.5q-58 -101 -104 -265t-46 -315q0 -188 78 -292.5t211 -104.5q120 0 223.5 111t163 295t59.5 393 q0 192 -75 294.5t-203 102.5zM711 -20q-148 0 -267 60t-191 178t-72 275q0 187 73.5 345.5t194.5 279.5q108 108 244.5 169t281.5 61q237 0 385.5 -142t148.5 -379q0 -231 -103.5 -425t-287 -308t-407.5 -114z" />
<glyph unicode="&#xd3;" horiz-adv-x="1431" d="M1111 1706q36 -18 69 -50t48 -63l-10 -24l-311 -119q-36 -14 -74 -14q-14 0 -26 9t-11 21q4 25 27 43q106 82 288 197zM934 1262q-85 0 -164.5 -54.5t-142.5 -164.5q-58 -101 -104 -265t-46 -315q0 -188 78 -292.5t211 -104.5q120 0 223.5 111t163 295t59.5 393 q0 192 -75 294.5t-203 102.5zM711 -20q-148 0 -267 60t-191 178t-72 275q0 187 73.5 345.5t194.5 279.5q108 108 244.5 169t281.5 61q237 0 385.5 -142t148.5 -379q0 -231 -103.5 -425t-287 -308t-407.5 -114z" />
<glyph unicode="&#xd4;" horiz-adv-x="1431" d="M1266 1483q-2 -15 -13.5 -30.5t-26.5 -22.5q-173 57 -238 114q-97 -64 -268 -114q-12 6 -17.5 22.5t-3.5 32.5q141 83 290 213l30 10q47 -55 118 -119.5t129 -105.5zM934 1262q-85 0 -164.5 -54.5t-142.5 -164.5q-58 -101 -104 -265t-46 -315q0 -188 78 -292.5 t211 -104.5q120 0 223.5 111t163 295t59.5 393q0 192 -75 294.5t-203 102.5zM711 -20q-148 0 -267 60t-191 178t-72 275q0 187 73.5 345.5t194.5 279.5q108 108 244.5 169t281.5 61q237 0 385.5 -142t148.5 -379q0 -231 -103.5 -425t-287 -308t-407.5 -114z" />
<glyph unicode="&#xd5;" horiz-adv-x="1431" d="M1157 1552q67 0 113 88q23 0 38.5 -11.5t13.5 -29.5q-38 -88 -97 -139t-117 -51q-76 0 -127 43q-48 35 -114 35q-20 0 -32 -2t-27 -9.5t-27.5 -25t-24.5 -45.5q-22 0 -37 8.5t-12 28.5q38 82 91.5 136t105.5 54q89 0 145 -51q33 -29 108 -29zM934 1262 q-85 0 -164.5 -54.5t-142.5 -164.5q-58 -101 -104 -265t-46 -315q0 -188 78 -292.5t211 -104.5q120 0 223.5 111t163 295t59.5 393q0 192 -75 294.5t-203 102.5zM711 -20q-148 0 -267 60t-191 178t-72 275q0 187 73.5 345.5t194.5 279.5q108 108 244.5 169t281.5 61 q237 0 385.5 -142t148.5 -379q0 -231 -103.5 -425t-287 -308t-407.5 -114z" />
<glyph unicode="&#xd6;" horiz-adv-x="1431" d="M369 1468q0 50 32.5 83.5t81.5 33.5t82 -33.5t33 -83.5q0 -49 -32.5 -81.5t-82.5 -32.5q-49 0 -81.5 32t-32.5 82zM1309 1468q0 50 33.5 83.5t82.5 33.5t81 -33.5t32 -83.5t-32 -82t-81 -32q-50 0 -83 32.5t-33 81.5zM934 1262q-85 0 -164.5 -54.5t-142.5 -164.5 q-58 -101 -104 -265t-46 -315q0 -188 78 -292.5t211 -104.5q120 0 223.5 111t163 295t59.5 393q0 192 -75 294.5t-203 102.5zM711 -20q-148 0 -267 60t-191 178t-72 275q0 187 73.5 345.5t194.5 279.5q108 108 244.5 169t281.5 61q237 0 385.5 -142t148.5 -379 q0 -231 -103.5 -425t-287 -308t-407.5 -114z" />
<glyph unicode="&#xd7;" horiz-adv-x="1079" d="M728 475l193 -248l-107 -86l-196 242l-293 -242l-66 86l292 238l-190 244l111 96l192 -246l289 246l72 -86z" />
<glyph unicode="&#xd8;" horiz-adv-x="1431" d="M1468 1372l93 -51l-157 -164q105 -135 105 -330q0 -231 -103.5 -425t-287 -308t-407.5 -114q-194 0 -333 101l-161 -169l-94 51l179 187q-121 137 -121 343q0 187 73.5 345.5t194.5 279.5q108 108 244.5 169t281.5 61q215 0 358 -118zM934 1262q-85 0 -164.5 -54.5 t-142.5 -164.5q-58 -101 -104 -265t-46 -315q0 -59 10 -119l695 728q-33 93 -97 141.5t-151 48.5zM1208 951l-687 -721q75 -164 245 -164q120 0 223.5 111t163 295t59.5 393q0 50 -4 86z" />
<glyph unicode="&#xd9;" horiz-adv-x="1437" d="M943 1700q-42 -19 -83.5 -50t-65.5 -63l2 -24l279 -119q32 -14 69 -14q14 0 29 9t16 21q4 27 -14 43q-30 29 -104.5 92.5t-127.5 104.5zM653 1069l-100 -518q-12 -61 -18 -104.5t-7.5 -98.5t11.5 -100.5t41 -79.5q81 -102 213 -102q69 0 127.5 16.5t100.5 42.5t77.5 67 t58 81.5t42 95t30.5 98t22 100.5l99 502q22 112 -1 145q-18 26 -90 35q-15 2 -55 6q-7 9 -1.5 35t16.5 35q196 -4 249 -4q19 0 211 4q7 -9 2 -35t-16 -35q-34 -4 -47.5 -6t-36 -7t-31 -12.5t-22 -20t-20 -32t-14.5 -45.5t-15 -63l-93 -465q-28 -143 -76 -252.5 t-124.5 -195.5t-190 -131t-260.5 -45q-272 0 -381 86q-149 118 -90 417l115 586q8 43 11.5 72.5t-1 50t-11.5 32t-25.5 18.5t-36.5 9t-52 4q-7 9 -3 35t15 35q196 -4 287 -4q130 0 322 4q7 -9 1.5 -35t-16.5 -35q-44 -2 -68 -4t-49 -9t-37.5 -18t-25.5 -32.5t-20.5 -50 t-16.5 -72.5z" />
<glyph unicode="&#xda;" horiz-adv-x="1437" d="M1213 1706q36 -18 69 -50t48 -63l-9 -24l-312 -119q-36 -14 -74 -14q-14 0 -25.5 9t-10.5 21q4 26 26 43q106 82 288 197zM653 1069l-100 -518q-12 -61 -18 -104.5t-7.5 -98.5t11.5 -100.5t41 -79.5q81 -102 213 -102q69 0 127.5 16.5t100.5 42.5t77.5 67t58 81.5t42 95 t30.5 98t22 100.5l99 502q22 112 -1 145q-18 26 -90 35q-15 2 -55 6q-7 9 -1.5 35t16.5 35q196 -4 249 -4q19 0 211 4q7 -9 2 -35t-16 -35q-34 -4 -47.5 -6t-36 -7t-31 -12.5t-22 -20t-20 -32t-14.5 -45.5t-15 -63l-93 -465q-28 -143 -76 -252.5t-124.5 -195.5t-190 -131 t-260.5 -45q-272 0 -381 86q-149 118 -90 417l115 586q8 43 11.5 72.5t-1 50t-11.5 32t-25.5 18.5t-36.5 9t-52 4q-7 9 -3 35t15 35q196 -4 287 -4q130 0 322 4q7 -9 1.5 -35t-16.5 -35q-44 -2 -68 -4t-49 -9t-37.5 -18t-25.5 -32.5t-20.5 -50t-16.5 -72.5z" />
<glyph unicode="&#xdb;" horiz-adv-x="1437" d="M1327 1483q-2 -15 -13.5 -30.5t-26.5 -22.5q-173 57 -238 114q-97 -64 -268 -114q-12 6 -17.5 22.5t-3.5 32.5q141 83 290 213l31 10q47 -56 118 -120t128 -105zM653 1069l-100 -518q-12 -61 -18 -104.5t-7.5 -98.5t11.5 -100.5t41 -79.5q81 -102 213 -102 q69 0 127.5 16.5t100.5 42.5t77.5 67t58 81.5t42 95t30.5 98t22 100.5l99 502q22 112 -1 145q-18 26 -90 35q-15 2 -55 6q-7 9 -1.5 35t16.5 35q196 -4 249 -4q19 0 211 4q7 -9 2 -35t-16 -35q-34 -4 -47.5 -6t-36 -7t-31 -12.5t-22 -20t-20 -32t-14.5 -45.5t-15 -63 l-93 -465q-28 -143 -76 -252.5t-124.5 -195.5t-190 -131t-260.5 -45q-272 0 -381 86q-149 118 -90 417l115 586q8 43 11.5 72.5t-1 50t-11.5 32t-25.5 18.5t-36.5 9t-52 4q-7 9 -3 35t15 35q196 -4 287 -4q130 0 322 4q7 -9 1.5 -35t-16.5 -35q-44 -2 -68 -4t-49 -9 t-37.5 -18t-25.5 -32.5t-20.5 -50t-16.5 -72.5z" />
<glyph unicode="&#xdc;" horiz-adv-x="1499" d="M838 1427q0 50 32.5 83.5t81.5 33.5t82 -33.5t33 -83.5q0 -49 -32.5 -81.5t-82.5 -32.5t-82 32.5t-32 81.5zM1180 1427q0 50 33.5 83.5t82.5 33.5t81 -33.5t32 -83.5t-32 -82t-81 -32q-50 0 -83 32.5t-33 81.5zM692 1069l-110 -518q-13 -64 -19.5 -105t-9.5 -97.5 t10.5 -101.5t41.5 -79q85 -102 222 -102q72 0 133 16.5t105.5 42.5t81.5 66.5t61.5 81.5t45.5 95t33 98.5t24 100.5l106 502q17 82 20 121t-2.5 47.5t-22.5 17.5q-8 9 -2.5 35t16.5 35q78 -4 116 -4q18 0 220 4q8 -9 2.5 -35t-16.5 -35l-44 -5.5t-34.5 -5.5t-30.5 -9 t-23 -14.5t-21 -21.5t-16 -31t-16 -43t-13 -56l-99 -465q-24 -113 -60.5 -205.5t-93 -171.5t-130.5 -132.5t-176 -84t-225 -30.5q-282 0 -396 86q-153 115 -89 417l125 586q9 43 12.5 72.5t-1 50t-11.5 32t-26.5 18.5t-38.5 9t-54 4q-7 9 -1.5 35t16.5 35q204 -4 298 -4 q114 0 192 4q7 -9 1.5 -35t-16.5 -35q-20 -3 -30.5 -13.5t-23.5 -49.5t-31 -123z" />
<glyph unicode="&#xdd;" horiz-adv-x="1241" d="M1152 1706q36 -18 69 -50t48 -63l-10 -24l-311 -119q-36 -14 -74 -14q-14 0 -26 9t-11 21q4 25 27 43q106 82 288 197zM842 250q-9 -44 -11.5 -72.5t3 -50t14.5 -32.5t32.5 -18.5t48 -9.5t68.5 -4q7 -9 2 -33.5t-16 -33.5q-196 4 -311 4q-152 0 -344 -4q-7 9 -3 33.5 t15 33.5q54 2 82 5.5t55.5 13.5t41.5 31t26 52.5t22 84.5l54 280q10 58 8.5 81.5t-19.5 68.5l-164 440q-31 82 -61.5 106t-95.5 29q-7 9 -3 35t15 35q118 -4 277 -4q85 0 245 4q7 -9 2 -35t-16 -35q-80 -4 -97 -30t7 -84l131 -377q6 -17 15 -23t19 -1.5t19 18.5l271 397 q29 46 7.5 70.5t-87.5 29.5q-7 9 -3 35t15 35q156 -4 217 -4q66 0 184 4q7 -9 2 -35t-16 -35q-74 -7 -110.5 -23.5t-77.5 -74.5l-338 -438q-25 -31 -39 -68.5t-27 -101.5z" />
<glyph unicode="&#xde;" horiz-adv-x="1261" d="M432 1071q8 42 9.5 72t-5.5 50t-16 31.5t-30 18t-38 8.5t-49 4q-12 9 -7.5 35t21.5 35q156 -4 304 -4q139 0 299 4q12 -9 7 -35t-22 -35q-39 -2 -60 -5t-46.5 -13.5t-40 -29.5t-28 -52.5t-23.5 -83.5l-1 -4q76 4 204 4q79 0 142.5 -13t106.5 -34.5t74 -52t47.5 -63.5 t23.5 -70t6 -70t-8 -66q-13 -62 -55 -127.5t-111 -127t-177.5 -101t-237.5 -39.5q-116 0 -161 10l-13 -67q-8 -42 -10 -72t5 -50t15.5 -31.5t29.5 -18t38 -8.5t49 -4q12 -9 8.5 -35t-20.5 -35q-156 4 -300 4q-143 0 -303 -4q-12 9 -7 35t22 35q39 2 60 5t46.5 13.5t40 29.5 t28 52.5t23.5 83.5zM575 397q48 -6 129 -6q113 0 183.5 73.5t105.5 237.5q29 137 -3 211t-123 74q-17 0 -84.5 -4.5t-93.5 -4.5z" />
<glyph unicode="&#xdf;" horiz-adv-x="1226" d="M832 66q-30 0 -52.5 12.5t-18.5 30.5q5 23 28 55.5t27 52.5q8 35 -17.5 58.5t-64.5 23.5t-72 -33t-40 -65q-11 -41 -4 -80.5t26.5 -71t63.5 -50.5t105 -19q88 0 169 44.5t135 113.5t86 149.5t32 154.5q0 137 -87.5 247.5t-215.5 148.5v4q183 65 283.5 163.5t100.5 222.5 q0 39 -22.5 82.5t-64.5 71.5q-70 48 -234 48q-67 0 -133.5 -15t-135 -49.5t-126 -85.5t-105 -129t-73.5 -174q-12 -42 -44 -65t-79 -23q-32 0 -46.5 -27.5t-14.5 -48.5q0 -12 16 -14l96 -11q15 -1 20 -6t5 -16q-65 -312 -94 -477q-12 -68 -28 -211t-36.5 -230t-60.5 -150 q-20 -32 -52 -53t-60 -21q-6 0 -11.5 0.5t-10.5 3t-8.5 3.5t-8 5.5l-6.5 6.5t-6 8t-5.5 7.5t-6 9t-5.5 9.5q-20 27 -51.5 50.5t-63.5 23.5q-47 0 -72 -29.5t-25 -65.5q0 -49 59.5 -91.5t173.5 -42.5q79 0 154.5 39t130.5 116q57 79 130 249.5t112 339.5q23 100 55 259 t50 241l30 139q3 14 9 41q10 46 15.5 69t16 65t18.5 64t21.5 55.5t27 52t32.5 40.5t40 33t47.5 19t57.5 8q34 0 66.5 -28.5t32.5 -80.5q0 -275 -236 -405l-6 -27q44 -31 73.5 -67t44.5 -64t22 -73.5t8 -71t1 -81.5v-28q0 -131 -35 -245.5t-83 -114.5z" />
<glyph unicode="&#xe0;" horiz-adv-x="1142" d="M794 1380l105 -254q14 -32 11 -53q-2 -13 -13.5 -23t-25.5 -10q-25 0 -66 41l-218 215l8 23q22 21 66 43t92 22q25 0 41 -4zM1040 893q42 0 42 -43q0 -16 -6 -44.5t-17.5 -75t-17.5 -74.5l-87 -402q-13 -52 -13 -87q0 -38 22 -38q18 0 62.5 27.5t80.5 68.5q19 0 36 -19.5 t23 -37.5q-71 -91 -164.5 -139.5t-199.5 -48.5q-79 0 -103 67q-6 16 -6 49q0 52 17 123l10 37l-8 4q-90 -133 -180.5 -206.5t-157.5 -73.5q-107 0 -163 74.5t-56 186.5q0 214 150 405q89 114 207.5 183.5t242.5 69.5q37 0 56 -1.5t39 -5t38 -5.5q15 -3 32 -3q19 0 61 4.5 t60 4.5zM746 463q23 58 39.5 136t22.5 127l5 48q-6 39 -70 39t-123 -45.5t-106 -123.5q-48 -80 -76 -176.5t-28 -184.5q0 -50 22.5 -80t67.5 -30q48 0 107.5 73t138.5 217z" />
<glyph unicode="&#xe1;" horiz-adv-x="1142" d="M1040 893q42 0 42 -43q0 -16 -6 -44.5t-17.5 -75t-17.5 -74.5l-87 -402q-14 -56 -14 -87q0 -38 23 -38q18 0 62.5 27.5t80.5 68.5q19 0 36 -19.5t23 -37.5q-71 -91 -164.5 -139.5t-199.5 -48.5q-79 0 -103 67q-6 16 -6 49q0 52 17 123l10 37l-8 4q-90 -133 -180.5 -206.5 t-157.5 -73.5q-107 0 -163 74.5t-56 186.5q0 214 150 405q89 114 207.5 183.5t242.5 69.5q37 0 56 -1.5t39 -5t38 -5.5q15 -3 32 -3q19 0 61 4.5t60 4.5zM746 463q23 58 39.5 136t22.5 127l5 48q-6 39 -70 39t-123 -45.5t-106 -123.5q-48 -80 -76 -176.5t-28 -184.5 q0 -50 22.5 -80t67.5 -30q48 0 107.5 73t138.5 217zM814 1380q12 4 34 4q76 0 110 -49l14 -47l-277 -221q-42 -33 -83 -33q-12 0 -21 10t-7 19q4 27 23 49z" />
<glyph unicode="&#xe2;" horiz-adv-x="1142" d="M1040 893q42 0 42 -43q0 -16 -6 -44.5t-17.5 -75t-17.5 -74.5l-87 -402q-14 -56 -14 -87q0 -38 23 -38q18 0 62.5 27.5t80.5 68.5q19 0 36 -19.5t23 -37.5q-71 -91 -164.5 -139.5t-199.5 -48.5q-79 0 -103 67q-6 16 -6 49q0 52 17 123l10 37l-8 4q-90 -133 -180.5 -206.5 t-157.5 -73.5q-107 0 -163 74.5t-56 186.5q0 214 150 405q89 114 207.5 183.5t242.5 69.5q37 0 56 -1.5t39 -5t38 -5.5q15 -3 32 -3q19 0 61 4.5t60 4.5zM746 463q23 58 39.5 136t22.5 127l5 48q-6 39 -70 39t-123 -45.5t-106 -123.5q-48 -80 -76 -176.5t-28 -184.5 q0 -50 22.5 -80t67.5 -30q48 0 107.5 73t138.5 217zM819 1358q54 -115 176 -275l-57 -39q-66 44 -109 80.5t-86 89.5q-42 -38 -85.5 -69.5t-70.5 -48.5t-85 -52l-46 39q180 176 256 275h107z" />
<glyph unicode="&#xe3;" horiz-adv-x="1142" d="M907 1206q67 0 113 88q23 0 38.5 -11.5t13.5 -29.5q-38 -88 -96.5 -139t-116.5 -51q-76 0 -127 43q-48 35 -115 35q-20 0 -32 -2t-27 -9.5t-27.5 -25t-24.5 -45.5q-53 0 -48 37q38 82 91 136t105 54q89 0 145 -51q33 -29 108 -29zM1040 893q42 0 42 -43q0 -16 -6 -44.5 t-17.5 -75t-17.5 -74.5l-87 -402q-13 -52 -13 -87q0 -38 22 -38q18 0 62.5 27.5t80.5 68.5q19 0 36 -19.5t23 -37.5q-71 -91 -164.5 -139.5t-199.5 -48.5q-79 0 -103 67q-6 16 -6 49q0 52 17 123l10 37l-8 4q-90 -133 -180.5 -206.5t-157.5 -73.5q-107 0 -163 74.5 t-56 186.5q0 214 150 405q89 114 207.5 183.5t242.5 69.5q37 0 56 -1.5t39 -5t38 -5.5q15 -3 32 -3q19 0 61 4.5t60 4.5zM746 463q23 58 39.5 136t22.5 127l5 48q-6 39 -70 39t-123 -45.5t-106 -123.5q-48 -80 -76 -176.5t-28 -184.5q0 -50 22.5 -80t67.5 -30q48 0 107.5 73 t138.5 217z" />
<glyph unicode="&#xe4;" horiz-adv-x="1142" d="M1040 893q42 0 42 -43q0 -16 -6 -44.5t-17.5 -75t-17.5 -74.5l-87 -402q-14 -56 -14 -87q0 -38 23 -38q18 0 62.5 27.5t80.5 68.5q19 0 36 -19.5t23 -37.5q-71 -91 -164.5 -139.5t-199.5 -48.5q-79 0 -103 67q-6 16 -6 49q0 52 17 123l10 37l-8 4q-90 -133 -180.5 -206.5 t-157.5 -73.5q-107 0 -163 74.5t-56 186.5q0 214 150 405q89 114 207.5 183.5t242.5 69.5q37 0 56 -1.5t39 -5t38 -5.5q15 -3 32 -3q19 0 61 4.5t60 4.5zM746 463q23 58 39.5 136t22.5 127l5 48q-6 39 -70 39t-123 -45.5t-106 -123.5q-48 -80 -76 -176.5t-28 -184.5 q0 -50 22.5 -80t67.5 -30q48 0 107.5 73t138.5 217zM794 1174q4 47 36.5 79.5t77.5 32.5q44 0 73 -32.5t25 -79.5q-4 -46 -37.5 -78.5t-76.5 -32.5q-45 0 -73.5 32.5t-24.5 78.5zM436 1174q4 47 37 79.5t77 32.5q45 0 73.5 -32.5t24.5 -79.5q-4 -46 -36.5 -78.5t-77.5 -32.5 q-44 0 -73 32.5t-25 78.5z" />
<glyph unicode="&#xe5;" horiz-adv-x="1142" d="M794 1315q-42 0 -73 -29t-37 -72q-6 -41 16.5 -70.5t65.5 -29.5t75 29.5t38 70.5q6 44 -18.5 72.5t-66.5 28.5zM606 1214q10 70 68 120t130 50q70 0 116 -49.5t36 -120.5q-10 -69 -69 -119.5t-131 -50.5q-71 0 -115.5 50t-34.5 120zM1040 893q42 0 42 -43q0 -16 -6 -44.5 t-17.5 -75t-17.5 -74.5l-87 -402q-14 -56 -14 -87q0 -38 23 -38q18 0 62.5 27.5t80.5 68.5q19 0 36 -19.5t23 -37.5q-71 -91 -164.5 -139.5t-199.5 -48.5q-79 0 -103 67q-6 16 -6 49q0 52 17 123l10 37l-8 4q-90 -133 -180.5 -206.5t-157.5 -73.5q-107 0 -163 74.5 t-56 186.5q0 214 150 405q89 114 207.5 183.5t242.5 69.5q37 0 56 -1.5t39 -5t38 -5.5q15 -3 32 -3q19 0 61 4.5t60 4.5zM746 463q23 58 39.5 136t22.5 127l5 48q-6 39 -70 39t-123 -45.5t-106 -123.5q-48 -80 -76 -176.5t-28 -184.5q0 -50 22.5 -80t67.5 -30q48 0 107.5 73 t138.5 217z" />
<glyph unicode="&#xe6;" horiz-adv-x="1464" d="M1229 813q-79 0 -148 -77.5t-112 -203.5q95 6 136.5 10t89.5 16t74 32q54 42 54 121q0 41 -26 71.5t-68 30.5zM643 193q7 16 16 51t23.5 93.5t22.5 90.5q-197 -25 -286 -114q-57 -57 -57 -132q0 -100 109 -100q96 0 172 111zM653 813q-68 0 -108.5 -28t-40.5 -85 q0 -38 -7 -55q-31 -72 -124 -72q-56 0 -84.5 28t-28.5 61q0 69 67.5 125t163 84t191.5 28q23 0 50 -4t64 -15t68 -37t45 -63q1 -1 9 -0.5t9 -1.5q59 61 145.5 91t176.5 30q85 0 149.5 -18.5t99 -48.5t51 -61t16.5 -62q0 -43 -20.5 -84t-51.5 -67q-61 -51 -189.5 -77 t-359.5 -37q-14 -60 -14 -118q0 -107 45.5 -169.5t120.5 -62.5q129 0 262 122q33 -7 63 -46q-65 -86 -165 -138t-216 -52q-59 0 -109 14.5t-82 38.5t-52 47.5t-32 47.5l-8 1q-59 -68 -144.5 -108.5t-168.5 -40.5q-156 0 -237.5 52t-81.5 142q0 111 105 199q137 116 495 145 q27 129 27 176q0 119 -99 119z" />
<glyph unicode="&#xe7;" horiz-adv-x="888" d="M339 -199l-11 13l107 167q-81 5 -135 30t-93 75q-43 56 -55.5 141t8.5 185q23 110 80.5 205t132.5 158t162 98.5t172 35.5q147 0 215 -62t49 -151q-11 -48 -47.5 -81t-81.5 -33q-46 0 -73.5 27.5t-23.5 68.5q3 35 0.5 67t-21.5 55t-52 23q-77 0 -141.5 -87t-100.5 -253 q-34 -160 15 -254t147 -94q52 0 105 25t122 82q13 0 28 -24.5t15 -39.5q-67 -79 -165.5 -134t-188.5 -63l-31 -57q185 -39 166 -172q-11 -77 -88 -130.5t-177 -53.5q-16 0 -29.5 1.5t-21.5 2.5t-19.5 5t-16.5 6t-19.5 9.5t-20.5 10.5q6 43 28 53q75 -29 115 -29 q47 0 77.5 22t36.5 62q4 27 -10 45.5t-44.5 27t-54.5 12t-60 5.5z" />
<glyph unicode="&#xe8;" horiz-adv-x="837" d="M702 758q0 57 -65 57q-34 0 -60.5 -11.5t-56 -44t-57.5 -101t-53 -172.5q36 6 72.5 17.5t77 33.5t71.5 51t51 73t20 97zM395 408q-2 -16 -2 -70q0 -236 109 -236q74 0 132.5 31.5t145.5 120.5q18 0 38 -16.5t28 -34.5q-87 -112 -198 -167.5t-220 -55.5q-72 0 -125.5 16 t-86 43t-52.5 68t-27.5 84.5t-7.5 99.5q0 81 19 163t62.5 163t106 143t158 100.5t209.5 38.5q118 0 184 -42.5t66 -100.5q0 -104 -64 -166q-105 -102 -475 -182zM597 1380l106 -254q14 -32 11 -53q-2 -13 -14 -23t-26 -10q-25 0 -66 41l-217 215l7 23q22 21 66.5 43t92.5 22 q24 0 40 -4z" />
<glyph unicode="&#xe9;" horiz-adv-x="837" d="M702 758q0 57 -65 57q-34 0 -60.5 -11.5t-56 -44t-57.5 -101t-53 -172.5q36 6 72.5 17.5t77 33.5t71.5 51t51 73t20 97zM395 408q-2 -16 -2 -70q0 -236 109 -236q74 0 132.5 31.5t145.5 120.5q18 0 38 -16.5t28 -34.5q-87 -112 -198 -167.5t-220 -55.5q-72 0 -125.5 16 t-86 43t-52.5 68t-27.5 84.5t-7.5 99.5q0 81 19 163t62.5 163t106 143t158 100.5t209.5 38.5q118 0 184 -42.5t66 -100.5q0 -104 -64 -166q-105 -102 -475 -182zM683 1380q12 4 34 4q76 0 110 -49l14 -47l-277 -221q-42 -33 -83 -33q-12 0 -21 10t-7 19q4 27 23 49z" />
<glyph unicode="&#xea;" horiz-adv-x="837" d="M702 758q0 57 -65 57q-34 0 -60.5 -11.5t-56 -44t-57.5 -101t-53 -172.5q36 6 72.5 17.5t77 33.5t71.5 51t51 73t20 97zM395 408q-2 -16 -2 -70q0 -236 109 -236q74 0 132.5 31.5t145.5 120.5q18 0 38 -16.5t28 -34.5q-87 -112 -198 -167.5t-220 -55.5q-72 0 -125.5 16 t-86 43t-52.5 68t-27.5 84.5t-7.5 99.5q0 81 19 163t62.5 163t106 143t158 100.5t209.5 38.5q118 0 184 -42.5t66 -100.5q0 -104 -64 -166q-105 -102 -475 -182zM737 1358q54 -115 176 -275l-57 -39q-66 44 -109 80.5t-86 89.5q-42 -38 -85.5 -69.5t-70.5 -48.5t-85 -52 l-45 39q176 172 255 275h107z" />
<glyph unicode="&#xeb;" horiz-adv-x="837" d="M702 766q0 57 -65 57q-34 0 -60.5 -11.5t-56 -44t-57.5 -101t-53 -172.5q36 6 72.5 17.5t77 33.5t71.5 51t51 73t20 97zM395 416q-2 -16 -2 -70q0 -235 109 -235q74 0 132.5 31.5t145.5 119.5q18 0 38 -16.5t28 -34.5q-87 -112 -198 -167.5t-220 -55.5q-72 0 -125.5 16 t-86 43t-52.5 68t-27.5 84.5t-7.5 99.5q0 81 19 163t62.5 163t106 143t158 100.5t209.5 38.5q118 0 184 -42.5t66 -100.5q0 -104 -64 -166q-105 -102 -475 -182zM765 1174q4 47 36.5 79.5t77.5 32.5q44 0 73 -32.5t25 -79.5q-4 -46 -37.5 -78.5t-76.5 -32.5 q-45 0 -73.5 32.5t-24.5 78.5zM407 1174q4 47 37 79.5t77 32.5q45 0 73.5 -32.5t24.5 -79.5q-4 -46 -36.5 -78.5t-77.5 -32.5q-44 0 -73 32.5t-25 78.5z" />
<glyph unicode="&#xec;" horiz-adv-x="700" d="M601 656l-87 -402q-29 -125 8 -125q18 0 63 27.5t81 68.5q19 0 36 -19.5t23 -37.5q-70 -90 -170.5 -139t-208.5 -49q-43 0 -65.5 16.5t-34.5 50.5q-16 46 14 189l90 421q12 58 12 84q0 38 -36 41l-82 6q-9 13 -7.5 39.5t11.5 38.5q73 9 188 18t164 9q42 0 42 -43 q0 -16 -6 -44.5t-17.5 -75t-17.5 -74.5zM513 1380l106 -254q14 -32 11 -53q-2 -13 -14 -23t-26 -10q-25 0 -66 41l-217 215l7 23q22 21 66.5 43t92.5 22q24 0 40 -4z" />
<glyph unicode="&#xed;" horiz-adv-x="700" d="M601 656l-87 -402q-29 -125 8 -125q18 0 63 27.5t81 68.5q19 0 36 -19.5t23 -37.5q-70 -90 -170.5 -139t-208.5 -49q-43 0 -65.5 16.5t-34.5 50.5q-16 46 14 189l90 421q12 58 12 84q0 38 -36 41l-82 6q-9 13 -7.5 39.5t11.5 38.5q73 9 188 18t164 9q42 0 42 -43 q0 -16 -6 -44.5t-17.5 -75t-17.5 -74.5zM608 1380q12 4 33 4q76 0 110 -49l14 -47l-277 -221q-42 -33 -82 -33q-12 0 -21.5 10t-7.5 19q4 27 23 49z" />
<glyph unicode="&#xee;" horiz-adv-x="700" d="M601 656l-87 -402q-29 -125 8 -125q18 0 63 27.5t81 68.5q19 0 36 -19.5t23 -37.5q-70 -90 -170.5 -139t-208.5 -49q-43 0 -65.5 16.5t-34.5 50.5q-16 46 14 189l90 421q12 58 12 84q0 38 -36 41l-82 6q-9 13 -7.5 39.5t11.5 38.5q73 9 188 18t164 9q42 0 42 -43 q0 -16 -6 -44.5t-17.5 -75t-17.5 -74.5zM573 1358q54 -115 176 -275l-56 -39q-67 45 -110 81t-86 89q-42 -38 -85.5 -69.5t-70.5 -48.5t-85 -52l-45 39q180 176 256 275h106z" />
<glyph unicode="&#xef;" horiz-adv-x="700" d="M601 656l-87 -402q-29 -125 8 -125q18 0 63 27.5t81 68.5q19 0 36 -19.5t23 -37.5q-70 -90 -170.5 -139t-208.5 -49q-43 0 -65.5 16.5t-34.5 50.5q-16 46 14 189l90 421q12 58 12 84q0 38 -36 41l-82 6q-9 13 -7.5 39.5t11.5 38.5q73 9 188 18t164 9q42 0 42 -43 q0 -16 -6 -44.5t-17.5 -75t-17.5 -74.5zM595 1174q4 47 36.5 79.5t77.5 32.5q44 0 73 -32.5t25 -79.5q-4 -46 -37.5 -78.5t-76.5 -32.5q-45 0 -73.5 32.5t-24.5 78.5zM237 1174q4 47 37 79.5t77 32.5q45 0 73.5 -32.5t24.5 -79.5q-4 -46 -36.5 -78.5t-77.5 -32.5 q-44 0 -73 32.5t-25 78.5z" />
<glyph unicode="&#xf0;" horiz-adv-x="1144" d="M167 428q48 221 242 354q91 63 193.5 95t184.5 32q47 0 102 -10q-30 142 -108 242q-105 -64 -259 -152l-32 74l246 143q-84 109 -138 154l67 70q141 -85 205 -146q47 29 146.5 86.5t117.5 67.5l33 -74l-233 -135q48 -54 75.5 -86.5t66.5 -89.5t61 -107q87 -194 28 -457 q-57 -256 -222 -383q-83 -63 -188 -94.5t-209 -31.5q-69 0 -129.5 18.5t-105 50.5t-79 75t-51 93t-22.5 104t8 107zM598 66q33 0 66.5 17t72 57.5t74 123t61.5 197.5q28 126 39 278q-26 38 -65 61t-82 23q-61 0 -114 -34t-89.5 -89.5t-61.5 -114.5t-38 -120 q-23 -116 -12.5 -204.5t51 -141.5t98.5 -53z" />
<glyph unicode="&#xf1;" horiz-adv-x="1257" d="M1020 1206q67 0 113 88q23 0 38 -11.5t13 -29.5q-38 -88 -96.5 -139t-116.5 -51q-76 0 -127 43q-48 35 -114 35q-20 0 -32.5 -2t-27.5 -9.5t-27.5 -25t-24.5 -45.5q-53 0 -48 37q38 82 91.5 136t105.5 54q88 0 144 -51q33 -29 109 -29zM287 498q30 135 30 223 q0 59 -36 61l-82 6q-9 13 -7.5 39.5t11.5 38.5q216 27 340 27q20 0 34 -14t14 -35q0 -81 -26 -207l4 -4q133 157 227.5 211.5t200.5 54.5q71 0 127 -40t56 -124q0 -42 -27 -155l-78 -326q-31 -125 8 -125q18 0 63 27.5t81 68.5q19 0 36 -19.5t23 -37.5q-70 -90 -170.5 -139 t-208.5 -49q-43 0 -65.5 16.5t-34.5 50.5q-19 54 14 189l76 327q18 79 18 119q0 44 -17.5 59t-53.5 15q-51 0 -123.5 -72.5t-183.5 -216.5l-78 -320q-2 -9 -8 -38.5t-9.5 -41t-13.5 -32.5t-23 -30t-35.5 -17t-52.5 -8q-81 0 -108 13.5t-27 41.5q0 9 4.5 27t11.5 44t10 41z " />
<glyph unicode="&#xf2;" horiz-adv-x="980" d="M401 348q0 -282 121 -282q44 0 80 17.5t60.5 45t42.5 68t28.5 81t16.5 89t8 86.5t2 79q0 36 -1 62.5t-4.5 62.5t-11.5 61t-20 48t-32 35t-46 12q-244 0 -244 -465zM137 332q0 138 83 278.5t223 218.5q126 70 253 70q73 0 130.5 -20t94 -51.5t60.5 -75t33.5 -87t9.5 -90.5 q0 -196 -91 -334.5t-236 -211.5q-44 -22 -113 -35.5t-133 -13.5q-74 0 -132 24.5t-91.5 61.5t-54.5 86t-28.5 92.5t-7.5 87.5zM769 1380l106 -254q14 -32 11 -53q-2 -13 -14 -23t-26 -10q-25 0 -66 41l-217 215l7 23q22 21 66.5 43t92.5 22q24 0 40 -4z" />
<glyph unicode="&#xf3;" horiz-adv-x="980" d="M401 348q0 -282 121 -282q44 0 80 17.5t60.5 45t42.5 68t28.5 81t16.5 89t8 86.5t2 79q0 36 -1 62.5t-4.5 62.5t-11.5 61t-20 48t-32 35t-46 12q-244 0 -244 -465zM137 332q0 138 83 278.5t223 218.5q126 70 253 70q73 0 130.5 -20t94 -51.5t60.5 -75t33.5 -87t9.5 -90.5 q0 -196 -91 -334.5t-236 -211.5q-44 -22 -113 -35.5t-133 -13.5q-74 0 -132 24.5t-91.5 61.5t-54.5 86t-28.5 92.5t-7.5 87.5zM745 1380q12 4 33 4q76 0 110 -49l14 -47l-277 -221q-42 -33 -82 -33q-12 0 -21.5 10t-7.5 19q4 27 23 49z" />
<glyph unicode="&#xf4;" horiz-adv-x="980" d="M778 1358q54 -115 176 -275l-57 -39q-66 44 -109 80.5t-86 89.5q-42 -38 -85.5 -69.5t-70.5 -48.5t-85 -52l-45 39q176 172 255 275h107zM401 348q0 -282 121 -282q44 0 80 17.5t60.5 45t42.5 68t28.5 81t16.5 89t8 86.5t2 79q0 36 -1 62.5t-4.5 62.5t-11.5 61t-20 48 t-32 35t-46 12q-244 0 -244 -465zM137 332q0 138 83 278.5t223 218.5q126 70 253 70q73 0 130.5 -20t94 -51.5t60.5 -75t33.5 -87t9.5 -90.5q0 -196 -91 -334.5t-236 -211.5q-44 -22 -113 -35.5t-133 -13.5q-74 0 -132 24.5t-91.5 61.5t-54.5 86t-28.5 92.5t-7.5 87.5z" />
<glyph unicode="&#xf5;" horiz-adv-x="980" d="M825 1206q67 0 113 88q23 0 38.5 -11.5t13.5 -29.5q-38 -88 -96.5 -139t-116.5 -51q-76 0 -127 43q-48 35 -114 35q-20 0 -32.5 -2t-27.5 -9.5t-27.5 -25t-24.5 -45.5q-53 0 -48 37q38 82 91 136t105 54q89 0 145 -51q33 -29 108 -29zM401 348q0 -282 121 -282 q44 0 80 17.5t60.5 45t42.5 68t28.5 81t16.5 89t8 86.5t2 79q0 36 -1 62.5t-4.5 62.5t-11.5 61t-20 48t-32 35t-46 12q-244 0 -244 -465zM137 332q0 138 83 278.5t223 218.5q126 70 253 70q73 0 130.5 -20t94 -51.5t60.5 -75t33.5 -87t9.5 -90.5q0 -196 -91 -334.5 t-236 -211.5q-44 -22 -113 -35.5t-133 -13.5q-74 0 -132 24.5t-91.5 61.5t-54.5 86t-28.5 92.5t-7.5 87.5z" />
<glyph unicode="&#xf6;" horiz-adv-x="980" d="M401 348q0 -282 121 -282q44 0 80 17.5t60.5 45t42.5 68t28.5 81t16.5 89t8 86.5t2 79q0 36 -1 62.5t-4.5 62.5t-11.5 61t-20 48t-32 35t-46 12q-244 0 -244 -465zM137 332q0 138 83 278.5t223 218.5q126 70 253 70q73 0 130.5 -20t94 -51.5t60.5 -75t33.5 -87t9.5 -90.5 q0 -196 -91 -334.5t-236 -211.5q-44 -22 -113 -35.5t-133 -13.5q-74 0 -132 24.5t-91.5 61.5t-54.5 86t-28.5 92.5t-7.5 87.5zM802 1174q4 47 36.5 79.5t77.5 32.5q44 0 73 -32.5t25 -79.5q-4 -46 -37.5 -78.5t-76.5 -32.5q-45 0 -73.5 32.5t-24.5 78.5zM444 1174 q4 47 37 79.5t77 32.5q45 0 73.5 -32.5t24.5 -79.5q-4 -46 -36.5 -78.5t-77.5 -32.5q-44 0 -73 32.5t-25 78.5z" />
<glyph unicode="&#xf7;" horiz-adv-x="1079" d="M471 147q0 47 38.5 85t88.5 38q35 0 57.5 -21.5t22.5 -55.5q0 -50 -40 -86.5t-87 -36.5q-35 0 -57.5 21.5t-22.5 55.5zM618 813q0 48 38.5 86.5t88.5 38.5q35 0 57.5 -23t22.5 -57q0 -49 -40.5 -86t-86.5 -37q-36 0 -58 22t-22 56zM1071 549l-22 -100h-811l24 100h809z " />
<glyph unicode="&#xf8;" horiz-adv-x="980" d="M979 965l70 -52l-93 -110q78 -88 78 -228q0 -196 -90.5 -334.5t-235.5 -211.5q-44 -22 -113.5 -35.5t-133.5 -13.5q-98 0 -164 39l-86 -103l-68 58l86 102q-82 97 -82 256q0 138 83.5 278.5t223.5 218.5q126 70 253 70q107 0 181 -42zM769 581l-340 -405 q29 -110 103 -110q44 0 80 17.5t60.5 45t42.5 68t28.5 81t16.5 89t8 86.5t2 79q0 8 -0.5 24t-0.5 25zM757 702q-25 111 -102 111q-243 0 -243 -465q0 -37 1 -54z" />
<glyph unicode="&#xf9;" horiz-adv-x="1323" d="M883 219l-4 -15l9 46l-4 4q-131 -154 -225 -210t-183 -56q-70 0 -126 42t-56 126t16 151l78 326q31 125 -8 125q-18 0 -62.5 -27.5t-80.5 -68.5q-19 0 -36.5 19.5t-23.5 37.5q70 90 170.5 139t208.5 49q43 0 66 -16.5t35 -50.5q19 -52 -15 -189l-76 -327q-9 -44 -9 -81.5 t19 -62t54 -24.5q18 0 36 6.5t41 26t39.5 35t48 54.5t50 62.5t61.5 79.5l79 319q2 10 8 39t9.5 41t13.5 33t22.5 30t35 17t52.5 8q81 0 108 -13.5t27 -41.5q0 -9 -4.5 -27.5t-11.5 -44.5t-10 -41l-107 -485q-13 -61 -13 -87q0 -38 22 -38q18 0 62.5 27.5t80.5 68.5 q19 0 36 -19.5t23 -37.5q-71 -91 -164.5 -139.5t-199.5 -48.5q-79 0 -103 67q-6 16 -6 49q0 19 17 123zM820 1380l106 -254q14 -32 11 -53q-2 -13 -14 -23t-26 -10q-25 0 -66 41l-217 215l7 23q22 21 66.5 43t92.5 22q24 0 40 -4z" />
<glyph unicode="&#xfa;" horiz-adv-x="1323" d="M883 219l-4 -15l9 46l-4 4q-131 -154 -225 -210t-183 -56q-70 0 -126 42t-56 126t16 151l78 326q31 125 -8 125q-18 0 -62.5 -27.5t-80.5 -68.5q-19 0 -36.5 19.5t-23.5 37.5q70 90 170.5 139t208.5 49q43 0 66 -16.5t35 -50.5q19 -52 -15 -189l-76 -327q-9 -44 -9 -81.5 t19 -62t54 -24.5q18 0 36 6.5t41 26t39.5 35t48 54.5t50 62.5t61.5 79.5l79 319q2 10 8 39t9.5 41t13.5 33t22.5 30t35 17t52.5 8q81 0 108 -13.5t27 -41.5q0 -9 -4.5 -27.5t-11.5 -44.5t-10 -41l-107 -485q-13 -61 -13 -87q0 -38 22 -38q18 0 62.5 27.5t80.5 68.5 q19 0 36 -19.5t23 -37.5q-71 -91 -164.5 -139.5t-199.5 -48.5q-79 0 -103 67q-6 16 -6 49q0 19 17 123zM964 1380q12 4 33 4q76 0 110 -49l14 -47l-277 -221q-42 -33 -82 -33q-12 0 -21.5 10t-7.5 19q4 27 23 49z" />
<glyph unicode="&#xfb;" horiz-adv-x="1323" d="M962 1358q54 -115 176 -275l-56 -39q-66 44 -109 80.5t-86 89.5q-42 -38 -85.5 -69.5t-70.5 -48.5t-85 -52l-46 39q180 176 256 275h106zM883 219l-4 -15l9 46l-4 4q-131 -154 -225 -210t-183 -56q-70 0 -126 42t-56 126t16 151l78 326q31 125 -8 125q-18 0 -62.5 -27.5 t-80.5 -68.5q-19 0 -36.5 19.5t-23.5 37.5q70 90 170.5 139t208.5 49q43 0 66 -16.5t35 -50.5q19 -52 -15 -189l-76 -327q-9 -44 -9 -81.5t19 -62t54 -24.5q18 0 36 6.5t41 26t39.5 35t48 54.5t50 62.5t61.5 79.5l79 319q2 10 8 39t9.5 41t13.5 33t22.5 30t35 17t52.5 8 q81 0 108 -13.5t27 -41.5q0 -9 -4.5 -27.5t-11.5 -44.5t-10 -41l-107 -485q-13 -61 -13 -87q0 -38 22 -38q18 0 62.5 27.5t80.5 68.5q19 0 36 -19.5t23 -37.5q-71 -91 -164.5 -139.5t-199.5 -48.5q-79 0 -103 67q-6 16 -6 49q0 19 17 123z" />
<glyph unicode="&#xfc;" horiz-adv-x="1323" d="M883 219l-4 -15l9 46l-4 4q-131 -154 -225 -210t-183 -56q-70 0 -126 42t-56 126t16 151l78 326q31 125 -8 125q-18 0 -62.5 -27.5t-80.5 -68.5q-19 0 -36.5 19.5t-23.5 37.5q70 90 170.5 139t208.5 49q43 0 66 -16.5t35 -50.5q19 -52 -15 -189l-76 -327q-9 -44 -9 -81.5 t19 -62t54 -24.5q18 0 36 6.5t41 26t39.5 35t48 54.5t50 62.5t61.5 79.5l79 319q2 10 8 39t9.5 41t13.5 33t22.5 30t35 17t52.5 8q81 0 108 -13.5t27 -41.5q0 -9 -4.5 -27.5t-11.5 -44.5t-10 -41l-107 -485q-13 -61 -13 -87q0 -38 22 -38q18 0 62.5 27.5t80.5 68.5 q19 0 36 -19.5t23 -37.5q-71 -91 -164.5 -139.5t-199.5 -48.5q-79 0 -103 67q-6 16 -6 49q0 19 17 123zM896 1174q4 47 36.5 79.5t77.5 32.5q44 0 73 -32.5t25 -79.5q-4 -46 -37.5 -78.5t-76.5 -32.5q-45 0 -73.5 32.5t-24.5 78.5zM538 1174q4 47 37 79.5t77 32.5 q45 0 73.5 -32.5t24.5 -79.5q-4 -46 -36.5 -78.5t-77.5 -32.5q-44 0 -73 32.5t-25 78.5z" />
<glyph unicode="&#xfd;" horiz-adv-x="1052" d="M391 692q-11 16 -20.5 21t-29.5 5q-45 0 -120 -36q-11 11 -22 36t-13 43q73 42 183.5 90t158.5 48q38 0 61.5 -34t45.5 -117q57 -235 78 -570l8 -2l167 279q66 111 66 224q0 19 -27.5 70t-27.5 90q0 30 38 45t79 15q29 0 57 -8t51.5 -31t23.5 -56q0 -75 -23 -144.5 t-81 -163.5l-391 -639q-94 -153 -214.5 -247.5t-213.5 -94.5q-18 0 -39.5 5.5t-45.5 18t-40 37.5t-16 58q0 63 33 104t73 41q14 0 41.5 -13.5t40.5 -27.5q13 -13 42.5 -31t45.5 -18q28 0 73 44t104 140q14 30 -8 211.5t-63.5 371.5t-74.5 236zM898 1380q12 4 34 4 q76 0 110 -49l14 -47l-277 -221q-42 -33 -83 -33q-12 0 -21 10t-7 19q4 27 23 49z" />
<glyph unicode="&#xfe;" horiz-adv-x="1126" d="M473 1153q10 44 10.5 71t-5 44.5t-24.5 25.5t-42.5 10.5t-65.5 2.5q-9 28 10 69q26 4 106.5 19t143 25t90.5 10q34 0 48 -17t14 -51q0 -30 -31 -168q-54 -238 -80 -367q120 72 236 72q147 0 221 -85t74 -222q0 -113 -68.5 -258.5t-181.5 -241.5q-132 -112 -307 -112 q-83 0 -146 67l-80 -356q-7 -20 -2 -35t10 -23.5t18 -14t21.5 -7.5t20.5 -4l39 -6q12 -3 12 -17v-61l-4 -4q-139 4 -219 4l-301 -10l-4 4v59q0 12 20 16l39 7q50 8 75 29t34 63l196 909q-102 -84 -147 -143q-38 0 -58 73q40 50 95 97.5t141 109.5zM915 559q0 236 -102 236 q-36 0 -73.5 -12t-59 -24t-55.5 -34l-131 -571q64 -88 151 -88q63 0 117 57.5t85.5 139.5t49.5 161.5t18 134.5z" />
<glyph unicode="&#xff;" horiz-adv-x="1052" d="M391 692q-11 16 -20.5 21t-29.5 5q-45 0 -120 -36q-11 11 -22 36t-13 43q73 42 183.5 90t158.5 48q38 0 61.5 -34t45.5 -117q57 -235 78 -570l8 -2l167 279q66 111 66 224q0 19 -27.5 70t-27.5 90q0 30 38 45t79 15q29 0 57 -8t51.5 -31t23.5 -56q0 -75 -23 -144.5 t-81 -163.5l-391 -639q-94 -153 -214.5 -247.5t-213.5 -94.5q-18 0 -39.5 5.5t-45.5 18t-40 37.5t-16 58q0 63 33 104t73 41q14 0 41.5 -13.5t40.5 -27.5q13 -13 42.5 -31t45.5 -18q28 0 73 44t104 140q14 30 -8 211.5t-63.5 371.5t-74.5 236zM870 1174q4 47 36.5 79.5 t77.5 32.5q44 0 73 -32.5t25 -79.5q-4 -46 -37.5 -78.5t-76.5 -32.5q-45 0 -73.5 32.5t-24.5 78.5zM512 1174q4 47 37 79.5t77 32.5q45 0 73 -32.5t24 -79.5q-4 -46 -36.5 -78.5t-76.5 -32.5t-73 32.5t-25 78.5z" />
<glyph unicode="&#x100;" horiz-adv-x="1454" d="M649 580h299l-67 485h-13l-264 -459q-9 -15 1.5 -20.5t43.5 -5.5zM356 162q-11 -20 -13.5 -35.5t7 -25.5t19 -16t32 -10t34.5 -5.5t38 -3.5q7 -9 2 -35t-16 -35q-144 4 -260 4q-39 0 -187 -4q-7 9 -1.5 35t16.5 35q39 3 62 7.5t52 18.5t55 42.5t54 74.5l631 1048 q66 0 233 91l178 -1172q2 -15 6 -28t8 -22.5t12 -17.5t12.5 -13.5t16.5 -10t16.5 -6.5t20 -4.5t20 -3l22.5 -2.5t22 -2q7 -9 2 -35t-16 -35q-144 4 -263 4q-187 0 -335 -4q-7 9 -3 35t15 35q12 1 38.5 2t37 2t30 4t27 8t17.5 13t12 21t0 31l-45 334h-373q-35 0 -50 -7 t-26 -28zM1250 1497h-499q-13 0 -18 9.5t-3 21.5q4 20 22 39.5t35 19.5h502q14 0 19.5 -8.5t3.5 -19.5q-4 -20 -23.5 -41t-38.5 -21z" />
<glyph unicode="&#x101;" horiz-adv-x="1142" d="M1040 893q42 0 42 -43q0 -16 -6 -44.5t-17.5 -75t-17.5 -74.5l-87 -402q-14 -56 -14 -87q0 -38 23 -38q18 0 62.5 27.5t80.5 68.5q19 0 36 -19.5t23 -37.5q-71 -91 -164.5 -139.5t-199.5 -48.5q-79 0 -103 67q-6 16 -6 49q0 52 17 123l10 37l-8 4q-90 -133 -180.5 -206.5 t-157.5 -73.5q-107 0 -163 74.5t-56 186.5q0 214 150 405q89 114 207.5 183.5t242.5 69.5q37 0 56 -1.5t39 -5t38 -5.5q15 -3 32 -3q19 0 61 4.5t60 4.5zM746 463q23 58 39.5 136t22.5 127l5 48q-6 39 -70 39t-123 -45.5t-106 -123.5q-48 -80 -76 -176.5t-28 -184.5 q0 -50 22.5 -80t67.5 -30q48 0 107.5 73t138.5 217zM945 1104h-500q-13 0 -18 9.5t-2 21.5q4 20 22 39.5t35 19.5h502q14 0 19.5 -9t3.5 -20q-4 -20 -23.5 -40.5t-38.5 -20.5z" />
<glyph unicode="&#x102;" horiz-adv-x="1454" d="M649 580h299l-67 485h-13l-264 -459q-9 -15 1.5 -20.5t43.5 -5.5zM356 162q-11 -20 -13.5 -35.5t7 -25.5t19 -16t32 -10t34.5 -5.5t38 -3.5q7 -9 2 -35t-16 -35q-144 4 -260 4q-39 0 -187 -4q-7 9 -1.5 35t16.5 35q39 3 62 7.5t52 18.5t55 42.5t54 74.5l631 1048 q66 0 233 91l178 -1172q2 -15 6 -28t8 -22.5t12 -17.5t12.5 -13.5t16.5 -10t16.5 -6.5t20 -4.5t20 -3l22.5 -2.5t22 -2q7 -9 2 -35t-16 -35q-144 4 -263 4q-187 0 -335 -4q-7 9 -3 35t15 35q12 1 38.5 2t37 2t30 4t27 8t17.5 13t12 21t0 31l-45 334h-373q-35 0 -50 -7 t-26 -28zM1314 1700q-24 -107 -117 -181.5t-196 -74.5q-112 0 -181 74t-61 182l58 6q4 -57 61 -84t145 -27q84 0 151.5 27.5t85.5 83.5z" />
<glyph unicode="&#x103;" horiz-adv-x="1142" d="M563 1366q-8 -81 45 -121.5t153 -40.5q40 0 75.5 7.5t71.5 24t61 50t34 80.5l63 -20q-18 -76 -57 -135.5t-86.5 -92.5t-94 -49t-88.5 -16q-122 0 -188.5 82.5t-59.5 210.5zM1040 893q42 0 42 -43q0 -16 -6 -44.5t-17.5 -75t-17.5 -74.5l-87 -402q-14 -56 -14 -87 q0 -38 23 -38q18 0 62.5 27.5t80.5 68.5q19 0 36 -19.5t23 -37.5q-71 -91 -164.5 -139.5t-199.5 -48.5q-79 0 -103 67q-6 16 -6 49q0 52 17 123l10 37l-8 4q-90 -133 -180.5 -206.5t-157.5 -73.5q-107 0 -163 74.5t-56 186.5q0 214 150 405q89 114 207.5 183.5t242.5 69.5 q37 0 56 -1.5t39 -5t38 -5.5q15 -3 32 -3q19 0 61 4.5t60 4.5zM746 463q23 58 39.5 136t22.5 127l5 48q-6 39 -70 39t-123 -45.5t-106 -123.5q-48 -80 -76 -176.5t-28 -184.5q0 -50 22.5 -80t67.5 -30q48 0 107.5 73t138.5 217z" />
<glyph unicode="&#x104;" horiz-adv-x="1454" d="M1413 -367q-38 -54 -99 -83t-124 -29q-53 0 -103 33q-79 52 -79 163q0 73 62.5 153.5t147.5 129.5h-47q-187 0 -335 -4q-7 9 -3 35t15 35q12 1 38.5 2t37 2t30 4t27 8t17.5 13t12 21t0 31l-45 334h-373q-35 0 -50 -7t-26 -28l-160 -284q-11 -20 -13.5 -35.5t7 -25.5 t19 -16t32 -10t34.5 -5.5t38 -3.5q7 -9 2 -35t-16 -35q-144 4 -260 4q-39 0 -187 -4q-7 9 -1.5 35t16.5 35q39 3 62 7.5t52 18.5t55 42.5t54 74.5l631 1048q66 0 233 91l178 -1172q2 -15 6 -28t8 -22.5t12 -17.5t12.5 -13.5t16.5 -10t16.5 -6.5t20 -4.5t20 -3l22.5 -2.5 t22 -2q7 -9 2 -35t-16 -35q-7 0 -24.5 0.5t-26.5 0.5q-75 -8 -131 -88.5t-56 -178.5q0 -46 20.5 -66t51.5 -20q77 0 114 37zM649 580h299l-67 485h-13l-264 -459q-9 -15 1.5 -20.5t43.5 -5.5z" />
<glyph unicode="&#x105;" horiz-adv-x="1142" d="M1040 893q42 0 42 -43q0 -16 -6 -44.5t-17.5 -75t-17.5 -74.5l-87 -402q-14 -56 -14 -87q0 -38 23 -38q18 0 62.5 27.5t80.5 68.5q19 0 36 -19.5t23 -37.5q-80 -102 -188 -151q-76 -71 -115 -141t-39 -163q0 -31 21.5 -48t50.5 -17q78 0 115 37l30 -47 q-38 -54 -99.5 -83.5t-123.5 -29.5q-79 0 -130.5 47t-51.5 129q0 127 189 279h-23q-79 0 -103 67q-6 16 -6 49q0 52 17 123l10 37l-8 4q-90 -133 -180.5 -206.5t-157.5 -73.5q-107 0 -163 74.5t-56 186.5q0 214 150 405q89 114 207.5 183.5t242.5 69.5q37 0 56 -1.5t39 -5 t38 -5.5q15 -3 32 -3q19 0 61 4.5t60 4.5zM746 463q23 58 39.5 136t22.5 127l5 48q-6 39 -70 39t-123 -45.5t-106 -123.5q-48 -80 -76 -176.5t-28 -184.5q0 -50 22.5 -80t67.5 -30q48 0 107.5 73t138.5 217z" />
<glyph unicode="&#x106;" horiz-adv-x="1382" d="M774 -20q-299 0 -444 129q-97 85 -129.5 233.5t-3.5 302.5q32 165 114.5 299.5t197 222t251.5 134.5t282 47q83 0 153 -13t108.5 -29.5t80.5 -32t72 -18.5q-7 -202 -18 -317q-19 -9 -44.5 -12.5t-43.5 2.5q-5 58 -15.5 103t-34.5 90t-60.5 74.5t-96 48t-137.5 18.5 q-114 0 -219.5 -78.5t-180 -210t-104.5 -289.5q-25 -120 -12 -228t50.5 -190.5t104.5 -131t150 -48.5q251 0 477 213q16 0 34 -14.5t23 -28.5q-127 -135 -269 -205.5t-286 -70.5zM1088 1706q36 -18 69 -50t48 -63l-9 -24l-312 -119q-36 -14 -74 -14q-14 0 -25.5 9t-10.5 21 q4 26 26 43q106 82 288 197z" />
<glyph unicode="&#x107;" horiz-adv-x="888" d="M862 178q-72 -85 -180 -141.5t-201 -56.5q-102 0 -166 24.5t-108 81.5q-43 56 -55.5 141t8.5 185q23 110 80.5 205t132.5 158t162 98.5t172 35.5q147 0 215 -62t49 -151q-11 -48 -47.5 -81t-81.5 -33q-46 0 -73.5 27.5t-23.5 68.5q3 35 0.5 67t-21.5 55t-52 23 q-77 0 -141.5 -87t-100.5 -253q-34 -160 15 -254t147 -94q52 0 105 25t122 82q13 0 28 -24.5t15 -39.5zM745 1380q12 4 33 4q76 0 110 -49l14 -47l-277 -221q-42 -33 -82 -33q-12 0 -21.5 10t-7.5 19q4 27 23 49z" />
<glyph unicode="&#x108;" horiz-adv-x="1382" d="M774 -20q-299 0 -444 129q-97 85 -129.5 233.5t-3.5 302.5q32 165 114.5 299.5t197 222t251.5 134.5t282 47q83 0 153 -13t108.5 -29.5t80.5 -32t72 -18.5q-7 -202 -18 -317q-19 -9 -44.5 -12.5t-43.5 2.5q-5 58 -15.5 103t-34.5 90t-60.5 74.5t-96 48t-137.5 18.5 q-114 0 -219.5 -78.5t-180 -210t-104.5 -289.5q-25 -120 -12 -228t50.5 -190.5t104.5 -131t150 -48.5q251 0 477 213q16 0 34 -14.5t23 -28.5q-127 -135 -269 -205.5t-286 -70.5zM1313 1483q-2 -15 -13.5 -30.5t-26.5 -22.5q-173 57 -238 114q-97 -64 -268 -114 q-12 6 -17.5 22.5t-3.5 32.5q141 83 290 213l30 10q47 -55 118 -119.5t129 -105.5z" />
<glyph unicode="&#x109;" horiz-adv-x="888" d="M778 1358q54 -115 176 -275l-57 -39q-66 44 -109 80.5t-86 89.5q-42 -38 -85.5 -69.5t-70.5 -48.5t-85 -52l-45 39q176 172 255 275h107zM862 178q-72 -85 -180 -141.5t-201 -56.5q-102 0 -166 24.5t-108 81.5q-43 56 -55.5 141t8.5 185q23 110 80.5 205t132.5 158 t162 98.5t172 35.5q147 0 215 -62t49 -151q-11 -48 -47.5 -81t-81.5 -33q-46 0 -73.5 27.5t-23.5 68.5q3 35 0.5 67t-21.5 55t-52 23q-77 0 -141.5 -87t-100.5 -253q-34 -160 15 -254t147 -94q52 0 105 25t122 82q13 0 28 -24.5t15 -39.5z" />
<glyph unicode="&#x10a;" horiz-adv-x="1382" d="M891 1579q0 53 37.5 90t89.5 37t89.5 -37t37.5 -90t-37.5 -90t-89.5 -37t-89.5 37t-37.5 90zM774 -20q-299 0 -444 129q-97 85 -129.5 233.5t-3.5 302.5q32 165 114.5 299.5t197 222t251.5 134.5t282 47q83 0 153 -13t108.5 -29.5t80.5 -32t72 -18.5q-7 -202 -18 -317 q-19 -9 -44.5 -12.5t-43.5 2.5q-5 58 -15.5 103t-34.5 90t-60.5 74.5t-96 48t-137.5 18.5q-114 0 -219.5 -78.5t-180 -210t-104.5 -289.5q-25 -120 -12 -228t50.5 -190.5t104.5 -131t150 -48.5q251 0 477 213q16 0 34 -14.5t23 -28.5q-127 -135 -269 -205.5t-286 -70.5z" />
<glyph unicode="&#x10b;" horiz-adv-x="888" d="M862 178q-72 -85 -180 -141.5t-201 -56.5q-102 0 -166 24.5t-108 81.5q-43 56 -55.5 141t8.5 185q23 110 80.5 205t132.5 158t162 98.5t172 35.5q147 0 215 -62t49 -151q-11 -48 -47.5 -81t-81.5 -33q-46 0 -73.5 27.5t-23.5 68.5q3 35 0.5 67t-21.5 55t-52 23 q-77 0 -141.5 -87t-100.5 -253q-34 -160 15 -254t147 -94q52 0 105 25t122 82q13 0 28 -24.5t15 -39.5zM578 1221q0 50 37.5 88.5t105.5 38.5q60 0 96.5 -42.5t36.5 -93.5q0 -45 -40.5 -86t-104.5 -41q-59 0 -95 41t-36 95z" />
<glyph unicode="&#x10c;" horiz-adv-x="1382" d="M774 -20q-299 0 -444 129q-97 85 -129.5 233.5t-3.5 302.5q32 165 114.5 299.5t197 222t251.5 134.5t282 47q83 0 153 -13t108.5 -29.5t80.5 -32t72 -18.5q-7 -202 -18 -317q-19 -9 -44.5 -12.5t-43.5 2.5q-5 58 -15.5 103t-34.5 90t-60.5 74.5t-96 48t-137.5 18.5 q-114 0 -219.5 -78.5t-180 -210t-104.5 -289.5q-25 -120 -12 -228t50.5 -190.5t104.5 -131t150 -48.5q251 0 477 213q16 0 34 -14.5t23 -28.5q-127 -135 -269 -205.5t-286 -70.5zM747 1655q2 15 14 31t27 22q169 -56 237 -115q99 65 269 115q12 -6 17 -22.5t3 -32.5 q-142 -83 -290 -213l-30 -10q-47 55 -118 119.5t-129 105.5z" />
<glyph unicode="&#x10d;" horiz-adv-x="888" d="M862 178q-72 -85 -180 -141.5t-201 -56.5q-102 0 -166 24.5t-108 81.5q-43 56 -55.5 141t8.5 185q23 110 80.5 205t132.5 158t162 98.5t172 35.5q147 0 215 -62t49 -151q-11 -48 -47.5 -81t-81.5 -33q-46 0 -73.5 27.5t-23.5 68.5q3 35 0.5 67t-21.5 55t-52 23 q-77 0 -141.5 -87t-100.5 -253q-34 -160 15 -254t147 -94q52 0 105 25t122 82q13 0 28 -24.5t15 -39.5zM743 1083h-103q-46 95 -171 265l54 36q62 -47 101 -82.5t84 -89.5q54 50 104.5 86t130.5 86l44 -36q-159 -154 -244 -265z" />
<glyph unicode="&#x10e;" horiz-adv-x="1429" d="M547 244q-8 -40 -8 -64q0 -58 37 -78t126 -20q90 0 179 60.5t159 163.5t113.5 252.5t43.5 314.5q0 64 -9.5 116t-33 99t-61 79t-97 51t-136.5 19q-120 0 -151 -154zM362 0l-303 -4q-8 7 -8 23q0 34 23 47q39 2 60 5t46.5 13.5t40 29.5t28 52.5t23.5 83.5l160 821 q10 55 10 82q0 62 -31.5 80t-107.5 22q-8 7 -8 23q0 34 22 47q226 -4 304 -4q36 0 122.5 1t141.5 1q151 0 267.5 -40t189 -112t109 -167t36.5 -211q0 -195 -79.5 -368.5t-186.5 -256.5q-115 -89 -257 -130.5t-284 -41.5q-39 0 -159 2t-159 2zM702 1655q2 15 14 31t27 22 q169 -56 237 -115q100 66 268 115q12 -6 17.5 -22.5t3.5 -32.5q-142 -83 -290 -213l-30 -10q-47 55 -118 119.5t-129 105.5z" />
<glyph unicode="&#x10f;" horiz-adv-x="1204" d="M911 1153q10 43 11 70.5t-4.5 44.5t-25 25.5t-43 11t-65.5 2.5q-9 27 11 69q26 4 106.5 19t143 25t90.5 10q34 0 47.5 -17t13.5 -51q0 -19 -4 -42t-13.5 -66t-13.5 -60l-207 -934q-13 -61 -13 -88q0 -37 22 -37q18 0 62.5 27.5t80.5 68.5q19 0 36 -19.5t23 -37.5 q-80 -89 -179 -141.5t-202 -52.5t-103 116q0 57 19 144l-4 2q-95 -138 -172 -200t-163 -62q-127 0 -186.5 76t-59.5 198q0 144 69.5 293.5t196.5 249.5q69 55 134 78.5t147 23.5q56 0 98.5 -32t62.5 -81h1zM1425 1430q56 0 80 -45.5t12 -104.5q-14 -67 -83.5 -136.5 t-169.5 -80.5l-3 35q62 12 105.5 56t52.5 85q4 20 -2 31.5t-18 11.5q-96 0 -79 78q6 27 34 48.5t71 21.5zM783 577q6 26 8 37zM773 541l21 96q0 1 0.5 5t0.5 5q0 59 -34 108.5t-89 49.5q-84 0 -156 -80t-110.5 -193.5t-38.5 -224.5q0 -192 84 -192q58 0 119 69t139 213 q40 71 64 144z" />
<glyph unicode="&#x110;" horiz-adv-x="1429" d="M547 244q-8 -40 -8 -64q0 -58 37 -78t126 -20q90 0 179 60.5t159 163.5t113.5 252.5t43.5 314.5q0 64 -9.5 116t-33 99t-61 79t-97 51t-136.5 19q-120 0 -151 -154l-80 -413h190l-16 -82h-190zM362 0l-303 -4q-8 7 -8 23q0 34 23 47q39 2 60 5t46.5 13.5t40 29.5t28 52.5 t23.5 83.5l66 338h-178l16 82h178l78 401q10 55 10 82q0 62 -31.5 80t-107.5 22q-8 7 -8 23q0 34 22 47q226 -4 304 -4q36 0 122.5 1t141.5 1q151 0 267.5 -40t189 -112t109 -167t36.5 -211q0 -195 -79.5 -368.5t-186.5 -256.5q-115 -89 -257 -130.5t-284 -41.5 q-39 0 -159 2t-159 2z" />
<glyph unicode="&#x111;" horiz-adv-x="1148" d="M1300 1171l-18 -79h-139l-185 -832q-13 -61 -13 -88q0 -37 22 -37q18 0 62.5 27.5t80.5 68.5q19 0 36 -19.5t23 -37.5q-80 -89 -179 -141.5t-202 -52.5t-103 116q0 57 19 144l-4 2q-95 -138 -172 -200t-163 -62q-127 0 -186.5 76t-59.5 198q0 144 69.5 293.5t196.5 249.5 q69 55 134 78.5t147 23.5q56 0 98.5 -32t62.5 -81h1l69 306h-176l18 79h176q7 31 8.5 53t-4 37.5t-14.5 24t-28 13.5t-39.5 6.5t-53.5 1.5q-9 27 11 69q26 4 106.5 19t143 25t90.5 10q34 0 47.5 -17t13.5 -51q0 -19 -4 -42t-13.5 -66t-13.5 -60l-5 -23h140zM783 577 q6 26 8 37zM773 541l21 96q0 1 0.5 5t0.5 5q0 59 -34 108.5t-89 49.5q-84 0 -156 -80t-110.5 -193.5t-38.5 -224.5q0 -192 84 -192q58 0 119 69t139 213q40 71 64 144z" />
<glyph unicode="&#x112;" horiz-adv-x="1183" d="M772 752q103 0 142.5 22.5t60.5 104.5q11 9 44 9t40 -9q-12 -54 -37 -177q-18 -90 -33 -180q-11 -9 -44 -9t-40 9q9 71 -22.5 99t-130.5 28h-160l-90 -465q-7 -41 11 -69.5t50 -28.5h199q107 0 190 71.5t138 190.5q20 5 46.5 2t39.5 -12q-4 -12 -47.5 -146.5 t-71.5 -195.5q-177 4 -271 4h-462q-210 -2 -306 -4q-7 9 -1.5 35t16.5 35q40 2 61.5 4t46 8.5t36.5 17.5t25 32t21.5 49.5t16.5 72.5l157 819q9 44 12 72.5t-2 50t-12.5 32.5t-28.5 18t-42 9t-60 4q-7 9 -3 35t15 35l304 -4h579q51 0 98 8q7 0 7 -6t-7.5 -62t-16 -127.5 t-11.5 -107.5q-36 -18 -86 -10q-13 118 -49.5 168.5t-139.5 50.5h-168q-34 0 -63 -30.5t-37 -69.5l-74 -383h160zM1064 1501h-500q-13 0 -18 9.5t-2 21.5q4 20 22 39.5t35 19.5h502q14 0 19.5 -8.5t3.5 -19.5q-4 -20 -23.5 -41t-38.5 -21z" />
<glyph unicode="&#x113;" horiz-adv-x="837" d="M702 758q0 57 -65 57q-34 0 -60.5 -11.5t-56 -44t-57.5 -101t-53 -172.5q36 6 72.5 17.5t77 33.5t71.5 51t51 73t20 97zM395 408q-2 -16 -2 -70q0 -236 109 -236q74 0 132.5 31.5t145.5 120.5q18 0 38 -16.5t28 -34.5q-87 -112 -198 -167.5t-220 -55.5q-72 0 -125.5 16 t-86 43t-52.5 68t-27.5 84.5t-7.5 99.5q0 81 19 163t62.5 163t106 143t158 100.5t209.5 38.5q118 0 184 -42.5t66 -100.5q0 -104 -64 -166q-105 -102 -475 -182zM912 1102h-499q-13 0 -18 9.5t-3 21.5q4 20 22 39.5t35 19.5h502q14 0 19.5 -9t3.5 -20q-4 -20 -23.5 -40.5 t-38.5 -20.5z" />
<glyph unicode="&#x114;" horiz-adv-x="1183" d="M772 752q103 0 142.5 22.5t60.5 104.5q11 9 44 9t40 -9q-12 -54 -37 -177q-18 -90 -33 -180q-11 -9 -44 -9t-40 9q9 71 -22.5 99t-130.5 28h-160l-90 -465q-7 -41 11 -69.5t50 -28.5h199q107 0 190 71.5t138 190.5q20 5 46.5 2t39.5 -12q-4 -12 -47.5 -146.5 t-71.5 -195.5q-177 4 -271 4h-462q-210 -2 -306 -4q-7 9 -1.5 35t16.5 35q40 2 61.5 4t46 8.5t36.5 17.5t25 32t21.5 49.5t16.5 72.5l157 819q9 44 12 72.5t-2 50t-12.5 32.5t-28.5 18t-42 9t-60 4q-7 9 -3 35t15 35l304 -4h579q51 0 98 8q7 0 7 -6t-7.5 -62t-16 -127.5 t-11.5 -107.5q-36 -18 -86 -10q-13 118 -49.5 168.5t-139.5 50.5h-168q-34 0 -63 -30.5t-37 -69.5l-74 -383h160zM1195 1700q-24 -107 -116.5 -181.5t-195.5 -74.5q-112 0 -181.5 74t-61.5 182l58 6q4 -57 61 -84t145 -27q84 0 151.5 27.5t85.5 83.5z" />
<glyph unicode="&#x115;" horiz-adv-x="837" d="M481 1366q-8 -81 45 -121.5t153 -40.5q40 0 75.5 7.5t71.5 24t61 50t34 80.5l63 -20q-18 -76 -57 -135.5t-86.5 -92.5t-94 -49t-88.5 -16q-122 0 -188.5 82.5t-59.5 210.5zM702 758q0 57 -65 57q-34 0 -60.5 -11.5t-56 -44t-57.5 -101t-53 -172.5q36 6 72.5 17.5t77 33.5 t71.5 51t51 73t20 97zM395 408q-2 -16 -2 -70q0 -236 109 -236q74 0 132.5 31.5t145.5 120.5q18 0 38 -16.5t28 -34.5q-87 -112 -198 -167.5t-220 -55.5q-72 0 -125.5 16t-86 43t-52.5 68t-27.5 84.5t-7.5 99.5q0 81 19 163t62.5 163t106 143t158 100.5t209.5 38.5 q118 0 184 -42.5t66 -100.5q0 -104 -64 -166q-105 -102 -475 -182z" />
<glyph unicode="&#x116;" horiz-adv-x="1183" d="M748 1579q0 53 37 90t89 37t89.5 -37t37.5 -90t-37.5 -90t-89.5 -37t-89 37t-37 90zM772 752q103 0 142.5 22.5t60.5 104.5q11 9 44 9t40 -9q-12 -54 -37 -177q-18 -90 -33 -180q-11 -9 -44 -9t-40 9q9 71 -22.5 99t-130.5 28h-160l-90 -465q-7 -41 11 -69.5t50 -28.5 h199q107 0 190 71.5t138 190.5q20 5 46.5 2t39.5 -12q-4 -12 -47.5 -146.5t-71.5 -195.5q-177 4 -271 4h-462q-210 -2 -306 -4q-7 9 -1.5 35t16.5 35q40 2 61.5 4t46 8.5t36.5 17.5t25 32t21.5 49.5t16.5 72.5l157 819q9 44 12 72.5t-2 50t-12.5 32.5t-28.5 18t-42 9t-60 4 q-7 9 -3 35t15 35l304 -4h579q51 0 98 8q7 0 7 -6t-7.5 -62t-16 -127.5t-11.5 -107.5q-36 -18 -86 -10q-13 118 -49.5 168.5t-139.5 50.5h-168q-34 0 -63 -30.5t-37 -69.5l-74 -383h160z" />
<glyph unicode="&#x117;" horiz-adv-x="837" d="M565 1221q0 50 38 88.5t106 38.5q60 0 96.5 -42.5t36.5 -93.5q0 -45 -41 -86t-105 -41q-59 0 -95 41t-36 95zM702 758q0 57 -65 57q-34 0 -60.5 -11.5t-56 -44t-57.5 -101t-53 -172.5q36 6 72.5 17.5t77 33.5t71.5 51t51 73t20 97zM395 408q-2 -16 -2 -70 q0 -236 109 -236q74 0 132.5 31.5t145.5 120.5q18 0 38 -16.5t28 -34.5q-87 -112 -198 -167.5t-220 -55.5q-72 0 -125.5 16t-86 43t-52.5 68t-27.5 84.5t-7.5 99.5q0 81 19 163t62.5 163t106 143t158 100.5t209.5 38.5q118 0 184 -42.5t66 -100.5q0 -104 -64 -166 q-105 -102 -475 -182z" />
<glyph unicode="&#x118;" horiz-adv-x="1183" d="M1051 -367q-38 -53 -99.5 -82.5t-124.5 -29.5q-52 0 -102 33q-80 53 -80 163q0 73 62.5 153.5t147.5 129.5h-69h-462q-210 -2 -306 -4q-7 9 -1.5 35t16.5 35q40 2 61.5 4t46 8.5t36.5 17.5t25 32t21.5 49.5t16.5 72.5l157 819q9 44 12 72.5t-2 50t-12.5 32.5t-28.5 18 t-42 9t-60 4q-7 9 -3 35t15 35l304 -4h579q51 0 98 8q7 0 7 -6t-7.5 -62t-16 -127.5t-11.5 -107.5q-36 -18 -86 -10q-13 118 -49.5 168.5t-139.5 50.5h-168q-34 0 -63 -30.5t-37 -69.5l-74 -383h160q103 0 142.5 22.5t60.5 104.5q11 9 44 9t40 -9q-12 -54 -37 -177 q-18 -90 -33 -180q-11 -9 -44 -9t-40 9q9 71 -22.5 99t-130.5 28h-160l-90 -465q-7 -41 11 -69.5t50 -28.5h199q107 0 190 71.5t138 190.5q20 5 46.5 2t39.5 -12q-4 -12 -47.5 -146.5t-71.5 -195.5q-16 1 -40 1q-75 -10 -129 -90t-54 -177q0 -46 20 -66t51 -20q78 0 115 37z " />
<glyph unicode="&#x119;" horiz-adv-x="837" d="M730 -330q-38 -54 -99 -83t-124 -29q-79 0 -130.5 47t-51.5 129q0 114 152 248q-16 -2 -49 -2q-72 0 -125.5 16t-86 43t-52.5 68t-27.5 84.5t-7.5 99.5q0 81 19 163t62.5 163t106 143t158 100.5t209.5 38.5q118 0 184 -42.5t66 -100.5q0 -104 -64 -166 q-105 -102 -475 -182q-2 -16 -2 -70q0 -236 109 -236q74 0 132.5 31.5t145.5 120.5q18 0 38 -16.5t28 -34.5q-84 -108 -190 -164q-71 -68 -107 -135.5t-36 -157.5q0 -30 21.5 -47.5t50.5 -17.5q78 0 114 36zM702 758q0 57 -65 57q-34 0 -60.5 -11.5t-56 -44t-57.5 -101 t-53 -172.5q36 6 72.5 17.5t77 33.5t71.5 51t51 73t20 97z" />
<glyph unicode="&#x11a;" horiz-adv-x="1183" d="M772 752q103 0 142.5 22.5t60.5 104.5q11 9 44 9t40 -9q-12 -54 -37 -177q-18 -90 -33 -180q-11 -9 -44 -9t-40 9q9 71 -22.5 99t-130.5 28h-160l-90 -465q-7 -41 11 -69.5t50 -28.5h199q107 0 190 71.5t138 190.5q20 5 46.5 2t39.5 -12q-4 -12 -47.5 -146.5 t-71.5 -195.5q-177 4 -271 4h-462q-210 -2 -306 -4q-7 9 -1.5 35t16.5 35q40 2 61.5 4t46 8.5t36.5 17.5t25 32t21.5 49.5t16.5 72.5l157 819q9 44 12 72.5t-2 50t-12.5 32.5t-28.5 18t-42 9t-60 4q-7 9 -3 35t15 35l304 -4h579q51 0 98 8q7 0 7 -6t-7.5 -62t-16 -127.5 t-11.5 -107.5q-36 -18 -86 -10q-13 118 -49.5 168.5t-139.5 50.5h-168q-34 0 -63 -30.5t-37 -69.5l-74 -383h160zM594 1655q2 16 13.5 31.5t26.5 21.5q67 -22 135.5 -53.5t102.5 -61.5q100 66 268 115q12 -6 17.5 -22.5t3.5 -32.5q-142 -83 -290 -213l-31 -10 q-47 56 -118 120t-128 105z" />
<glyph unicode="&#x11b;" horiz-adv-x="837" d="M722 1083h-102q-44 90 -172 265l54 36q62 -47 101 -82.5t84 -89.5q54 50 104.5 86t130.5 86l44 -36q-159 -154 -244 -265zM702 758q0 57 -65 57q-34 0 -60.5 -11.5t-56 -44t-57.5 -101t-53 -172.5q36 6 72.5 17.5t77 33.5t71.5 51t51 73t20 97zM395 408q-2 -16 -2 -70 q0 -236 109 -236q74 0 132.5 31.5t145.5 120.5q18 0 38 -16.5t28 -34.5q-87 -112 -198 -167.5t-220 -55.5q-72 0 -125.5 16t-86 43t-52.5 68t-27.5 84.5t-7.5 99.5q0 81 19 163t62.5 163t106 143t158 100.5t209.5 38.5q118 0 184 -42.5t66 -100.5q0 -104 -64 -166 q-105 -102 -475 -182z" />
<glyph unicode="&#x11c;" horiz-adv-x="1480" d="M1061 1348q103 0 196 -18t162 -36t115 -18q-21 -220 -21 -336l-90 -12q-6 70 -31 127.5t-71 105t-124 74.5t-181 27q-79 0 -166.5 -37.5t-159.5 -114.5q-144 -153 -201 -440q-14 -70 -16 -139t7.5 -137.5t37 -127t70 -103.5t109 -71t151.5 -26q79 0 130.5 18t111.5 68 l59 305q11 57 -20 74t-121 24q-7 9 -2 38t16 38q184 -4 301 -4q118 0 236 4q7 -9 1.5 -38t-16.5 -38q-47 -5 -73.5 -26t-36.5 -72l-45 -240q-6 -33 18 -57q-116 -83 -283 -131.5t-340 -48.5q-327 0 -479 155q-87 87 -118 220t-3 274q31 160 120.5 296t217.5 232 q123 93 265 142t274 49zM1348 1483q-2 -15 -14 -30.5t-27 -22.5q-171 56 -237 114q-97 -64 -268 -114q-12 6 -17.5 22.5t-3.5 32.5q141 83 290 213l30 10q47 -55 118 -119.5t129 -105.5z" />
<glyph unicode="&#x11d;" horiz-adv-x="1017" d="M766 1358q54 -115 176 -275l-57 -39q-66 44 -109 80.5t-86 89.5q-42 -38 -85.5 -69.5t-70.5 -48.5t-85 -52l-46 39q180 176 256 275h107zM350 -27q-75 -55 -103 -85q-54 -59 -54 -119q0 -179 319 -179q50 0 88.5 10t60.5 25t36 36t19 40t5 39q0 45 -20 68t-103 61 q-210 96 -248 104zM911 596q0 -98 -51.5 -174t-130.5 -114t-170 -38q-81 0 -139 35q-28 -54 -6 -125q10 -32 74.5 -61.5t197.5 -69.5q98 -29 174 -96t76 -158q0 -98 -70 -163t-180.5 -92t-257.5 -27q-70 0 -139 9.5t-139 31.5t-113 65t-43 102q0 33 18.5 66t46.5 59.5 t67 53.5t72.5 46t71.5 39q14 7 21 11q-74 27 -74 119q0 132 131 223q-55 33 -85 101t-30 141q0 130 98.5 224.5t262.5 94.5q74 0 141 -19.5t99 -56.5q98 90 204 90q42 0 68.5 -25t26.5 -59q0 -35 -21.5 -58t-54.5 -23q-44 0 -69 42q-14 24 -36 24q-16 0 -78 -58 q37 -52 37 -160zM678 596q0 49 -1 77t-6 60t-14.5 47.5t-27 26t-43.5 10.5q-20 0 -36 -3t-28 -7t-21 -14t-15 -17.5t-10 -23.5t-6 -26t-3 -32t-1 -34.5t0.5 -39.5t0.5 -42q0 -13 -1 -42.5t-0.5 -45.5t2.5 -41.5t8.5 -39.5t17.5 -29t30 -21.5t45 -6.5q18 0 33 4t25.5 9t19 16 t14 20t9 26t5.5 28t2.5 33t1 33.5t0 37t-0.5 37.5z" />
<glyph unicode="&#x11e;" horiz-adv-x="1480" d="M1061 1348q103 0 196 -18t162 -36t115 -18q-21 -220 -21 -336l-90 -12q-6 70 -31 127.5t-71 105t-124 74.5t-181 27q-79 0 -166.5 -37.5t-159.5 -114.5q-144 -153 -201 -440q-14 -70 -16 -139t7.5 -137.5t37 -127t70 -103.5t109 -71t151.5 -26q79 0 130.5 18t111.5 68 l59 305q11 57 -20 74t-121 24q-7 9 -2 38t16 38q184 -4 301 -4q118 0 236 4q7 -9 1.5 -38t-16.5 -38q-47 -5 -73.5 -26t-36.5 -72l-45 -240q-6 -33 18 -57q-116 -83 -283 -131.5t-340 -48.5q-327 0 -479 155q-87 87 -118 220t-3 274q31 160 120.5 296t217.5 232 q123 93 265 142t274 49zM1343 1700q-24 -107 -117 -181.5t-196 -74.5q-112 0 -181 74t-61 182l58 6q4 -57 60.5 -84t144.5 -27q84 0 151.5 27.5t85.5 83.5z" />
<glyph unicode="&#x11f;" horiz-adv-x="1017" d="M522 1366q-8 -81 45 -121.5t153 -40.5q40 0 75.5 7.5t71.5 24t61 50t34 80.5l63 -20q-18 -76 -57 -135.5t-86.5 -92.5t-94 -49t-88.5 -16q-122 0 -188.5 82.5t-59.5 210.5zM350 -27q-75 -55 -103 -85q-54 -59 -54 -119q0 -179 319 -179q50 0 88.5 10t60.5 25t36 36t19 40 t5 39q0 45 -20 68t-103 61q-210 96 -248 104zM911 596q0 -98 -51.5 -174t-130.5 -114t-170 -38q-81 0 -139 35q-28 -54 -6 -125q10 -32 74.5 -61.5t197.5 -69.5q98 -29 174 -96t76 -158q0 -98 -70 -163t-180.5 -92t-257.5 -27q-70 0 -139 9.5t-139 31.5t-113 65t-43 102 q0 33 18.5 66t46.5 59.5t67 53.5t72.5 46t71.5 39q14 7 21 11q-74 27 -74 119q0 132 131 223q-55 33 -85 101t-30 141q0 130 98.5 224.5t262.5 94.5q74 0 141 -19.5t99 -56.5q98 90 204 90q42 0 68.5 -25t26.5 -59q0 -35 -21.5 -58t-54.5 -23q-44 0 -69 42q-14 24 -37 24 q-15 0 -68 -50q-6 -5 -9 -8q37 -52 37 -160zM678 596q0 49 -1 77t-6 60t-14.5 47.5t-27 26t-43.5 10.5q-20 0 -36 -3t-28 -7t-21 -14t-15 -17.5t-10 -23.5t-6 -26t-3 -32t-1 -34.5t0.5 -39.5t0.5 -42q0 -13 -1 -42.5t-0.5 -45.5t2.5 -41.5t8.5 -39.5t17.5 -29t30 -21.5 t45 -6.5q18 0 33 4t25.5 9t19 16t14 20t9 26t5.5 28t2.5 33t1 33.5t0 37t-0.5 37.5z" />
<glyph unicode="&#x120;" horiz-adv-x="1480" d="M932 1579q0 53 37 90t90 37t90 -37t37 -90t-37 -90t-90 -37t-90 37t-37 90zM1061 1348q103 0 196 -18t162 -36t115 -18q-21 -220 -21 -336l-90 -12q-6 70 -31 127.5t-71 105t-124 74.5t-181 27q-79 0 -166.5 -37.5t-159.5 -114.5q-144 -153 -201 -440q-14 -70 -16 -139 t7.5 -137.5t37 -127t70 -103.5t109 -71t151.5 -26q79 0 130.5 18t111.5 68l59 305q11 57 -20 74t-121 24q-7 9 -2 38t16 38q184 -4 301 -4q118 0 236 4q7 -9 1.5 -38t-16.5 -38q-47 -5 -73.5 -26t-36.5 -72l-45 -240q-6 -33 18 -57q-116 -83 -283 -131.5t-340 -48.5 q-327 0 -479 155q-87 87 -118 220t-3 274q31 160 120.5 296t217.5 232q123 93 265 142t274 49z" />
<glyph unicode="&#x121;" horiz-adv-x="1017" d="M350 -27q-75 -55 -103 -85q-54 -59 -54 -119q0 -179 319 -179q50 0 88.5 10t60.5 25t36 36t19 40t5 39q0 45 -20 68t-103 61q-210 96 -248 104zM911 596q0 -98 -51.5 -174t-130.5 -114t-170 -38q-81 0 -139 35q-28 -54 -6 -125q10 -32 74.5 -61.5t197.5 -69.5 q98 -29 174 -96t76 -158q0 -98 -70 -163t-180.5 -92t-257.5 -27q-70 0 -139 9.5t-139 31.5t-113 65t-43 102q0 33 18.5 66t46.5 59.5t67 53.5t72.5 46t71.5 39q14 7 21 11q-74 27 -74 119q0 132 131 223q-55 33 -85 101t-30 141q0 130 98.5 224.5t262.5 94.5q74 0 141 -19.5 t99 -56.5q98 90 204 90q42 0 68.5 -25t26.5 -59q0 -35 -21.5 -58t-54.5 -23q-44 0 -69 42q-14 24 -36 24q-16 0 -78 -58q37 -52 37 -160zM678 596q0 49 -1 77t-6 60t-14.5 47.5t-27 26t-43.5 10.5q-20 0 -36 -3t-28 -7t-21 -14t-15 -17.5t-10 -23.5t-6 -26t-3 -32t-1 -34.5 t0.5 -39.5t0.5 -42q0 -13 -1 -42.5t-0.5 -45.5t2.5 -41.5t8.5 -39.5t17.5 -29t30 -21.5t45 -6.5q18 0 33 4t25.5 9t19 16t14 20t9 26t5.5 28t2.5 33t1 33.5t0 37t-0.5 37.5zM532 1221q0 50 38 88.5t106 38.5q60 0 96.5 -42.5t36.5 -93.5q0 -45 -40.5 -86t-104.5 -41 q-59 0 -95.5 41t-36.5 95z" />
<glyph unicode="&#x122;" horiz-adv-x="1480" d="M1061 1348q103 0 196 -18t162 -36t115 -18q-21 -220 -21 -336l-90 -12q-6 70 -31 127.5t-71 105t-124 74.5t-181 27q-79 0 -166.5 -37.5t-159.5 -114.5q-144 -153 -201 -440q-14 -70 -16 -139t7.5 -137.5t37 -127t70 -103.5t109 -71t151.5 -26q79 0 130.5 18t111.5 68 l59 305q11 57 -20 74t-121 24q-7 9 -2 38t16 38q184 -4 301 -4q118 0 236 4q7 -9 1.5 -38t-16.5 -38q-47 -5 -73.5 -26t-36.5 -72l-45 -240q-6 -33 18 -57q-116 -83 -283 -131.5t-340 -48.5q-327 0 -479 155q-87 87 -118 220t-3 274q31 160 120.5 296t217.5 232 q123 93 265 142t274 49zM787 -147q27 0 50 -7.5t43.5 -24t29 -49.5t2.5 -79q-12 -85 -89 -144.5t-188 -78.5q-25 16 -5 57q62 17 103.5 48t45.5 60q1 10 -1.5 17.5t-6 12t-11 8.5t-12 5t-13 3t-9.5 2q-66 15 -55 92q4 26 42.5 52t73.5 26z" />
<glyph unicode="&#x123;" horiz-adv-x="1017" d="M350 -27q-75 -55 -103 -85q-54 -59 -54 -119q0 -179 319 -179q50 0 88.5 10t60.5 25t36 36t19 40t5 39q0 45 -20 68t-103 61q-210 96 -248 104zM911 596q0 -98 -51.5 -174t-130.5 -114t-170 -38q-81 0 -139 35q-28 -54 -6 -125q10 -32 74.5 -61.5t197.5 -69.5 q98 -29 174 -96t76 -158q0 -98 -70 -163t-180.5 -92t-257.5 -27q-70 0 -139 9.5t-139 31.5t-113 65t-43 102q0 33 18.5 66t46.5 59.5t67 53.5t72.5 46t71.5 39q14 7 21 11q-74 27 -74 119q0 132 131 223q-55 33 -85 101t-30 141q0 130 98.5 224.5t262.5 94.5q74 0 141 -19.5 t99 -56.5q98 90 204 90q42 0 68.5 -25t26.5 -59q0 -35 -21.5 -58t-54.5 -23q-44 0 -69 42q-14 24 -36 24q-16 0 -78 -58q37 -52 37 -160zM678 596q0 49 -1 77t-6 60t-14.5 47.5t-27 26t-43.5 10.5q-20 0 -36 -3t-28 -7t-21 -14t-15 -17.5t-10 -23.5t-6 -26t-3 -32t-1 -34.5 t0.5 -39.5t0.5 -42q0 -13 -1 -42.5t-0.5 -45.5t2.5 -41.5t8.5 -39.5t17.5 -29t30 -21.5t45 -6.5q18 0 33 4t25.5 9t19 16t14 20t9 26t5.5 28t2.5 33t1 33.5t0 37t-0.5 37.5zM633 1047q-57 0 -82.5 45t-13.5 104q16 77 74 135q74 74 188 88q9 -10 2 -41q-84 -17 -130.5 -56.5 t-55.5 -80.5q-2 -10 -2 -16t1 -9t6.5 -3.5t10.5 -0.5t16.5 1t21.5 1q55 0 74 -25.5t12 -58.5q-6 -29 -39.5 -56t-82.5 -27z" />
<glyph unicode="&#x124;" horiz-adv-x="1505" d="M1315 1483q-2 -15 -13.5 -30.5t-26.5 -22.5q-173 57 -238 114q-97 -64 -268 -114q-12 6 -17.5 22.5t-3.5 32.5q141 83 290 213l30 10q47 -55 118 -119.5t129 -105.5zM1219 1071q8 42 9.5 72t-5.5 50t-16 31.5t-30 18t-38 8.5t-49 4q-12 9 -7.5 35t21.5 35q156 -4 303 -4 q139 0 299 4q12 -9 7.5 -35t-21.5 -35q-39 -2 -60 -5t-47 -13.5t-40 -29.5t-28 -52.5t-24 -83.5l-160 -821q-8 -42 -10 -72t5 -50t15.5 -31.5t29.5 -18t38 -8.5t49 -4q12 -9 8.5 -35t-20.5 -35q-156 4 -299 4t-303 -4q-12 9 -7.5 35t21.5 35q39 2 60 5t47 13.5t40 29.5 t28 52.5t24 83.5l78 403h-512l-78 -403q-8 -42 -10 -72t5 -50t15.5 -31.5t29.5 -18t38 -8.5t49 -4q12 -9 8.5 -35t-20.5 -35q-156 4 -300 4q-143 0 -303 -4q-12 9 -7 35t22 35q39 2 60 5t46.5 13.5t40 29.5t28 52.5t23.5 83.5l160 821q8 42 9.5 72t-5.5 50t-16 31.5t-30 18 t-38 8.5t-49 4q-12 9 -7.5 35t21.5 35q156 -4 304 -4q139 0 299 4q12 -9 7 -35t-22 -35q-39 -2 -60 -5t-46.5 -13.5t-40 -29.5t-28 -52.5t-23.5 -83.5l-62 -319h512z" />
<glyph unicode="&#x125;" horiz-adv-x="1269" d="M463 147q-2 -10 -6 -29.5t-6 -30.5t-7.5 -27.5t-11 -26t-15.5 -21t-22.5 -18t-31 -10.5t-41.5 -4q-81 0 -108 13.5t-27 41.5q0 9 4 25t11 42.5t11 44.5l225 1006q8 36 11 60.5t-1.5 42.5t-13 27.5t-27.5 15t-40 7t-56 1.5q-9 27 11 69q26 4 106.5 19t143 25t90.5 10 q34 0 47.5 -17t13.5 -51q0 -19 -4 -42t-13.5 -66t-13.5 -60l-119 -543q124 142 224.5 195t191.5 53q71 0 126.5 -40t55.5 -124q0 -46 -26 -155l-78 -326q-31 -125 8 -125q18 0 63 27.5t81 68.5q19 0 36 -19.5t23 -37.5q-70 -90 -170.5 -139t-208.5 -49q-43 0 -65.5 16.5 t-34.5 50.5q-19 54 14 189l76 327q18 79 18 119q0 44 -17.5 59t-53.5 15q-50 0 -123 -71.5t-179 -209.5zM1282 1483q-2 -15 -13.5 -30.5t-26.5 -22.5q-173 57 -238 114q-97 -64 -268 -114q-12 6 -17.5 22.5t-3.5 32.5q141 83 290 213l30 10q47 -55 118 -119.5t129 -105.5z " />
<glyph unicode="&#x126;" horiz-adv-x="1505" d="M1206 1008h-512l-49 -256h512zM708 1077h512q7 41 8.5 70t-6 48t-16.5 30.5t-29.5 17.5t-37.5 8t-49 4q-12 9 -7.5 35t21.5 35q156 -4 303 -4q139 0 299 4q12 -9 7.5 -35t-21.5 -35q-39 -2 -59.5 -5t-46 -13t-40 -28.5t-28.5 -51t-24 -80.5h108l-15 -69h-106l-148 -758 q-8 -42 -10 -72t5 -50t15.5 -31.5t29.5 -18t38 -8.5t49 -4q12 -9 8.5 -35t-20.5 -35q-156 4 -299 4t-303 -4q-12 9 -7.5 35t21.5 35q39 2 60 5t47 13.5t40 29.5t28 52.5t24 83.5l78 403h-512l-78 -403q-8 -42 -10 -72t5 -50t15.5 -31.5t29.5 -18t38 -8.5t49 -4 q12 -9 8.5 -35t-20.5 -35q-156 4 -300 4q-143 0 -303 -4q-12 9 -7 35t22 35q39 2 60 5t46.5 13.5t40 29.5t28 52.5t23.5 83.5l148 758h-123l14 69h122q7 41 8.5 70t-6 48t-16.5 30.5t-29.5 17.5t-37.5 8t-49 4q-12 9 -7.5 35t21.5 35q156 -4 304 -4q139 0 299 4q12 -9 7 -35 t-22 -35q-39 -2 -59.5 -5t-46 -13t-39.5 -28.5t-28 -51t-24 -80.5z" />
<glyph unicode="&#x127;" horiz-adv-x="1269" d="M463 147q-2 -10 -6 -29.5t-6 -30.5t-7.5 -27.5t-11 -26t-15.5 -21t-22.5 -18t-31 -10.5t-41.5 -4q-81 0 -108 13.5t-27 41.5q0 9 4 25t11 42.5t11 44.5l210 938h-130l18 80h130q7 33 8.5 55.5t-3.5 39t-13.5 25.5t-27.5 14t-39.5 6.5t-54.5 1.5q-9 27 11 69 q26 4 106.5 19t143 25t90.5 10q34 0 47.5 -17t13.5 -51q0 -19 -4 -42t-13.5 -66t-13.5 -60l-6 -29h225l-18 -80h-225l-95 -434q124 142 224.5 195t191.5 53q71 0 126.5 -40t55.5 -124q0 -46 -26 -155l-78 -326q-31 -125 8 -125q18 0 63 27.5t81 68.5q19 0 36 -19.5t23 -37.5 q-70 -90 -170.5 -139t-208.5 -49q-43 0 -65.5 16.5t-34.5 50.5q-19 54 14 189l76 327q18 79 18 119q0 44 -17.5 59t-53.5 15q-50 0 -123 -71.5t-179 -209.5z" />
<glyph unicode="&#x128;" horiz-adv-x="718" d="M805 1571q67 0 113 88q23 0 38 -11.5t13 -29.5q-38 -88 -96.5 -139.5t-116.5 -51.5q-76 0 -127 43q-48 35 -114 35q-20 0 -32.5 -2t-27.5 -9.5t-27.5 -25t-24.5 -45.5q-53 0 -48 37q38 82 91.5 136.5t105.5 54.5q87 0 144 -52q32 -28 109 -28zM432 1071q8 42 9.5 72 t-5.5 50t-16 31.5t-30 18t-38 8.5t-49 4q-12 9 -7.5 35t21.5 35q156 -4 304 -4q139 0 299 4q12 -9 7 -35t-22 -35q-39 -2 -60 -5t-46.5 -13.5t-40 -29.5t-28 -52.5t-23.5 -83.5l-160 -821q-8 -42 -10 -72t5 -50t15.5 -31.5t29.5 -18t38 -8.5t49 -4q12 -9 8.5 -35t-20.5 -35 q-156 4 -300 4q-143 0 -303 -4q-12 9 -7 35t22 35q39 2 60 5t46.5 13.5t40 29.5t28 52.5t23.5 83.5z" />
<glyph unicode="&#x129;" horiz-adv-x="700" d="M641 1206q67 0 113 88q23 0 38 -11.5t13 -29.5q-38 -88 -96.5 -139t-116.5 -51q-76 0 -127 43q-48 35 -114 35q-20 0 -32.5 -2t-27.5 -9.5t-27.5 -25t-24.5 -45.5q-53 0 -48 37q38 82 91.5 136t105.5 54q88 0 144 -51q33 -29 109 -29zM601 656l-87 -402q-29 -125 8 -125 q18 0 63 27.5t81 68.5q19 0 36 -19.5t23 -37.5q-70 -90 -170.5 -139t-208.5 -49q-43 0 -65.5 16.5t-34.5 50.5q-16 46 14 189l90 421q12 58 12 84q0 38 -36 41l-82 6q-9 13 -7.5 39.5t11.5 38.5q73 9 188 18t164 9q42 0 42 -43q0 -16 -6 -44.5t-17.5 -75t-17.5 -74.5z" />
<glyph unicode="&#x12a;" horiz-adv-x="718" d="M432 1071q8 42 9.5 72t-5.5 50t-16 31.5t-30 18t-38 8.5t-49 4q-12 9 -7.5 35t21.5 35q156 -4 304 -4q139 0 299 4q12 -9 7 -35t-22 -35q-39 -2 -60 -5t-46.5 -13.5t-40 -29.5t-28 -52.5t-23.5 -83.5l-160 -821q-8 -42 -10 -72t5 -50t15.5 -31.5t29.5 -18t38 -8.5t49 -4 q12 -9 8.5 -35t-20.5 -35q-156 4 -300 4q-143 0 -303 -4q-12 9 -7 35t22 35q39 2 60 5t46.5 13.5t40 29.5t28 52.5t23.5 83.5zM906 1497h-499q-13 0 -18 9.5t-3 21.5q4 20 22 39.5t35 19.5h502q14 0 19.5 -8.5t3.5 -19.5q-4 -20 -23.5 -41t-38.5 -21z" />
<glyph unicode="&#x12b;" horiz-adv-x="700" d="M601 656l-87 -402q-29 -125 8 -125q18 0 63 27.5t81 68.5q19 0 36 -19.5t23 -37.5q-70 -90 -170.5 -139t-208.5 -49q-43 0 -65.5 16.5t-34.5 50.5q-16 46 14 189l90 421q12 58 12 84q0 38 -36 41l-82 6q-9 13 -7.5 39.5t11.5 38.5q73 9 188 18t164 9q42 0 42 -43 q0 -16 -6 -44.5t-17.5 -75t-17.5 -74.5zM773 1102h-450q-12 0 -16.5 9.5t-1.5 21.5q4 20 20.5 39.5t30.5 19.5h452q12 0 17 -9t3 -20q-4 -20 -21 -40.5t-34 -20.5z" />
<glyph unicode="&#x12c;" horiz-adv-x="718" d="M432 1071q8 42 9.5 72t-5.5 50t-16 31.5t-30 18t-38 8.5t-49 4q-12 9 -7.5 35t21.5 35q156 -4 304 -4q139 0 299 4q12 -9 7 -35t-22 -35q-39 -2 -60 -5t-46.5 -13.5t-40 -29.5t-28 -52.5t-23.5 -83.5l-160 -821q-8 -42 -10 -72t5 -50t15.5 -31.5t29.5 -18t38 -8.5t49 -4 q12 -9 8.5 -35t-20.5 -35q-156 4 -300 4q-143 0 -303 -4q-12 9 -7 35t22 35q39 2 60 5t46.5 13.5t40 29.5t28 52.5t23.5 83.5zM986 1700q-24 -107 -116.5 -181.5t-195.5 -74.5q-112 0 -181.5 74t-61.5 182l58 6q4 -57 61 -84t145 -27q84 0 151.5 27.5t85.5 83.5z" />
<glyph unicode="&#x12d;" horiz-adv-x="700" d="M399 1366q-8 -81 45 -121.5t153 -40.5q40 0 75.5 7.5t71.5 24t61 50t34 80.5l63 -20q-18 -76 -57 -135.5t-86.5 -92.5t-94 -49t-88.5 -16q-122 0 -188.5 82.5t-59.5 210.5zM601 656l-87 -402q-29 -125 8 -125q18 0 63 27.5t81 68.5q19 0 36 -19.5t23 -37.5 q-70 -90 -170.5 -139t-208.5 -49q-43 0 -65.5 16.5t-34.5 50.5q-16 46 14 189l90 421q12 58 12 84q0 38 -36 41l-82 6q-9 13 -7.5 39.5t11.5 38.5q73 9 188 18t164 9q42 0 42 -43q0 -16 -6 -44.5t-17.5 -75t-17.5 -74.5z" />
<glyph unicode="&#x12e;" horiz-adv-x="718" d="M655 -367q-38 -54 -99 -83t-124 -29q-52 0 -102 33q-80 53 -80 163q0 73 62 153t147 129q-19 0 -52 0.5t-45 0.5q-143 0 -303 -4q-12 9 -7 35t22 35q39 2 60 5t46.5 13.5t40 29.5t28 52.5t23.5 83.5l160 821q8 42 9.5 72t-5.5 50t-16 31.5t-30 18t-38 8.5t-49 4 q-12 9 -7.5 35t21.5 35q156 -4 304 -4q139 0 299 4q12 -9 7 -35t-22 -35q-39 -2 -60 -5t-46.5 -13.5t-40 -29.5t-28 -52.5t-23.5 -83.5l-160 -821q-8 -42 -10 -72t5 -50t15.5 -31.5t29.5 -18t38 -8.5t49 -4q12 -9 8.5 -35t-20.5 -35q-6 0 -19.5 0.5t-20.5 0.5 q-75 -10 -129.5 -90t-54.5 -177q0 -46 20.5 -66t51.5 -20q78 0 115 37z" />
<glyph unicode="&#x12f;" horiz-adv-x="700" d="M658 -330q-38 -54 -99 -83t-124 -29q-79 0 -130.5 47t-51.5 129q0 115 154 250q-27 -4 -61 -4q-43 0 -65.5 16.5t-34.5 50.5q-16 46 14 189l90 421q12 58 12 84q0 38 -36 41l-82 6q-9 13 -7.5 39.5t11.5 38.5q73 9 188 18t164 9q42 0 42 -43q0 -16 -6 -44.5t-17.5 -75 t-17.5 -74.5l-87 -402q-29 -125 8 -125q18 0 63 27.5t81 68.5q19 0 36 -19.5t23 -37.5q-53 -67 -126 -114v-1q-78 -72 -118 -142.5t-40 -164.5q0 -30 21.5 -47.5t50.5 -17.5q79 0 115 36zM408 1221q0 50 37.5 88.5t105.5 38.5q60 0 96.5 -42.5t36.5 -93.5q0 -45 -40.5 -86 t-104.5 -41q-59 0 -95 41t-36 95z" />
<glyph unicode="&#x130;" horiz-adv-x="718" d="M432 1071q8 42 9.5 72t-5.5 50t-16 31.5t-30 18t-38 8.5t-49 4q-12 9 -7.5 35t21.5 35q156 -4 304 -4q139 0 299 4q12 -9 7 -35t-22 -35q-39 -2 -60 -5t-46.5 -13.5t-40 -29.5t-28 -52.5t-23.5 -83.5l-160 -821q-8 -42 -10 -72t5 -50t15.5 -31.5t29.5 -18t38 -8.5t49 -4 q12 -9 8.5 -35t-20.5 -35q-156 4 -300 4q-143 0 -303 -4q-12 9 -7 35t22 35q39 2 60 5t46.5 13.5t40 29.5t28 52.5t23.5 83.5zM532 1579q0 53 37 90t90 37t90 -37t37 -90t-37 -90t-90 -37t-90 37t-37 90z" />
<glyph unicode="&#x131;" horiz-adv-x="700" d="M601 656l-87 -402q-29 -125 8 -125q18 0 63 27.5t81 68.5q19 0 36 -19.5t23 -37.5q-70 -90 -170.5 -139t-208.5 -49q-43 0 -65.5 16.5t-34.5 50.5q-16 46 14 189l90 421q12 58 12 84q0 38 -36 41l-82 6q-9 13 -7.5 39.5t11.5 38.5q73 9 188 18t164 9q42 0 42 -43 q0 -16 -6 -44.5t-17.5 -75t-17.5 -74.5z" />
<glyph unicode="&#x132;" horiz-adv-x="1456" d="M432 1071q8 42 9.5 72t-5.5 50t-16 31.5t-30 18t-38 8.5t-49 4q-12 9 -7.5 35t21.5 35q156 -4 304 -4q139 0 299 4q12 -9 7 -35t-22 -35q-39 -2 -60 -5t-46.5 -13.5t-40 -29.5t-28 -52.5t-23.5 -83.5l-160 -821q-8 -42 -10 -72t5 -50t15.5 -31.5t29.5 -18t38 -8.5t49 -4 q12 -9 8.5 -35t-20.5 -35q-156 4 -300 4q-143 0 -303 -4q-12 9 -7 35t22 35q39 2 60 5t46.5 13.5t40 29.5t28 52.5t23.5 83.5zM1464 1069l-191 -858q-19 -84 -48.5 -155t-58 -116.5t-70.5 -88.5t-68.5 -64t-68.5 -51q-165 -119 -335 -119q-34 0 -75 15.5t-72.5 50.5 t-21.5 79q9 41 60.5 78t83.5 37q29 0 47.5 -10.5t25 -21.5t14.5 -32t12 -28q12 -21 34.5 -34t49.5 -13q28 0 46.5 10t36 33t34.5 76t34.5 121.5t43.5 187.5l200 903q10 44 13.5 72.5t-2 50t-14.5 32.5t-33.5 18t-49.5 9t-71 4q-7 9 -1.5 35t16.5 35q204 -4 339 -4 q102 0 304 4q7 -9 1.5 -35t-16.5 -35q-36 -2 -56 -4t-42 -9t-34 -18.5t-25.5 -32t-22.5 -50t-19 -72.5z" />
<glyph unicode="&#x133;" horiz-adv-x="1275" d="M393 657q13 53 13 84q0 16 -9.5 28t-27.5 13l-82 6q-9 13 -7.5 39.5t11.5 38.5q73 9 188 18t164 9q42 0 42 -43q0 -12 -4 -35.5t-8.5 -42.5t-14.5 -58.5t-14 -57.5l-78 -332q-9 -44 -9 -81.5t19 -62t54 -24.5q26 0 52.5 14.5t64 54t66 75t86.5 110.5l51 247q13 63 13 84 q0 16 -9.5 28t-27.5 13l-82 6q-9 13 -7.5 39.5t11.5 38.5q73 9 188 18t164 9q42 0 42 -43q0 -15 -6.5 -44.5t-17.5 -73.5t-17 -76l-35 -175q-74 -350 -119 -489q-86 -267 -220 -358q-84 -58 -196 -58q-100 0 -163.5 31t-63.5 98q0 44 25 68t56 24q32 0 55.5 -11t36 -27.5 t23.5 -35.5t18.5 -35.5t20.5 -27.5t30 -11q38 0 66 52t62 184q10 39 19.5 84.5t15.5 78.5t16 90.5t16 91.5q-123 -140 -212.5 -191t-175.5 -51q-70 0 -126 42t-56 126t16 151zM475 1221q0 50 37.5 88.5t105.5 38.5q60 0 97 -42.5t37 -93.5q0 -45 -41 -86t-105 -41 q-59 0 -95 41t-36 95zM1018 1221q0 50 37.5 88.5t105.5 38.5q60 0 96.5 -42.5t36.5 -93.5q0 -45 -40.5 -86t-104.5 -41q-59 0 -95 41t-36 95z" />
<glyph unicode="&#x134;" horiz-adv-x="735" d="M764 1069l-168 -858q-16 -84 -43.5 -155t-54 -116t-66.5 -89t-64.5 -64t-64.5 -51q-155 -119 -319 -119q-32 0 -72 15.5t-70 50.5t-22 79q8 41 56.5 78t78.5 37q27 0 45.5 -10.5t25 -21t14.5 -32t11 -28.5q11 -21 33.5 -34t48.5 -13q27 0 44.5 10t34 33t32 75.5t31 122 t38.5 187.5l174 903q9 44 12 72.5t-2.5 50t-14.5 32.5t-32.5 18t-47 9t-68.5 4q-7 9 -3 35t15 35q196 -4 326 -4q101 0 293 4q7 -9 1.5 -35t-16.5 -35q-41 -2 -62.5 -5.5t-44 -13.5t-34.5 -30t-23.5 -52.5t-21.5 -84.5zM975 1483q-2 -15 -13.5 -30.5t-26.5 -22.5 q-173 57 -238 114q-97 -64 -268 -114q-12 6 -17.5 22.5t-3.5 32.5q141 83 290 213l30 10q47 -55 118 -119.5t129 -105.5z" />
<glyph unicode="&#x135;" horiz-adv-x="675" d="M634 1358q52 -111 177 -275l-57 -39q-66 44 -109 80.5t-86 89.5q-42 -38 -85.5 -69.5t-70.5 -48.5t-85 -52l-46 39q180 176 256 275h106zM289 360l61 297q12 58 12 84q0 38 -36 41l-82 6q-9 13 -7.5 39.5t11.5 38.5q73 9 188 18t164 9q42 0 42 -43q0 -15 -6.5 -44.5 t-17.5 -73.5t-17 -76l-35 -175q-74 -350 -119 -489q-86 -267 -220 -358q-84 -58 -196 -58q-100 0 -163.5 31t-63.5 98q0 44 25 68t56 24q32 0 55.5 -11t36 -27.5t23.5 -35.5t18.5 -35.5t20.5 -27.5t30 -11q38 0 66 52t62 184q20 80 47 235.5t45 239.5z" />
<glyph unicode="&#x136;" horiz-adv-x="1445" d="M432 1071q8 42 9.5 72t-5.5 50t-16 31.5t-30 18t-38 8.5t-49 4q-12 9 -7.5 35t21.5 35q156 -4 304 -4q139 0 299 4q12 -9 7 -35t-22 -35q-39 -2 -60 -5t-46.5 -13.5t-40 -29.5t-28 -52.5t-23.5 -83.5l-68 -350q46 7 97.5 39.5t162.5 120.5q174 128 248 194 q186 163 24 180q-7 9 -1.5 35t16.5 35q184 -4 241 -4q3 0 187 4q7 -9 3 -35t-15 -35q-37 -4 -73.5 -16t-61.5 -23t-64.5 -38t-56.5 -40.5t-66 -52.5t-66 -53l-251 -198q-11 -8 -18 -15.5t-10 -15t-4.5 -10.5t-2.5 -11v-8q-5 -22 41 -92l327 -530q28 -43 59 -61t77 -25 q7 -9 2.5 -35t-15.5 -35q-184 4 -217 4q-139 0 -217 -4q-8 0 -8 12q4 59 -43 144l-219 403q-23 41 -41 57.5t-53 19.5l-74 -382q-8 -42 -10 -72t5 -50t15.5 -31.5t29.5 -18t38 -8.5t49 -4q12 -9 8.5 -35t-20.5 -35q-156 4 -300 4q-143 0 -303 -4q-12 9 -7 35t22 35 q39 2 60 5t46.5 13.5t40 29.5t28 52.5t23.5 83.5zM746 -100q27 0 50 -7.5t43.5 -24t29 -49.5t2.5 -79q-12 -85 -89 -144.5t-188 -78.5q-25 16 -5 57q62 17 103.5 48.5t45.5 60.5q1 10 -1 17.5t-6 12t-11.5 8t-12 4.5t-12.5 3t-10 2q-66 15 -55 92q4 26 42.5 52t73.5 26z" />
<glyph unicode="&#x137;" horiz-adv-x="1146" d="M452 147q-2 -10 -6 -29.5t-6 -30.5t-7.5 -27.5t-11 -26t-15.5 -21t-22.5 -18t-31 -10.5t-41.5 -4q-81 0 -108 13.5t-27 41.5q0 9 4 25t11 42.5t11 44.5l226 1006q8 36 11 60.5t-1.5 42.5t-13 27.5t-27.5 15t-40 7t-56 1.5q-9 28 10 69q26 4 106.5 19t143 25t90.5 10 q34 0 48 -17t14 -51q0 -19 -4 -42t-13.5 -66t-13.5 -60l-139 -636q39 7 104 62l82 70q107 95 206.5 152t151.5 57q63 0 98.5 -37.5t35.5 -83.5q0 -55 -32 -99t-79 -44q-38 0 -84 54q-9 11 -14.5 16.5t-15 10t-21.5 4.5q-73 0 -156 -73l-106 -94l2 -8q47 -13 77.5 -45 t57.5 -86q27 -53 84 -230q13 -40 26 -59t40 -19q19 0 48 22.5t58 64.5q30 0 61 -35q-43 -89 -119.5 -133.5t-160.5 -44.5q-61 0 -105.5 48t-96.5 162q-20 45 -45 137t-44 126q-18 33 -40 33q-20 0 -30 -2zM574 -94q27 0 50 -7.5t43.5 -24t29 -49.5t2.5 -79 q-12 -85 -89 -144.5t-188 -78.5q-25 16 -5 57q62 17 103.5 48.5t45.5 60.5q1 10 -1 17.5t-6 12t-11.5 8t-12 4.5t-12.5 3t-10 2q-66 15 -55 92q4 26 42.5 52t73.5 26z" />
<glyph unicode="&#x138;" horiz-adv-x="1146" d="M965 725q-31 0 -55 -14.5t-70 -63.5l-127 -135l2 -8q49 -13 68 -27.5t52 -60.5q37 -50 95 -232q24 -78 62 -78q19 0 48 22.5t58 64.5q30 0 61 -35q-43 -89 -119.5 -133.5t-160.5 -44.5q-60 0 -100.5 46.5t-93.5 163.5q-19 42 -41 107t-42 100q-24 41 -90 41 q-11 -48 -32.5 -145t-31.5 -146q-2 -9 -6.5 -34t-7 -35t-9.5 -29.5t-15.5 -28.5t-22.5 -20t-34 -15.5t-46 -4.5q-81 0 -108 13.5t-27 41.5q0 9 4.5 27t11.5 44t10 41l111 510q13 57 13 84q0 16 -10 28t-27 13l-82 6q-9 13 -7.5 39.5t11.5 38.5q216 27 346 27q42 0 42 -43 q0 -20 -40 -213q-5 -20 -13.5 -60.5t-12.5 -60.5q64 6 118 63l103 111q193 209 350 209q63 0 98 -37.5t35 -83.5q0 -52 -34 -88t-83 -36q-27 0 -55.5 9.5t-42.5 25.5l-4 5q-4 5 -5 5.5t-4.5 5t-4.5 5t-4.5 4t-5.5 4t-5.5 3t-6 3t-6 1t-7.5 0.5z" />
<glyph unicode="&#x139;" horiz-adv-x="1130" d="M702 86q143 0 227 68t142 194q18 3 44 0t38 -10q-60 -194 -117 -342q-178 4 -235 4h-439l-303 -4q-12 9 -7 35t22 35q39 2 60 5t46.5 13.5t40 29.5t28 52.5t23.5 83.5l160 821q8 42 9.5 72t-5.5 50t-16 31.5t-30 18t-38 8.5t-49 4q-12 9 -7.5 35t21.5 35q226 -4 304 -4 q34 0 71 0.5t100.5 1.5t127.5 2q12 -9 7 -35t-22 -35q-39 -2 -60 -5t-46.5 -13.5t-40 -29.5t-28 -52.5t-23.5 -83.5l-160 -823q-33 -162 37 -162h118zM1006 1706q36 -18 69 -50t48 -63l-9 -24l-312 -119q-36 -14 -74 -14q-14 0 -25.5 9t-10.5 21q4 26 26 43q106 82 288 197z " />
<glyph unicode="&#x13a;" horiz-adv-x="663" d="M426 1153q10 43 11 70.5t-4.5 44.5t-25 25.5t-43 11t-65.5 2.5q-9 28 10 69q26 4 106.5 19t143 25t90.5 10q34 0 48 -17t14 -51q0 -19 -4 -42t-13.5 -66t-13.5 -60l-207 -934q-13 -61 -13 -88q0 -37 21 -37q18 0 63 27.5t81 68.5q19 0 36 -19.5t23 -37.5 q-80 -89 -179 -141.5t-202 -52.5q-104 0 -104 116q0 54 20 146zM699 1767q36 -18 69 -49.5t48 -62.5l-9 -25l-312 -119q-36 -14 -74 -14q-14 0 -25.5 9.5t-10.5 21.5q4 26 26 43q99 76 288 196z" />
<glyph unicode="&#x13b;" horiz-adv-x="1130" d="M702 86q143 0 227 68t142 194q18 3 44 0t38 -10q-60 -194 -117 -342q-178 4 -235 4h-439l-303 -4q-12 9 -7 35t22 35q39 2 60 5t46.5 13.5t40 29.5t28 52.5t23.5 83.5l160 821q8 42 9.5 72t-5.5 50t-16 31.5t-30 18t-38 8.5t-49 4q-12 9 -7.5 35t21.5 35q226 -4 304 -4 q34 0 71 0.5t100.5 1.5t127.5 2q12 -9 7 -35t-22 -35q-39 -2 -60 -5t-46.5 -13.5t-40 -29.5t-28 -52.5t-23.5 -83.5l-160 -823q-33 -162 37 -162h118zM565 -109q61 0 99.5 -36t26.5 -123q-12 -85 -89.5 -145t-188.5 -79q-24 15 -4 58q62 17 103 48t45 60q1 10 -1 17.5t-6 12 t-11 8t-11.5 4.5t-12.5 3t-10 2q-66 15 -55 93q4 26 42 51.5t73 25.5z" />
<glyph unicode="&#x13c;" horiz-adv-x="663" d="M336 -123q27 0 50 -7.5t43.5 -24t29 -49.5t2.5 -79q-12 -85 -89 -144.5t-188 -78.5q-24 15 -4 57q61 17 102.5 48.5t45.5 60.5q1 10 -1 17.5t-6 12t-11.5 8t-12 4.5t-12.5 3t-10 2q-65 15 -54 92q4 26 42 52t73 26zM426 1153q10 43 11 70.5t-4.5 44.5t-25 25.5t-43 11 t-65.5 2.5q-9 28 10 69q26 4 106.5 19t143 25t90.5 10q34 0 48 -17t14 -51q0 -19 -4 -42t-13.5 -66t-13.5 -60l-207 -934q-13 -61 -13 -88q0 -37 21 -37q18 0 63 27.5t81 68.5q19 0 36 -19.5t23 -37.5q-80 -89 -179 -141.5t-202 -52.5q-104 0 -104 116q0 54 20 146z" />
<glyph unicode="&#x13d;" horiz-adv-x="1130" d="M702 86q143 0 227 68t142 194q18 3 44 0t38 -10q-60 -194 -117 -342q-178 4 -235 4h-439l-303 -4q-12 9 -7 35t22 35q39 2 60 5t46.5 13.5t40 29.5t28 52.5t23.5 83.5l160 821q8 42 9.5 72t-5.5 50t-16 31.5t-30 18t-38 8.5t-49 4q-12 9 -7.5 35t21.5 35q226 -4 304 -4 q34 0 71 0.5t100.5 1.5t127.5 2q12 -9 7 -35t-22 -35q-39 -2 -60 -5t-46.5 -13.5t-40 -29.5t-28 -52.5t-23.5 -83.5l-160 -823q-33 -162 37 -162h118zM1132 1430q56 0 80 -45.5t12 -104.5q-14 -67 -83.5 -136.5t-169.5 -80.5l-3 35q62 12 105.5 56t52.5 85q4 20 -2 31.5 t-18 11.5q-96 0 -79 78q6 27 34 48.5t71 21.5z" />
<glyph unicode="&#x13e;" horiz-adv-x="716" d="M426 1153q10 43 11 70.5t-4.5 44.5t-25 25.5t-43 11t-65.5 2.5q-9 28 10 69q26 4 106.5 19t143 25t90.5 10q34 0 48 -17t14 -51q0 -19 -4 -42t-13.5 -66t-13.5 -60l-207 -934q-13 -61 -13 -88q0 -37 21 -37q18 0 63 27.5t81 68.5q19 0 36 -19.5t23 -37.5 q-80 -89 -179 -141.5t-202 -52.5q-104 0 -104 116q0 54 20 146zM937 1430q56 0 80.5 -45.5t12.5 -104.5q-14 -67 -83.5 -136.5t-169.5 -80.5l-3 35q62 12 105 56t52 85q4 20 -2 31.5t-18 11.5q-95 0 -78 78q6 28 33.5 49t70.5 21z" />
<glyph unicode="&#x13f;" horiz-adv-x="1130" d="M702 86q143 0 227 68t142 194q18 3 44 0t38 -10q-60 -194 -117 -342q-178 4 -235 4h-439l-303 -4q-12 9 -7 35t22 35q39 2 60 5t46.5 13.5t40 29.5t28 52.5t23.5 83.5l160 821q8 42 9.5 72t-5.5 50t-16 31.5t-30 18t-38 8.5t-49 4q-12 9 -7.5 35t21.5 35q226 -4 304 -4 q34 0 71 0.5t100.5 1.5t127.5 2q12 -9 7 -35t-22 -35q-39 -2 -60 -5t-46.5 -13.5t-40 -29.5t-28 -52.5t-23.5 -83.5l-160 -823q-33 -162 37 -162h118zM881 788q0 50 37.5 88.5t105.5 38.5q60 0 96.5 -42t36.5 -93q0 -45 -40.5 -86t-104.5 -41q-59 0 -95 40.5t-36 94.5z" />
<glyph unicode="&#x140;" horiz-adv-x="796" d="M698 737q0 39 30 70t69 31q37 0 67.5 -30t30.5 -71q0 -39 -28.5 -67.5t-69.5 -28.5q-43 0 -71 29t-28 67zM426 1153q10 43 11 70.5t-4.5 44.5t-25 25.5t-43 11t-65.5 2.5q-9 28 10 69q26 4 106.5 19t143 25t90.5 10q34 0 48 -17t14 -51q0 -19 -4 -42t-13.5 -66t-13.5 -60 l-207 -934q-13 -61 -13 -88q0 -37 21 -37q18 0 63 27.5t81 68.5q19 0 36 -19.5t23 -37.5q-80 -89 -179 -141.5t-202 -52.5q-104 0 -104 116q0 54 20 146z" />
<glyph unicode="&#x141;" horiz-adv-x="1130" d="M805 920l22 -62l-180 -96l-100 -514q-33 -162 37 -162h118q143 0 227 68t142 194q18 3 44 0t38 -10q-60 -194 -117 -342q-178 4 -235 4h-439l-303 -4q-12 9 -7 35t22 35q39 2 60 5t46.5 13.5t40 29.5t28 52.5t23.5 83.5l68 350l-188 -100l-23 63l228 120l75 388 q8 42 9.5 72t-5.5 50t-16 31.5t-30 18t-38 8.5t-49 4q-12 9 -7.5 35t21.5 35q226 -4 304 -4q34 0 71 0.5t100.5 1.5t127.5 2q12 -9 7 -35t-22 -35q-39 -2 -60 -5t-46.5 -13.5t-40 -29.5t-28 -52.5t-23.5 -83.5l-44 -226z" />
<glyph unicode="&#x142;" horiz-adv-x="663" d="M760 897l18 -61l-197 -91l-108 -485q-13 -61 -13 -88q0 -37 21 -37q18 0 63 27.5t81 68.5q19 0 36 -19.5t23 -37.5q-80 -89 -179 -141.5t-202 -52.5q-104 0 -104 116q0 54 20 146l86 377l-145 -66l-19 59l181 84l104 457q10 43 11 70.5t-4.5 44.5t-25 25.5t-43 11 t-65.5 2.5q-9 28 10 69q26 4 106.5 19t143 25t90.5 10q34 0 48 -17t14 -51q0 -19 -4 -42t-13.5 -66t-13.5 -60l-82 -372z" />
<glyph unicode="&#x143;" horiz-adv-x="1452" d="M1257 0q-54 -25 -145 -25q-32 40 -61 91l-502 815q-24 41 -37 41q-17 0 -25 -41l-118 -609q-7 -36 -11 -62t-3 -47t3 -34.5t12.5 -24t18.5 -16t28.5 -10.5t36 -7t46.5 -5q7 -9 1.5 -35t-16.5 -35q-196 4 -235 4q-29 0 -221 -4q-7 9 -3 35t15 35q41 4 63 7.5t47 12 t37 20.5t26 35t22.5 53.5t17.5 77.5l166 854q-2 45 -37.5 85t-93.5 44q-7 9 -2 35t16 35l336 -4l135 -215l395 -639q11 -18 21.5 -25.5t20 -0.5t14.5 32l110 576q7 36 11 62t3 47t-3 34.5t-12.5 24t-18.5 16t-28.5 10.5t-36 7t-46.5 5q-7 9 -1.5 35t16.5 35q196 -4 237 -4 q29 0 221 4q7 -9 2 -35t-16 -35q-41 -4 -62.5 -7.5t-46.5 -12t-37 -20.5t-25.5 -35t-22 -53.5t-17.5 -77.5l-164 -840zM1180 1706q36 -18 69 -50t48 -63l-9 -24l-312 -119q-36 -14 -73 -14q-14 0 -26 9t-11 21q4 25 27 43q111 85 287 197z" />
<glyph unicode="&#x144;" horiz-adv-x="1257" d="M287 498q30 135 30 223q0 59 -36 61l-82 6q-9 13 -7.5 39.5t11.5 38.5q216 27 340 27q20 0 34 -14t14 -35q0 -81 -26 -207l4 -4q133 157 227.5 211.5t200.5 54.5q71 0 127 -40t56 -124q0 -42 -27 -155l-78 -326q-31 -125 8 -125q18 0 63 27.5t81 68.5q19 0 36 -19.5 t23 -37.5q-70 -90 -170.5 -139t-208.5 -49q-43 0 -65.5 16.5t-34.5 50.5q-19 54 14 189l76 327q18 79 18 119q0 44 -17.5 59t-53.5 15q-51 0 -123.5 -72.5t-183.5 -216.5l-78 -320q-2 -9 -8 -38.5t-9.5 -41t-13.5 -32.5t-23 -30t-35.5 -17t-52.5 -8q-81 0 -108 13.5 t-27 41.5q0 9 4.5 27t11.5 44t10 41zM898 1380q12 4 34 4q76 0 110 -49l14 -47l-277 -221q-42 -33 -83 -33q-12 0 -21 10t-7 19q4 27 23 49z" />
<glyph unicode="&#x145;" horiz-adv-x="1452" d="M1257 0q-54 -25 -145 -25q-32 40 -61 91l-502 815q-24 41 -37 41q-17 0 -25 -41l-118 -609q-7 -36 -11 -62t-3 -47t3 -34.5t12.5 -24t18.5 -16t28.5 -10.5t36 -7t46.5 -5q7 -9 1.5 -35t-16.5 -35q-196 4 -235 4q-29 0 -221 -4q-7 9 -3 35t15 35q41 4 63 7.5t47 12 t37 20.5t26 35t22.5 53.5t17.5 77.5l166 854q-2 45 -37.5 85t-93.5 44q-7 9 -2 35t16 35l336 -4l135 -215l395 -639q11 -18 21.5 -25.5t20 -0.5t14.5 32l110 576q7 36 11 62t3 47t-3 34.5t-12.5 24t-18.5 16t-28.5 10.5t-36 7t-46.5 5q-7 9 -1.5 35t16.5 35q196 -4 237 -4 q29 0 221 4q7 -9 2 -35t-16 -35q-41 -4 -62.5 -7.5t-46.5 -12t-37 -20.5t-25.5 -35t-22 -53.5t-17.5 -77.5l-164 -840zM774 -98q27 0 50 -7.5t43.5 -24t29 -49.5t2.5 -79q-12 -85 -89 -144.5t-188 -78.5q-24 15 -4 57q61 17 102.5 48.5t45.5 60.5q1 10 -1 17.5t-6 12t-11 8 t-11.5 4.5t-12.5 3t-10 2q-66 15 -55 92q4 26 42 52t73 26z" />
<glyph unicode="&#x146;" horiz-adv-x="1257" d="M287 498q30 135 30 223q0 59 -36 61l-82 6q-9 13 -7.5 39.5t11.5 38.5q216 27 340 27q20 0 34 -14t14 -35q0 -81 -26 -207l4 -4q133 157 227.5 211.5t200.5 54.5q71 0 127 -40t56 -124q0 -42 -27 -155l-78 -326q-31 -125 8 -125q18 0 63 27.5t81 68.5q19 0 36 -19.5 t23 -37.5q-70 -90 -170.5 -139t-208.5 -49q-43 0 -65.5 16.5t-34.5 50.5q-19 54 14 189l76 327q18 79 18 119q0 44 -17.5 59t-53.5 15q-51 0 -123.5 -72.5t-183.5 -216.5l-78 -320q-2 -9 -8 -38.5t-9.5 -41t-13.5 -32.5t-23 -30t-35.5 -17t-52.5 -8q-81 0 -108 13.5 t-27 41.5q0 9 4.5 27t11.5 44t10 41zM584 -104q27 0 50 -7.5t43.5 -24t29 -49.5t2.5 -79q-12 -85 -89 -144.5t-188 -78.5q-24 15 -4 57q62 17 103 48t45 60q1 10 -1.5 17.5t-6 12t-11 8.5t-12 5t-13 3t-9.5 2q-65 15 -54 92q4 26 42 52t73 26z" />
<glyph unicode="&#x147;" horiz-adv-x="1452" d="M1257 0q-54 -25 -145 -25q-32 40 -61 91l-502 815q-24 41 -37 41q-17 0 -25 -41l-118 -609q-7 -36 -11 -62t-3 -47t3 -34.5t12.5 -24t18.5 -16t28.5 -10.5t36 -7t46.5 -5q7 -9 1.5 -35t-16.5 -35q-196 4 -235 4q-29 0 -221 -4q-7 9 -3 35t15 35q41 4 63 7.5t47 12 t37 20.5t26 35t22.5 53.5t17.5 77.5l166 854q-2 45 -37.5 85t-93.5 44q-7 9 -2 35t16 35l336 -4l135 -215l395 -639q11 -18 21.5 -25.5t20 -0.5t14.5 32l110 576q7 36 11 62t3 47t-3 34.5t-12.5 24t-18.5 16t-28.5 10.5t-36 7t-46.5 5q-7 9 -1.5 35t16.5 35q196 -4 237 -4 q29 0 221 4q7 -9 2 -35t-16 -35q-41 -4 -62.5 -7.5t-46.5 -12t-37 -20.5t-25.5 -35t-22 -53.5t-17.5 -77.5l-164 -840zM723 1655q2 16 13.5 31.5t26.5 21.5q67 -22 135.5 -53.5t102.5 -61.5q100 66 268 115q12 -6 17.5 -22.5t3.5 -32.5q-142 -83 -290 -213l-30 -10 q-47 55 -118 119.5t-129 105.5z" />
<glyph unicode="&#x148;" horiz-adv-x="1257" d="M886 1083h-102q-44 90 -172 265l54 36q62 -47 101 -82.5t84 -89.5q54 50 104.5 86t130.5 86l44 -36q-159 -154 -244 -265zM287 498q30 135 30 223q0 59 -36 61l-82 6q-9 13 -7.5 39.5t11.5 38.5q216 27 340 27q20 0 34 -14t14 -35q0 -81 -26 -207l4 -4 q133 157 227.5 211.5t200.5 54.5q71 0 127 -40t56 -124q0 -42 -27 -155l-78 -326q-31 -125 8 -125q18 0 63 27.5t81 68.5q19 0 36 -19.5t23 -37.5q-70 -90 -170.5 -139t-208.5 -49q-43 0 -65.5 16.5t-34.5 50.5q-19 54 14 189l76 327q18 79 18 119q0 44 -17.5 59t-53.5 15 q-51 0 -123.5 -72.5t-183.5 -216.5l-78 -320q-2 -9 -8 -38.5t-9.5 -41t-13.5 -32.5t-23 -30t-35.5 -17t-52.5 -8q-81 0 -108 13.5t-27 41.5q0 9 4.5 27t11.5 44t10 41z" />
<glyph unicode="&#x149;" horiz-adv-x="1361" d="M354 498q31 140 31 223q0 58 -37 61l-82 6q-9 13 -7.5 39.5t11.5 38.5q216 27 340 27q20 0 34 -14t14 -35q0 -86 -25 -207l4 -4q133 157 227.5 211.5t200.5 54.5q71 0 126.5 -40t55.5 -124q0 -46 -26 -155l-78 -326q-31 -125 8 -125q18 0 62.5 27.5t80.5 68.5 q19 0 36.5 -19.5t23.5 -37.5q-70 -90 -170.5 -139t-208.5 -49q-43 0 -66 16.5t-35 50.5q-19 52 15 189l76 327q18 79 18 119q0 44 -18 59t-54 15q-51 0 -123.5 -72.5t-183.5 -216.5l-78 -320q-2 -10 -8 -39t-9.5 -40.5t-13.5 -32.5t-22.5 -30t-35 -17t-52.5 -8 q-81 0 -108 13.5t-27 41.5q0 9 4.5 27t11.5 44t10 41zM419 1430q56 0 80.5 -45.5t12.5 -104.5q-14 -67 -84 -136.5t-170 -80.5l-3 35q62 12 105.5 56t52.5 85q4 20 -2 31.5t-18 11.5q-95 0 -78 78q6 28 33.5 49t70.5 21z" />
<glyph unicode="&#x14a;" horiz-adv-x="1648" d="M1485 211q-18 -84 -47 -154.5t-57.5 -116t-69.5 -88.5t-68 -64.5t-68 -51.5q-164 -119 -335 -119q-58 0 -120.5 40.5t-49.5 104.5q9 41 60 78t83 37q29 0 48 -10.5t25.5 -21.5t14.5 -32t12 -28q12 -21 34.5 -34t49.5 -13q23 0 39 5.5t32 24.5t27.5 45t27 79t29.5 113.5 t36 160.5l113 528q60 284 0 408q-30 63 -61.5 86.5t-99.5 23.5q-72 0 -176.5 -67.5t-216.5 -173.5q-37 -35 -53 -77l-137 -644q-7 -33 -10.5 -56.5t-2.5 -43t3.5 -32t12.5 -22t19.5 -14.5t30 -8.5t38 -5t48.5 -2.5q7 -9 1.5 -35t-16.5 -35q-204 4 -294 4q-147 0 -349 -4 q-7 9 -1.5 35t16.5 35q51 2 76 5.5t51.5 13t40 29.5t26 52t23.5 84l175 821q7 33 10.5 56.5t2.5 43t-3.5 32t-12.5 22t-19.5 14.5t-30 8.5t-38 5t-48.5 2.5q-7 9 -1.5 35t16.5 35q204 -4 345 -4q63 0 101 4q14 0 19 -5t3 -15q-26 -82 -54 -215l-8 -38q3 0 8.5 4t9.5 8l4 3 q114 124 255.5 202.5t258.5 78.5q96 0 179.5 -37t123.5 -99q99 -154 17 -538z" />
<glyph unicode="&#x14b;" horiz-adv-x="1259" d="M1195 580l-78 -355q-42 -189 -85.5 -307t-86 -177t-103.5 -101q-79 -55 -162 -85.5t-199 -30.5q-47 0 -90 31.5t-31 83.5q8 34 46 67.5t62 33.5q14 0 27 -3.5t21 -8t17.5 -13.5t13.5 -13.5t12.5 -16t10.5 -14.5q23 -29 76 -29q59 0 127 170q23 57 36 113.5t24 124.5 t19 106l99 448q9 42 0 73t-32.5 48t-52 25t-61.5 8q-105 0 -207 -56q-3 -11 -7.5 -33t-6.5 -32l-37 -170l-70 -320q-2 -9 -6.5 -34t-7 -35t-9.5 -29.5t-15.5 -28.5t-22.5 -20t-34 -15.5t-46 -4.5q-81 0 -108 13.5t-27 41.5q0 9 4.5 27t11.5 44t10 41l111 510q12 53 12 84 q0 16 -10 28t-27 13l-82 6q-9 14 -7.5 40t12.5 38q216 27 346 27q42 0 42 -43q0 -24 -9 -67q104 52 210.5 89t160.5 37q135 0 190.5 -81.5t18.5 -247.5z" />
<glyph unicode="&#x14c;" horiz-adv-x="1431" d="M934 1262q-85 0 -164.5 -54.5t-142.5 -164.5q-58 -101 -104 -265t-46 -315q0 -188 78 -292.5t211 -104.5q120 0 223.5 111t163 295t59.5 393q0 192 -75 294.5t-203 102.5zM711 -20q-148 0 -267 60t-191 178t-72 275q0 187 73.5 345.5t194.5 279.5q108 108 244.5 169 t281.5 61q237 0 385.5 -142t148.5 -379q0 -231 -103.5 -425t-287 -308t-407.5 -114zM1224 1495h-500q-13 0 -18 9.5t-3 21.5q4 19 22.5 39t35.5 20h501q14 0 19.5 -9t3.5 -20q-4 -20 -23 -40.5t-38 -20.5z" />
<glyph unicode="&#x14d;" horiz-adv-x="980" d="M401 348q0 -282 121 -282q44 0 80 17.5t60.5 45t42.5 68t28.5 81t16.5 89t8 86.5t2 79q0 36 -1 62.5t-4.5 62.5t-11.5 61t-20 48t-32 35t-46 12q-244 0 -244 -465zM137 332q0 138 83 278.5t223 218.5q126 70 253 70q73 0 130.5 -20t94 -51.5t60.5 -75t33.5 -87t9.5 -90.5 q0 -196 -91 -334.5t-236 -211.5q-44 -22 -113 -35.5t-133 -13.5q-74 0 -132 24.5t-91.5 61.5t-54.5 86t-28.5 92.5t-7.5 87.5zM957 1102h-499q-13 0 -18 9.5t-3 21.5q4 20 22 39.5t35 19.5h502q14 0 19.5 -9t3.5 -20q-4 -20 -23.5 -40.5t-38.5 -20.5z" />
<glyph unicode="&#x14e;" horiz-adv-x="1431" d="M934 1262q-85 0 -164.5 -54.5t-142.5 -164.5q-58 -101 -104 -265t-46 -315q0 -188 78 -292.5t211 -104.5q120 0 223.5 111t163 295t59.5 393q0 192 -75 294.5t-203 102.5zM711 -20q-148 0 -267 60t-191 178t-72 275q0 187 73.5 345.5t194.5 279.5q108 108 244.5 169 t281.5 61q237 0 385.5 -142t148.5 -379q0 -231 -103.5 -425t-287 -308t-407.5 -114zM1316 1700q-24 -107 -116.5 -181.5t-195.5 -74.5q-112 0 -181.5 74t-61.5 182l58 6q4 -57 61 -84t145 -27q84 0 151.5 27.5t85.5 83.5z" />
<glyph unicode="&#x14f;" horiz-adv-x="980" d="M532 1366q-8 -81 45 -121.5t153 -40.5q40 0 75.5 7.5t71.5 24t61 50t34 80.5l63 -20q-18 -76 -57 -135.5t-86.5 -92.5t-94 -49t-88.5 -16q-122 0 -188.5 82.5t-59.5 210.5zM401 348q0 -282 121 -282q44 0 80 17.5t60.5 45t42.5 68t28.5 81t16.5 89t8 86.5t2 79 q0 36 -1 62.5t-4.5 62.5t-11.5 61t-20 48t-32 35t-46 12q-244 0 -244 -465zM137 332q0 138 83 278.5t223 218.5q126 70 253 70q73 0 130.5 -20t94 -51.5t60.5 -75t33.5 -87t9.5 -90.5q0 -196 -91 -334.5t-236 -211.5q-44 -22 -113 -35.5t-133 -13.5q-74 0 -132 24.5 t-91.5 61.5t-54.5 86t-28.5 92.5t-7.5 87.5z" />
<glyph unicode="&#x150;" horiz-adv-x="1431" d="M934 1262q-85 0 -164.5 -54.5t-142.5 -164.5q-58 -101 -104 -265t-46 -315q0 -188 78 -292.5t211 -104.5q120 0 223.5 111t163 295t59.5 393q0 192 -75 294.5t-203 102.5zM711 -20q-148 0 -267 60t-191 178t-72 275q0 187 73.5 345.5t194.5 279.5q108 108 244.5 169 t281.5 61q237 0 385.5 -142t148.5 -379q0 -231 -103.5 -425t-287 -308t-407.5 -114zM1226 1675q23 -21 18 -57q-5 -27 -20 -41l-227 -172q-5 -4 -15 -4q-9 0 -17.5 7.5t-7.5 18.5q2 9 4 11l159 233q19 25 51 25t55 -21zM955 1688q27 -21 22 -60q-3 -27 -20 -39l-217 -176 q-12 -4 -17 -4q-3 0 -15 6q-11 9 -9 23q0 5 3 8l150 235q19 25 58 25q25 0 45 -18z" />
<glyph unicode="&#x151;" horiz-adv-x="980" d="M401 348q0 -282 121 -282q44 0 80 17.5t60.5 45t42.5 68t28.5 81t16.5 89t8 86.5t2 79q0 36 -1 62.5t-4.5 62.5t-11.5 61t-20 48t-32 35t-46 12q-244 0 -244 -465zM137 332q0 138 83 278.5t223 218.5q126 70 253 70q73 0 130.5 -20t94 -51.5t60.5 -75t33.5 -87t9.5 -90.5 q0 -196 -91 -334.5t-236 -211.5q-44 -22 -113 -35.5t-133 -13.5q-74 0 -132 24.5t-91.5 61.5t-54.5 86t-28.5 92.5t-7.5 87.5zM1060 1415q-4 -25 -22 -39l-280 -225q-5 -4 -13 -4q-9 0 -17 8t-6 19q0 4 4 8l218 284q19 25 54 25q32 0 50 -23.5t12 -52.5zM792 1427 q-4 -19 -17 -32l-259 -248q-8 -6 -18 -6t-17.5 7.5t-5.5 18.5q0 4 3 7l192 299q19 28 59 28q33 0 51.5 -21.5t11.5 -52.5z" />
<glyph unicode="&#x152;" horiz-adv-x="1894" d="M1475 752q108 0 150.5 23t64.5 104q11 9 45.5 9t42.5 -9q-28 -106 -43 -177q-11 -50 -36 -180q-11 -9 -46 -9t-42 9q11 71 -22 99t-136 28h-166l-103 -465q-9 -41 9.5 -69.5t52.5 -28.5h207q111 0 199 71.5t148 190.5q21 5 48 2t41 -12q-13 -34 -38 -106t-47.5 -131.5 t-45.5 -104.5q-183 4 -281 4h-701q-202 0 -340.5 85.5t-191 234t-11.5 333.5q31 138 105.5 260.5t179.5 214t242 144.5t285 53l241 -4h604q54 0 102 8q4 0 6 -1.5t1 -4.5q0 -6 -8.5 -62t-19 -127.5t-13.5 -107.5q-40 -18 -90 -10q-6 59 -15 94.5t-29 66.5t-56 44.5t-93 13.5 h-174q-35 0 -66.5 -31t-40.5 -69l-85 -383h166zM790 82h25q59 0 96 168l182 819q37 168 -22 168h-70q-54 0 -105 -17.5t-103 -59t-96.5 -105t-84 -161.5t-66.5 -222q-32 -156 -27 -267.5t44.5 -183.5t97 -105.5t129.5 -33.5z" />
<glyph unicode="&#x153;" horiz-adv-x="1484" d="M408 371q0 -134 35.5 -219.5t80.5 -85.5q46 0 83.5 20.5t62 52.5t43 78t28.5 89.5t16 94t7.5 85t1.5 69.5v37v38t-0.5 35t-2.5 35t-5.5 30.5t-9 28t-14 22t-19.5 18t-26.5 10t-33.5 4.5q-49 0 -88 -15.5t-64.5 -39t-44 -62t-28 -73.5t-15 -84.5t-6.5 -84.5t-1 -83z M154 354q0 94 37 189t103 175t170.5 130.5t227.5 50.5q190 0 272 -134q144 134 361 134q118 0 184 -42.5t66 -100.5q0 -104 -64 -166q-105 -102 -475 -182q-2 -16 -2 -70q0 -236 109 -236q74 0 132.5 31.5t145.5 120.5q18 0 38 -16.5t28 -34.5q-87 -112 -198 -167.5 t-220 -55.5q-201 0 -265 126q-144 -126 -310 -126q-165 0 -252.5 106.5t-87.5 267.5zM1343 758q0 57 -65 57q-34 0 -60.5 -11.5t-56 -44t-57.5 -101t-53 -172.5q36 6 72.5 17.5t77 33.5t71.5 51t51 73t20 97z" />
<glyph unicode="&#x154;" horiz-adv-x="1404" d="M1069 1048q0 59 -18.5 101.5t-50 64.5t-66 31.5t-74.5 9.5q-75 0 -103.5 -36.5t-49.5 -145.5l-78 -407h84q74 0 134 18.5t112 60t81 119t29 184.5zM940 1339q204 0 311 -69t107 -224q0 -70 -20.5 -132.5t-52.5 -106t-74.5 -80.5t-80.5 -59t-77 -37l184 -430 q32 -71 67 -103t97 -32q1 -3 1 -14q0 -38 -13 -56q-37 -16 -205 -16q-81 0 -132.5 49.5t-90.5 132.5l-162 356q-10 26 -23 37.5t-51 18t-115 6.5l-63 -330q-10 -49 -10 -83q0 -33 8.5 -53t29.5 -29.5t40.5 -13t58.5 -5.5q9 -7 9 -25q0 -33 -21 -45q-156 4 -300 4 q-143 0 -303 -4q-8 7 -8 23q0 34 23 47q39 2 60 5t46.5 13.5t40 29.5t28 52.5t23.5 83.5l160 821q10 55 10 82q0 62 -31.5 80t-107.5 22q-9 7 -9 23q0 34 23 47q39 0 311.5 7t311.5 7zM1068 1706q36 -18 69 -50t48 -63l-10 -24l-311 -119q-36 -14 -74 -14q-14 0 -26 9 t-11 21q4 25 27 43q106 82 288 197z" />
<glyph unicode="&#x155;" horiz-adv-x="872" d="M553 467l-78 -320q-2 -10 -8 -39t-9.5 -40.5t-13.5 -32.5t-22.5 -30t-35 -17t-52.5 -8q-81 0 -108 13.5t-27 41.5q0 9 4.5 27t11.5 44t10 41l76 351q31 144 31 223q0 58 -37 61l-82 6q-9 13 -7.5 39.5t11.5 38.5q216 27 340 27q20 0 34 -14t14 -35q0 -86 -25 -207l6 -4 q64 134 143.5 200t154.5 66q63 0 95.5 -37t32.5 -84q0 -55 -32 -99t-79 -44q-37 0 -83 54q-26 31 -52 31q-42 0 -90 -58t-123 -195zM788 1380q12 4 33 4q76 0 110 -49l14 -47l-277 -221q-42 -33 -82 -33q-12 0 -21.5 10t-7.5 19q4 27 23 49z" />
<glyph unicode="&#x156;" horiz-adv-x="1404" d="M1069 1048q0 59 -18.5 101.5t-50 64.5t-66 31.5t-74.5 9.5q-75 0 -103.5 -36.5t-49.5 -145.5l-78 -407h84q74 0 134 18.5t112 60t81 119t29 184.5zM940 1339q204 0 311 -69t107 -224q0 -70 -20.5 -132.5t-52.5 -106t-74.5 -80.5t-80.5 -59t-77 -37l184 -430 q32 -71 67 -103t97 -32q1 -3 1 -14q0 -38 -13 -56q-37 -16 -205 -16q-81 0 -132.5 49.5t-90.5 132.5l-162 356q-10 26 -23 37.5t-51 18t-115 6.5l-63 -330q-10 -49 -10 -83q0 -33 8.5 -53t29.5 -29.5t40.5 -13t58.5 -5.5q9 -7 9 -25q0 -33 -21 -45q-156 4 -300 4 q-143 0 -303 -4q-8 7 -8 23q0 34 23 47q39 2 60 5t46.5 13.5t40 29.5t28 52.5t23.5 83.5l160 821q10 55 10 82q0 62 -31.5 80t-107.5 22q-9 7 -9 23q0 34 23 47q39 0 311.5 7t311.5 7zM694 -104q61 0 99.5 -36.5t26.5 -123.5q-12 -85 -89 -144.5t-188 -78.5q-25 16 -5 57 q62 17 103 48t45 60q1 10 -1 17.5t-5.5 12t-11.5 8.5t-12 5t-12.5 3t-9.5 2q-66 15 -55 92q4 26 42 52t73 26z" />
<glyph unicode="&#x157;" horiz-adv-x="872" d="M553 467l-78 -320q-2 -10 -8 -39t-9.5 -40.5t-13.5 -32.5t-22.5 -30t-35 -17t-52.5 -8q-81 0 -108 13.5t-27 41.5q0 9 4.5 27t11.5 44t10 41l76 351q31 144 31 223q0 58 -37 61l-82 6q-9 13 -7.5 39.5t11.5 38.5q216 27 340 27q20 0 34 -14t14 -35q0 -86 -25 -207l6 -4 q64 134 143.5 200t154.5 66q63 0 95.5 -37t32.5 -84q0 -55 -32 -99t-79 -44q-37 0 -83 54q-26 31 -52 31q-42 0 -90 -58t-123 -195zM361 -104q27 0 50 -7.5t43.5 -24t29 -49.5t2.5 -79q-12 -85 -89 -144.5t-188 -78.5q-25 16 -5 57q62 17 103.5 48t45.5 60q1 10 -1.5 17.5 t-6 12t-11 8.5t-12 5t-13 3t-9.5 2q-66 15 -55 92q4 26 42.5 52t73.5 26z" />
<glyph unicode="&#x158;" horiz-adv-x="1404" d="M1069 1048q0 59 -18.5 101.5t-50 64.5t-66 31.5t-74.5 9.5q-75 0 -103.5 -36.5t-49.5 -145.5l-78 -407h84q74 0 134 18.5t112 60t81 119t29 184.5zM940 1339q204 0 311 -69t107 -224q0 -70 -20.5 -132.5t-52.5 -106t-74.5 -80.5t-80.5 -59t-77 -37l184 -430 q32 -71 67 -103t97 -32q1 -3 1 -14q0 -38 -13 -56q-37 -16 -205 -16q-81 0 -132.5 49.5t-90.5 132.5l-162 356q-10 26 -23 37.5t-51 18t-115 6.5l-63 -330q-10 -49 -10 -83q0 -33 8.5 -53t29.5 -29.5t40.5 -13t58.5 -5.5q9 -7 9 -25q0 -33 -21 -45q-156 4 -300 4 q-143 0 -303 -4q-8 7 -8 23q0 34 23 47q39 2 60 5t46.5 13.5t40 29.5t28 52.5t23.5 83.5l160 821q10 55 10 82q0 62 -31.5 80t-107.5 22q-9 7 -9 23q0 34 23 47q39 0 311.5 7t311.5 7zM688 1655q2 16 13.5 31.5t26.5 21.5q67 -22 135.5 -53.5t102.5 -61.5q100 66 268 115 q12 -6 17.5 -22.5t3.5 -32.5q-142 -83 -290 -213l-30 -10q-47 55 -118 119.5t-129 105.5z" />
<glyph unicode="&#x159;" horiz-adv-x="872" d="M733 1083h-103q-44 90 -172 265l55 36q112 -85 184 -172q54 50 104.5 86t130.5 86l44 -36q-156 -150 -243 -265zM553 467l-78 -320q-2 -10 -8 -39t-9.5 -40.5t-13.5 -32.5t-22.5 -30t-35 -17t-52.5 -8q-81 0 -108 13.5t-27 41.5q0 9 4.5 27t11.5 44t10 41l76 351 q31 144 31 223q0 58 -37 61l-82 6q-9 13 -7.5 39.5t11.5 38.5q216 27 340 27q20 0 34 -14t14 -35q0 -86 -25 -207l6 -4q64 134 143.5 200t154.5 66q63 0 95.5 -37t32.5 -84q0 -55 -32 -99t-79 -44q-37 0 -83 54q-26 31 -52 31q-42 0 -90 -58t-123 -195z" />
<glyph unicode="&#x15a;" horiz-adv-x="987" d="M1077 1292q-15 -182 -39 -311q-22 -16 -60 -16q-18 0 -40 6q-3 48 -8 83.5t-18 77.5t-33.5 68.5t-57 45t-84.5 18.5q-80 0 -142.5 -60t-62.5 -154q0 -71 54 -135t116 -100q49 -29 93.5 -64.5t91 -86t74.5 -114.5t28 -131q0 -59 -15.5 -110t-45 -92.5t-58.5 -71t-69 -61.5 q-131 -104 -326 -104q-118 0 -188.5 10t-110 20t-82.5 10q-3 31 -3 72q0 115 30 266q44 12 68 12q19 0 32 -5q3 -135 74.5 -217t173.5 -82t172 58t70 154q0 45 -14.5 83.5t-47 72.5t-63 58.5t-83.5 60.5q-118 80 -179 163.5t-61 196.5q0 218 177 343q59 42 146 67t170 25 q80 0 135 -10t102.5 -25t83.5 -21zM904 1706q36 -18 69 -50t48 -63l-9 -24l-312 -119q-36 -14 -74 -14q-14 0 -26 9t-11 21q4 25 27 43q106 82 288 197z" />
<glyph unicode="&#x15b;" horiz-adv-x="854" d="M722 1380q12 4 34 4q75 0 109 -49l14 -47l-276 -221q-42 -33 -83 -33q-12 0 -21 10t-7 19q4 27 23 49zM872 727q5 -44 -20.5 -74.5t-54.5 -38.5q-35 -9 -66 3t-43 42q-2 6 -11 30t-12.5 32t-13 27t-17.5 27t-20 19t-27.5 15t-33.5 4q-43 0 -77 -27t-34 -63 q0 -30 12.5 -57t26 -44.5t41 -37t39 -26.5t37.5 -21q231 -122 231 -271q0 -51 -21.5 -100t-63 -91.5t-114.5 -68.5t-165 -26q-87 0 -159.5 19.5t-122.5 66t-50 112.5q0 45 29.5 75t58.5 30q80 0 131 -119q22 -50 63.5 -74t92.5 -24q38 0 72 30t34 70q0 70 -32 118.5 t-99 86.5q-105 61 -169 131.5t-64 134.5q0 62 24 110t61 76t86.5 46t94.5 24t92 6q98 0 177.5 -49.5t86.5 -122.5z" />
<glyph unicode="&#x15c;" horiz-adv-x="987" d="M1077 1292q-15 -182 -39 -311q-22 -16 -60 -16q-18 0 -40 6q-3 48 -8 83.5t-18 77.5t-33.5 68.5t-57 45t-84.5 18.5q-80 0 -142.5 -60t-62.5 -154q0 -71 54 -135t116 -100q49 -29 93.5 -64.5t91 -86t74.5 -114.5t28 -131q0 -59 -15.5 -110t-45 -92.5t-58.5 -71t-69 -61.5 q-131 -104 -326 -104q-118 0 -188.5 10t-110 20t-82.5 10q-3 31 -3 72q0 115 30 266q44 12 68 12q19 0 32 -5q3 -135 74.5 -217t173.5 -82t172 58t70 154q0 45 -14.5 83.5t-47 72.5t-63 58.5t-83.5 60.5q-118 80 -179 163.5t-61 196.5q0 218 177 343q59 42 146 67t170 25 q80 0 135 -10t102.5 -25t83.5 -21zM1071 1483q-2 -15 -13.5 -30.5t-26.5 -22.5q-173 57 -238 114q-97 -64 -268 -114q-12 6 -17.5 22.5t-3.5 32.5q141 83 290 213l31 10q47 -56 118 -120t128 -105z" />
<glyph unicode="&#x15d;" horiz-adv-x="854" d="M757 1358q52 -111 177 -275l-57 -39q-66 44 -109 80.5t-86 89.5q-42 -38 -85.5 -69.5t-70.5 -48.5t-85 -52l-46 39q180 176 256 275h106zM872 727q5 -44 -20.5 -74.5t-54.5 -38.5q-35 -9 -66 3t-43 42q-2 6 -11 30t-12.5 32t-13 27t-17.5 27t-20 19t-27.5 15t-33.5 4 q-43 0 -77 -27t-34 -63q0 -30 12.5 -57t26 -44.5t41 -37t39 -26.5t37.5 -21q231 -122 231 -271q0 -51 -21.5 -100t-63 -91.5t-114.5 -68.5t-165 -26q-87 0 -159.5 19.5t-122.5 66t-50 112.5q0 45 29.5 75t58.5 30q80 0 131 -119q22 -50 63.5 -74t92.5 -24q38 0 72 30t34 70 q0 70 -32 118.5t-99 86.5q-105 61 -169 131.5t-64 134.5q0 62 24 110t61 76t86.5 46t94.5 24t92 6q98 0 177.5 -49.5t86.5 -122.5z" />
<glyph unicode="&#x15e;" horiz-adv-x="987" d="M1077 1292q-15 -182 -39 -311q-22 -16 -60 -16q-18 0 -40 6q-3 48 -8 83.5t-18 77.5t-33.5 68.5t-57 45t-84.5 18.5q-80 0 -142.5 -60t-62.5 -154q0 -71 54 -135t116 -100q49 -29 93.5 -64.5t91 -86t74.5 -114.5t28 -131q0 -59 -15.5 -110t-45 -92.5t-58.5 -71t-69 -61.5 q-112 -89 -273 -102l-51 -93q185 -39 166 -172q-11 -77 -88 -130.5t-177 -53.5q-16 0 -29.5 1.5t-21.5 2.5t-19.5 5t-16.5 6t-19.5 9.5t-20.5 10.5q6 43 28 53q75 -29 115 -29q47 0 77.5 22t36.5 62q4 27 -10 45.5t-44 27.5t-55 12.5t-60 5.5l-11 12l129 201q-110 1 -177 11 t-105.5 19.5t-80.5 9.5q-3 31 -3 72q0 115 30 266q44 12 68 12q19 0 32 -5q3 -135 74.5 -217t173.5 -82t172 58t70 154q0 45 -14.5 83.5t-47 72.5t-63 58.5t-83.5 60.5q-118 80 -179 163.5t-61 196.5q0 218 177 343q59 42 146 67t170 25q80 0 135 -10t102.5 -25t83.5 -21z " />
<glyph unicode="&#x15f;" horiz-adv-x="854" d="M304 -227l-11 12l126 196q-78 5 -140.5 27t-104 66t-41.5 104q0 45 29.5 75t58.5 30q80 0 131 -119q22 -50 63.5 -74t92.5 -24q38 0 72 30t34 70q0 70 -32 118.5t-99 86.5q-105 61 -169 131.5t-64 134.5q0 62 24 110t61 76t86.5 46t94.5 24t92 6q98 0 177.5 -49.5 t86.5 -122.5q5 -44 -20.5 -74.5t-54.5 -38.5q-35 -9 -66 3t-43 42q-2 6 -11 30t-12.5 32t-13 27t-17.5 27t-20 19t-27.5 15t-33.5 4q-43 0 -77 -27t-34 -63q0 -30 12.5 -57t26 -44.5t41 -37t39 -26.5t37.5 -21q231 -122 231 -271q0 -49 -20 -97t-59.5 -89.5t-107 -69 t-153.5 -30.5l-47 -84q185 -39 166 -173q-11 -77 -88 -130.5t-177 -53.5q-19 0 -32.5 1t-27.5 5.5t-18.5 6t-23.5 11t-24 11.5q6 43 28 53q73 -28 114 -28q47 0 78 22t37 62q3 22 -7 38.5t-26 25.5t-43 15t-46.5 7.5t-47.5 3.5z" />
<glyph unicode="&#x160;" horiz-adv-x="987" d="M1077 1292q-15 -182 -39 -311q-22 -16 -60 -16q-18 0 -40 6q-3 48 -8 83.5t-18 77.5t-33.5 68.5t-57 45t-84.5 18.5q-80 0 -142.5 -60t-62.5 -154q0 -71 54 -135t116 -100q49 -29 93.5 -64.5t91 -86t74.5 -114.5t28 -131q0 -59 -15.5 -110t-45 -92.5t-58.5 -71t-69 -61.5 q-131 -104 -326 -104q-118 0 -188.5 10t-110 20t-82.5 10q-3 31 -3 72q0 115 30 266q44 12 68 12q19 0 32 -5q3 -135 74.5 -217t173.5 -82t172 58t70 154q0 45 -14.5 83.5t-47 72.5t-63 58.5t-83.5 60.5q-118 80 -179 163.5t-61 196.5q0 218 177 343q59 42 146 67t170 25 q80 0 135 -10t102.5 -25t83.5 -21zM506 1655q2 16 13.5 31.5t26.5 21.5q67 -22 135.5 -53.5t102.5 -61.5q100 66 268 115q12 -6 17.5 -22.5t3.5 -32.5q-142 -83 -290 -213l-31 -10q-47 56 -118 120t-128 105z" />
<glyph unicode="&#x161;" horiz-adv-x="854" d="M722 1083h-102q-44 90 -172 265l54 36q62 -47 101 -82.5t84 -89.5q54 50 104.5 86t130.5 86l44 -36q-159 -154 -244 -265zM872 727q5 -44 -20.5 -74.5t-54.5 -38.5q-35 -9 -66 3t-43 42q-2 6 -11 30t-12.5 32t-13 27t-17.5 27t-20 19t-27.5 15t-33.5 4q-43 0 -77 -27 t-34 -63q0 -30 12.5 -57t26 -44.5t41 -37t39 -26.5t37.5 -21q231 -122 231 -271q0 -51 -21.5 -100t-63 -91.5t-114.5 -68.5t-165 -26q-87 0 -159.5 19.5t-122.5 66t-50 112.5q0 45 29.5 75t58.5 30q80 0 131 -119q22 -50 63.5 -74t92.5 -24q38 0 72 30t34 70q0 70 -32 118.5 t-99 86.5q-105 61 -169 131.5t-64 134.5q0 62 24 110t61 76t86.5 46t94.5 24t92 6q98 0 177.5 -49.5t86.5 -122.5z" />
<glyph unicode="&#x162;" horiz-adv-x="1280" d="M846 252q-9 -44 -12 -72.5t2.5 -50t14.5 -32.5t32.5 -18t47 -9t68.5 -4q7 -9 2 -35t-16 -35q-178 4 -294 4l-42 -76q185 -39 166 -172q-11 -77 -88 -130.5t-177 -53.5q-19 0 -32.5 1t-27.5 5.5t-18.5 6t-23.5 11t-24 11.5q7 44 27 53q75 -29 115 -29q47 0 77.5 22 t36.5 62q4 27 -10 45.5t-44.5 27t-54.5 12t-60 5.5l-11 13l120 186q-116 0 -290 -4q-7 9 -3 35t15 35q45 2 70 4t51.5 9t39.5 18t27 32.5t22 50t17 72.5l154 784q13 67 14 109.5t-15 68t-52 25.5h-97q-101 0 -170.5 -49t-121.5 -168q-51 0 -74 10q61 146 106 299q0 2 4 4 t7 2q197 -16 454 -16h277q263 0 444 16q4 0 4 -6q-23 -133 -30 -293q-23 -10 -80 -10q-1 115 -54.5 163t-167.5 48h-45q-51 0 -80 -51.5t-49 -157.5z" />
<glyph unicode="&#x163;" horiz-adv-x="751" d="M242 242l125 540h-144q-12 0 -12 4q0 3 4.5 25.5t5.5 26.5q8 31 58 34l108 7l27 102q4 15 10 44.5t10 44t13 33.5t23 30t34 16q27 7 57.5 12.5t63 9.5t54 0t21.5 -16q0 -11 -8 -47.5t-19.5 -82t-13.5 -54.5l-20 -92h203q17 -12 6.5 -50.5t-29.5 -46.5h-201l-122 -522 q-14 -56 -14 -88q0 -37 22 -37q18 0 62.5 27.5t80.5 68.5q19 0 36.5 -19.5t23.5 -37.5q-143 -156 -308 -188l-51 -90q185 -39 166 -173q-11 -77 -88 -130.5t-177 -53.5q-16 0 -29.5 1.5t-21.5 2.5t-19.5 5t-16.5 6t-19.5 9.5t-20.5 10.5q6 43 28 53q73 -28 115 -28 q47 0 77.5 22t36.5 62q4 27 -10 45.5t-44.5 27t-54.5 12t-60 5.5l-11 12l125 195q-102 1 -102 116q0 62 20 146z" />
<glyph unicode="&#x164;" horiz-adv-x="1280" d="M846 252q-9 -44 -12 -72.5t2.5 -50t14.5 -32.5t32.5 -18t47 -9t68.5 -4q7 -9 2 -35t-16 -35q-196 4 -330 4q-133 0 -325 -4q-7 9 -3 35t15 35q45 2 70 4t51.5 9t39.5 18t27 32.5t22 50t17 72.5l154 784q13 67 14 109.5t-15 68t-52 25.5h-97q-101 0 -170.5 -49 t-121.5 -168q-51 0 -74 10q61 146 106 299q0 2 4 4t7 2q197 -16 454 -16h277q263 0 444 16q4 0 4 -6q-23 -133 -30 -293q-23 -10 -80 -10q-1 115 -54.5 163t-167.5 48h-45q-51 0 -80 -51.5t-49 -157.5zM669 1655q2 15 14 31t27 22q67 -22 135.5 -53.5t102.5 -61.5 q100 66 268 115q12 -6 17.5 -22.5t3.5 -32.5q-145 -85 -291 -213l-30 -10q-47 55 -118 119.5t-129 105.5z" />
<glyph unicode="&#x165;" horiz-adv-x="804" d="M242 242l125 540h-144q-12 0 -12 4q0 3 4.5 25.5t5.5 26.5q8 31 58 34l108 7l27 102q4 15 10 44.5t10 44t13 33.5t23 30t34 16q27 7 57.5 12.5t63 9.5t54 0t21.5 -16q0 -11 -8 -47.5t-19.5 -82t-13.5 -54.5l-20 -92h203q17 -12 6.5 -50.5t-29.5 -46.5h-201l-122 -522 q-14 -56 -14 -88q0 -37 22 -37q18 0 62.5 27.5t80.5 68.5q19 0 36.5 -19.5t23.5 -37.5q-80 -89 -179 -141.5t-202 -52.5q-104 0 -104 116q0 62 20 146zM937 1430q56 0 80.5 -45.5t12.5 -104.5q-14 -67 -83.5 -136.5t-169.5 -80.5l-3 35q62 12 105 56t52 85q4 20 -2 31.5 t-18 11.5q-95 0 -78 78q6 28 33.5 49t70.5 21z" />
<glyph unicode="&#x166;" horiz-adv-x="1280" d="M846 252q-9 -44 -12 -72.5t2.5 -50t14.5 -32.5t32.5 -18t47 -9t68.5 -4q7 -9 2 -35t-16 -35q-196 4 -330 4q-133 0 -325 -4q-7 9 -3 35t15 35q45 2 70 4t51.5 9t39.5 18t27 32.5t22 50t17 72.5l83 422h-244q-22 0 -17 28q3 16 19.5 34t29.5 18h228l55 282q13 67 14 109.5 t-15 68t-52 25.5h-97q-101 0 -170.5 -49t-121.5 -168q-51 0 -74 10q61 146 106 299q0 2 4 4t7 2q197 -16 454 -16h277q263 0 444 16q4 0 4 -6q-23 -133 -30 -293q-23 -10 -80 -10q-1 115 -54.5 163t-167.5 48h-45q-51 0 -80 -51.5t-49 -157.5l-53 -276h227q12 0 16.5 -9 t2.5 -18q-3 -19 -19 -36t-34 -17h-209z" />
<glyph unicode="&#x167;" horiz-adv-x="751" d="M553 502l-57 -242q-14 -56 -14 -88q0 -37 22 -37q18 0 62.5 27.5t80.5 68.5q19 0 36.5 -19.5t23.5 -37.5q-80 -89 -179 -141.5t-202 -52.5q-104 0 -104 116q0 62 20 146l60 260h-134q-21 0 -16 28q3 16 19.5 34t29.5 18h119l47 200h-144q-12 0 -12 4q0 3 4.5 25.5 t5.5 26.5q8 31 58 34l108 7l27 102q4 15 10 44.5t10 44t13 33.5t23 30t34 16q27 7 57.5 12.5t63 9.5t54 0t21.5 -16q0 -11 -8 -47.5t-19.5 -82t-13.5 -54.5l-20 -92h203q17 -12 6.5 -50.5t-29.5 -46.5h-201l-47 -200h142q12 0 17 -9t3 -18q-3 -18 -20 -35.5t-35 -17.5h-125z " />
<glyph unicode="&#x168;" horiz-adv-x="1437" d="M653 1069l-100 -518q-12 -61 -18 -104.5t-7.5 -98.5t11.5 -100.5t41 -79.5q81 -102 213 -102q69 0 127.5 16.5t100.5 42.5t77.5 67t58 81.5t42 95t30.5 98t22 100.5l99 502q22 112 -1 145q-18 26 -90 35q-15 2 -55 6q-7 9 -1.5 35t16.5 35q196 -4 249 -4q19 0 211 4 q7 -9 2 -35t-16 -35q-34 -4 -47.5 -6t-36 -7t-31 -12.5t-22 -20t-20 -32t-14.5 -45.5t-15 -63l-93 -465q-28 -143 -76 -252.5t-124.5 -195.5t-190 -131t-260.5 -45q-272 0 -381 86q-149 118 -90 417l115 586q8 43 11.5 72.5t-1 50t-11.5 32t-25.5 18.5t-36.5 9t-52 4 q-7 9 -3 35t15 35q196 -4 287 -4q130 0 322 4q7 -9 1.5 -35t-16.5 -35q-44 -2 -68 -4t-49 -9t-37.5 -18t-25.5 -32.5t-20.5 -50t-16.5 -72.5zM1188 1563q67 0 113 88q23 0 38 -11.5t13 -29.5q-38 -88 -96.5 -139.5t-116.5 -51.5q-76 0 -127 43q-48 35 -114 35 q-20 0 -32.5 -2t-27.5 -9.5t-27.5 -25t-24.5 -45.5q-53 0 -48 37q38 82 91.5 136t105.5 54q88 0 144 -51q32 -28 109 -28z" />
<glyph unicode="&#x169;" horiz-adv-x="1323" d="M1024 1206q67 0 113 88q23 0 38 -11.5t13 -29.5q-38 -88 -96.5 -139t-116.5 -51q-76 0 -127 43q-48 35 -114 35q-20 0 -32.5 -2t-27.5 -9.5t-27.5 -25t-24.5 -45.5q-53 0 -48 37q38 82 91.5 136t105.5 54q88 0 144 -51q33 -29 109 -29zM883 219l-4 -15l9 46l-4 4 q-131 -154 -225 -210t-183 -56q-70 0 -126 42t-56 126t16 151l78 326q31 125 -8 125q-18 0 -62.5 -27.5t-80.5 -68.5q-19 0 -36.5 19.5t-23.5 37.5q70 90 170.5 139t208.5 49q43 0 66 -16.5t35 -50.5q19 -52 -15 -189l-76 -327q-9 -44 -9 -81.5t19 -62t54 -24.5q18 0 36 6.5 t41 26t39.5 35t48 54.5t50 62.5t61.5 79.5l79 319q2 10 8 39t9.5 41t13.5 33t22.5 30t35 17t52.5 8q81 0 108 -13.5t27 -41.5q0 -9 -4.5 -27.5t-11.5 -44.5t-10 -41l-107 -485q-13 -61 -13 -87q0 -38 22 -38q18 0 62.5 27.5t80.5 68.5q19 0 36 -19.5t23 -37.5 q-71 -91 -164.5 -139.5t-199.5 -48.5q-79 0 -103 67q-6 16 -6 49q0 19 17 123z" />
<glyph unicode="&#x16a;" horiz-adv-x="1437" d="M653 1069l-100 -518q-12 -61 -18 -104.5t-7.5 -98.5t11.5 -100.5t41 -79.5q81 -102 213 -102q69 0 127.5 16.5t100.5 42.5t77.5 67t58 81.5t42 95t30.5 98t22 100.5l99 502q22 112 -1 145q-18 26 -90 35q-15 2 -55 6q-7 9 -1.5 35t16.5 35q196 -4 249 -4q19 0 211 4 q7 -9 2 -35t-16 -35q-34 -4 -47.5 -6t-36 -7t-31 -12.5t-22 -20t-20 -32t-14.5 -45.5t-15 -63l-93 -465q-28 -143 -76 -252.5t-124.5 -195.5t-190 -131t-260.5 -45q-272 0 -381 86q-149 118 -90 417l115 586q8 43 11.5 72.5t-1 50t-11.5 32t-25.5 18.5t-36.5 9t-52 4 q-7 9 -3 35t15 35q196 -4 287 -4q130 0 322 4q7 -9 1.5 -35t-16.5 -35q-44 -2 -68 -4t-49 -9t-37.5 -18t-25.5 -32.5t-20.5 -50t-16.5 -72.5zM1304 1501h-500q-13 0 -18 9.5t-3 21.5q4 20 22 39.5t35 19.5h502q14 0 19.5 -8.5t3.5 -19.5q-4 -20 -23 -41t-38 -21z" />
<glyph unicode="&#x16b;" horiz-adv-x="1323" d="M883 219l-4 -15l9 46l-4 4q-131 -154 -225 -210t-183 -56q-70 0 -126 42t-56 126t16 151l78 326q31 125 -8 125q-18 0 -62.5 -27.5t-80.5 -68.5q-19 0 -36.5 19.5t-23.5 37.5q70 90 170.5 139t208.5 49q43 0 66 -16.5t35 -50.5q19 -52 -15 -189l-76 -327q-9 -44 -9 -81.5 t19 -62t54 -24.5q18 0 36 6.5t41 26t39.5 35t48 54.5t50 62.5t61.5 79.5l79 319q2 10 8 39t9.5 41t13.5 33t22.5 30t35 17t52.5 8q81 0 108 -13.5t27 -41.5q0 -9 -4.5 -27.5t-11.5 -44.5t-10 -41l-107 -485q-13 -61 -13 -87q0 -38 22 -38q18 0 62.5 27.5t80.5 68.5 q19 0 36 -19.5t23 -37.5q-71 -91 -164.5 -139.5t-199.5 -48.5q-79 0 -103 67q-6 16 -6 49q0 19 17 123zM1097 1102h-500q-13 0 -18 9.5t-2 21.5q4 20 22 39.5t35 19.5h501q14 0 19.5 -9t3.5 -20q-4 -20 -23 -40.5t-38 -20.5z" />
<glyph unicode="&#x16c;" horiz-adv-x="1437" d="M653 1069l-100 -518q-12 -61 -18 -104.5t-7.5 -98.5t11.5 -100.5t41 -79.5q81 -102 213 -102q69 0 127.5 16.5t100.5 42.5t77.5 67t58 81.5t42 95t30.5 98t22 100.5l99 502q22 112 -1 145q-18 26 -90 35q-15 2 -55 6q-7 9 -1.5 35t16.5 35q196 -4 249 -4q19 0 211 4 q7 -9 2 -35t-16 -35q-34 -4 -47.5 -6t-36 -7t-31 -12.5t-22 -20t-20 -32t-14.5 -45.5t-15 -63l-93 -465q-28 -143 -76 -252.5t-124.5 -195.5t-190 -131t-260.5 -45q-272 0 -381 86q-149 118 -90 417l115 586q8 43 11.5 72.5t-1 50t-11.5 32t-25.5 18.5t-36.5 9t-52 4 q-7 9 -3 35t15 35q196 -4 287 -4q130 0 322 4q7 -9 1.5 -35t-16.5 -35q-44 -2 -68 -4t-49 -9t-37.5 -18t-25.5 -32.5t-20.5 -50t-16.5 -72.5zM1375 1700q-24 -107 -116.5 -181.5t-195.5 -74.5q-112 0 -181.5 74t-61.5 182l59 6q4 -57 60.5 -84t144.5 -27q84 0 151.5 27.5 t85.5 83.5z" />
<glyph unicode="&#x16d;" horiz-adv-x="1323" d="M686 1366q-8 -81 45 -121.5t153 -40.5q40 0 75.5 7.5t71.5 24t61 50t34 80.5l62 -20q-18 -76 -57 -135.5t-86.5 -92.5t-93.5 -49t-88 -16q-122 0 -188.5 82.5t-59.5 210.5zM883 219l-4 -15l9 46l-4 4q-131 -154 -225 -210t-183 -56q-70 0 -126 42t-56 126t16 151l78 326 q31 125 -8 125q-18 0 -62.5 -27.5t-80.5 -68.5q-19 0 -36.5 19.5t-23.5 37.5q70 90 170.5 139t208.5 49q43 0 66 -16.5t35 -50.5q19 -52 -15 -189l-76 -327q-9 -44 -9 -81.5t19 -62t54 -24.5q18 0 36 6.5t41 26t39.5 35t48 54.5t50 62.5t61.5 79.5l79 319q2 10 8 39t9.5 41 t13.5 33t22.5 30t35 17t52.5 8q81 0 108 -13.5t27 -41.5q0 -9 -4.5 -27.5t-11.5 -44.5t-10 -41l-107 -485q-13 -61 -13 -87q0 -38 22 -38q18 0 62.5 27.5t80.5 68.5q19 0 36 -19.5t23 -37.5q-71 -91 -164.5 -139.5t-199.5 -48.5q-79 0 -103 67q-6 16 -6 49q0 19 17 123z" />
<glyph unicode="&#x16e;" horiz-adv-x="1437" d="M653 1069l-100 -518q-12 -61 -18 -104.5t-7.5 -98.5t11.5 -100.5t41 -79.5q81 -102 213 -102q69 0 127.5 16.5t100.5 42.5t77.5 67t58 81.5t42 95t30.5 98t22 100.5l99 502q22 112 -1 145q-18 26 -90 35q-15 2 -55 6q-7 9 -1.5 35t16.5 35q196 -4 249 -4q19 0 211 4 q7 -9 2 -35t-16 -35q-34 -4 -47.5 -6t-36 -7t-31 -12.5t-22 -20t-20 -32t-14.5 -45.5t-15 -63l-93 -465q-28 -143 -76 -252.5t-124.5 -195.5t-190 -131t-260.5 -45q-272 0 -381 86q-149 118 -90 417l115 586q8 43 11.5 72.5t-1 50t-11.5 32t-25.5 18.5t-36.5 9t-52 4 q-7 9 -3 35t15 35q196 -4 287 -4q130 0 322 4q7 -9 1.5 -35t-16.5 -35q-44 -2 -68 -4t-49 -9t-37.5 -18t-25.5 -32.5t-20.5 -50t-16.5 -72.5zM1073 1686q-46 0 -76 -33.5t-33 -81.5q-3 -45 23.5 -80t71.5 -35t75.5 35t33.5 80q3 48 -23.5 81.5t-71.5 33.5zM888 1571 q4 70 61 120t128 50q72 0 121.5 -49.5t45.5 -120.5q-5 -69 -60.5 -119.5t-128.5 -50.5q-71 0 -121 50t-46 120z" />
<glyph unicode="&#x16f;" horiz-adv-x="1323" d="M883 219l-4 -15l9 46l-4 4q-131 -154 -225 -210t-183 -56q-70 0 -126 42t-56 126t16 151l78 326q31 125 -8 125q-18 0 -62.5 -27.5t-80.5 -68.5q-19 0 -36.5 19.5t-23.5 37.5q70 90 170.5 139t208.5 49q43 0 66 -16.5t35 -50.5q19 -52 -15 -189l-76 -327q-9 -44 -9 -81.5 t19 -62t54 -24.5q18 0 36 6.5t41 26t39.5 35t48 54.5t50 62.5t61.5 79.5l79 319q2 10 8 39t9.5 41t13.5 33t22.5 30t35 17t52.5 8q81 0 108 -13.5t27 -41.5q0 -9 -4.5 -27.5t-11.5 -44.5t-10 -41l-107 -485q-13 -61 -13 -87q0 -38 22 -38q18 0 62.5 27.5t80.5 68.5 q19 0 36 -19.5t23 -37.5q-71 -91 -164.5 -139.5t-199.5 -48.5q-79 0 -103 67q-6 16 -6 49q0 19 17 123zM874 1489q-46 0 -76 -33.5t-33 -81.5q-3 -45 23.5 -79.5t71.5 -34.5t76 34.5t34 79.5q3 48 -24 81.5t-72 33.5zM689 1374q4 70 61 120t128 50q72 0 122 -49.5t46 -120.5 q-5 -69 -60.5 -119.5t-128.5 -50.5q-71 0 -121.5 50t-46.5 120z" />
<glyph unicode="&#x170;" horiz-adv-x="1437" d="M653 1069l-100 -518q-12 -61 -18 -104.5t-7.5 -98.5t11.5 -100.5t41 -79.5q81 -102 213 -102q69 0 127.5 16.5t100.5 42.5t77.5 67t58 81.5t42 95t30.5 98t22 100.5l99 502q22 112 -1 145q-18 26 -90 35q-15 2 -55 6q-7 9 -1.5 35t16.5 35q196 -4 249 -4q19 0 211 4 q7 -9 2 -35t-16 -35q-34 -4 -47.5 -6t-36 -7t-31 -12.5t-22 -20t-20 -32t-14.5 -45.5t-15 -63l-93 -465q-28 -143 -76 -252.5t-124.5 -195.5t-190 -131t-260.5 -45q-272 0 -381 86q-149 118 -90 417l115 586q8 43 11.5 72.5t-1 50t-11.5 32t-25.5 18.5t-36.5 9t-52 4 q-7 9 -3 35t15 35q196 -4 287 -4q130 0 322 4q7 -9 1.5 -35t-16.5 -35q-44 -2 -68 -4t-49 -9t-37.5 -18t-25.5 -32.5t-20.5 -50t-16.5 -72.5zM1371 1675q23 -21 18 -57q-5 -27 -20 -41l-227 -172q-5 -4 -15 -4q-9 0 -17 7.5t-7 18.5l3 11l160 233q19 25 50 25q32 0 55 -21z M1100 1688q28 -22 23 -60q-3 -27 -20 -39l-217 -176q-12 -4 -17 -4q-4 0 -16 6q-11 9 -9 23q0 5 3 8l150 235q19 25 59 25q24 0 44 -18z" />
<glyph unicode="&#x171;" horiz-adv-x="1323" d="M883 219l-4 -15l9 46l-4 4q-131 -154 -225 -210t-183 -56q-70 0 -126 42t-56 126t16 151l78 326q31 125 -8 125q-18 0 -62.5 -27.5t-80.5 -68.5q-19 0 -36.5 19.5t-23.5 37.5q70 90 170.5 139t208.5 49q43 0 66 -16.5t35 -50.5q19 -52 -15 -189l-76 -327q-9 -44 -9 -81.5 t19 -62t54 -24.5q18 0 36 6.5t41 26t39.5 35t48 54.5t50 62.5t61.5 79.5l79 319q2 10 8 39t9.5 41t13.5 33t22.5 30t35 17t52.5 8q81 0 108 -13.5t27 -41.5q0 -9 -4.5 -27.5t-11.5 -44.5t-10 -41l-107 -485q-13 -61 -13 -87q0 -38 22 -38q18 0 62.5 27.5t80.5 68.5 q19 0 36 -19.5t23 -37.5q-71 -91 -164.5 -139.5t-199.5 -48.5q-79 0 -103 67q-6 16 -6 49q0 19 17 123zM1236 1415q-4 -25 -22 -39l-279 -225q-5 -4 -14 -4t-17 8t-6 19q0 4 4 8l218 284q19 25 54 25q32 0 50 -23.5t12 -52.5zM968 1427q-4 -20 -16 -32l-260 -248 q-8 -6 -18 -6t-17.5 7.5t-5.5 18.5q0 3 4 7l191 299q19 28 59 28q33 0 51.5 -21.5t11.5 -52.5z" />
<glyph unicode="&#x172;" horiz-adv-x="1437" d="M1132 -317q-38 -54 -99.5 -83.5t-124.5 -29.5q-79 0 -130.5 47t-51.5 129q0 113 148 245q-59 -11 -139 -11q-272 0 -381 86q-149 118 -90 417l115 586q8 43 11.5 72.5t-1 50t-11.5 32t-25.5 18.5t-36.5 9t-52 4q-7 9 -3 35t15 35q196 -4 287 -4q130 0 322 4q7 -9 1.5 -35 t-16.5 -35q-44 -2 -68 -4t-49 -9t-37.5 -18t-25.5 -32.5t-20.5 -50t-16.5 -72.5l-100 -518q-12 -61 -18 -104.5t-7.5 -98.5t11.5 -100.5t41 -79.5q81 -102 213 -102q69 0 127.5 16.5t100.5 42.5t77.5 67t58 81.5t42 95t30.5 98t22 100.5l99 502q22 112 -1 145q-18 26 -90 35 q-15 2 -55 6q-7 9 -1.5 35t16.5 35q196 -4 249 -4q19 0 211 4q7 -9 2 -35t-16 -35q-34 -4 -47.5 -6t-36 -7t-31 -12.5t-22 -20t-20 -32t-14.5 -45.5t-15 -63l-93 -465q-80 -405 -321 -545q-75 -70 -113 -139.5t-38 -161.5q0 -30 21.5 -47.5t50.5 -17.5q78 0 115 37z" />
<glyph unicode="&#x173;" horiz-adv-x="1323" d="M1273 -330q-38 -54 -99 -83t-124 -29q-79 0 -131 47t-52 129q0 115 152 248q-30 -2 -44 -2q-79 0 -103 67q-6 16 -6 49q0 19 17 123l-4 -15l9 46l-4 4q-131 -154 -225 -210t-183 -56q-70 0 -126 42t-56 126t16 151l78 326q31 125 -8 125q-18 0 -62.5 -27.5t-80.5 -68.5 q-19 0 -36.5 19.5t-23.5 37.5q70 90 170.5 139t208.5 49q43 0 66 -16.5t35 -50.5q19 -52 -15 -189l-76 -327q-9 -44 -9 -81.5t19 -62t54 -24.5q18 0 36 6.5t41 26t39.5 35t48 54.5t50 62.5t61.5 79.5l79 319q2 10 8 39t9.5 41t13.5 33t22.5 30t35 17t52.5 8q81 0 108 -13.5 t27 -41.5q0 -9 -4.5 -27.5t-11.5 -44.5t-10 -41l-107 -485q-13 -61 -13 -87q0 -38 22 -38q18 0 62.5 27.5t80.5 68.5q19 0 36 -19.5t23 -37.5q-61 -78 -134 -123q-74 -69 -111.5 -138t-37.5 -161q0 -31 21 -48t50 -17q79 0 115 36z" />
<glyph unicode="&#x174;" horiz-adv-x="2019" d="M1374 1255l117 -813l12 -86l39 74l375 729q9 19 10 34t-7.5 24.5t-19.5 16.5t-30 11t-34.5 6t-37.5 4q-7 9 -2 35t16 35q144 -4 261 -4q38 0 186 4q7 -9 2 -35t-16 -35q-51 -3 -84 -12.5t-71 -41t-69 -89.5l-591 -1089q-13 -25 -35 -36.5t-41 -11.5q-17 0 -35 15.5 t-21 32.5l-143 817l-434 -817q-25 -48 -76 -48q-19 0 -35.5 13t-19.5 35l-170 1122q-4 27 -15 46.5t-23.5 30.5t-35 18t-38 9.5t-44.5 5.5q-7 9 -3 35t15 35q144 -4 265 -4q198 0 346 4q7 -9 1.5 -35t-16.5 -35q-85 -5 -125.5 -21.5t-35.5 -59.5l92 -732l6 -65l25 53 l421 825q60 -12 119 0zM1594 1483q-2 -15 -14 -30.5t-27 -22.5q-173 57 -238 114q-97 -64 -268 -114q-12 6 -17.5 22.5t-3.5 32.5q144 84 291 213l30 10q47 -55 118 -119.5t129 -105.5z" />
<glyph unicode="&#x175;" horiz-adv-x="1492" d="M1106 1358q54 -115 176 -275l-57 -39q-66 44 -109 80.5t-86 89.5q-42 -38 -85.5 -69.5t-70.5 -48.5t-85 -52l-46 39q180 176 256 275h107zM904 446l-7 2q-43 -79 -92.5 -158t-103.5 -152t-104.5 -118.5t-84.5 -44.5q-68 0 -82 144l-43 487q-9 105 -37 105 q-16 0 -55 -28.5t-74 -72.5q-48 9 -65 57q77 93 181.5 162.5t168.5 69.5q33 0 58 -24t39.5 -64t23 -84.5t10.5 -93.5l18 -349l9 -4q49 47 121.5 165.5t136.5 263.5q74 32 137 32q27 -68 64.5 -228t61.5 -293l8 -4q79 64 134 191.5t69 235.5q9 64 -42 140q-12 17 -12 42 q0 74 124 74q55 0 89.5 -27t34.5 -70q0 -92 -55 -218q-83 -194 -174 -321q-24 -34 -57 -74.5t-80.5 -93t-95.5 -86.5t-81 -34q-19 0 -33 10.5t-23.5 34.5t-14 43.5t-11.5 55.5z" />
<glyph unicode="&#x176;" horiz-adv-x="1241" d="M842 250q-9 -44 -11.5 -72.5t3 -50t14.5 -32.5t32.5 -18.5t48 -9.5t68.5 -4q7 -9 2 -33.5t-16 -33.5q-196 4 -311 4q-152 0 -344 -4q-7 9 -3 33.5t15 33.5q54 2 82 5.5t55.5 13.5t41.5 31t26 52.5t22 84.5l54 280q10 58 8.5 81.5t-19.5 68.5l-164 440q-31 82 -61.5 106 t-95.5 29q-7 9 -3 35t15 35q118 -4 277 -4q85 0 245 4q7 -9 2 -35t-16 -35q-80 -4 -97 -30t7 -84l131 -377q6 -17 15 -23t19 -1.5t19 18.5l271 397q29 46 7.5 70.5t-87.5 29.5q-7 9 -3 35t15 35q156 -4 217 -4q66 0 184 4q7 -9 2 -35t-16 -35q-74 -7 -110.5 -23.5 t-77.5 -74.5l-338 -438q-25 -31 -39 -68.5t-27 -101.5zM1243 1483q-2 -15 -13.5 -30.5t-26.5 -22.5q-173 57 -238 114q-97 -64 -268 -114q-12 6 -17.5 22.5t-3.5 32.5q141 83 290 213l31 10q47 -56 118 -120t128 -105z" />
<glyph unicode="&#x177;" horiz-adv-x="1052" d="M860 1358q54 -115 176 -275l-57 -39q-66 44 -109 80.5t-86 89.5q-42 -38 -85.5 -69.5t-70.5 -48.5t-85 -52l-46 39q180 176 256 275h107zM391 692q-11 16 -20.5 21t-29.5 5q-45 0 -120 -36q-11 11 -22 36t-13 43q73 42 183.5 90t158.5 48q38 0 61.5 -34t45.5 -117 q57 -235 78 -570l8 -2l167 279q66 111 66 224q0 19 -27.5 70t-27.5 90q0 30 38 45t79 15q29 0 57 -8t51.5 -31t23.5 -56q0 -75 -23 -144.5t-81 -163.5l-391 -639q-94 -153 -214.5 -247.5t-213.5 -94.5q-18 0 -39.5 5.5t-45.5 18t-40 37.5t-16 58q0 63 33 104t73 41 q14 0 41.5 -13.5t40.5 -27.5q13 -13 42.5 -31t45.5 -18q28 0 73 44t104 140q14 30 -8 211.5t-63.5 371.5t-74.5 236z" />
<glyph unicode="&#x178;" horiz-adv-x="1241" d="M655 1569q0 50 33 83.5t82 33.5t82 -33.5t33 -83.5q0 -49 -32.5 -82t-82.5 -33t-82.5 33t-32.5 82zM1038 1569q0 49 34 83t83 34t81 -33.5t32 -83.5t-32 -82.5t-81 -32.5q-50 0 -83.5 33t-33.5 82zM842 250q-9 -44 -11.5 -72.5t3 -50t14.5 -32.5t32.5 -18.5t48 -9.5 t68.5 -4q7 -9 2 -33.5t-16 -33.5q-196 4 -311 4q-152 0 -344 -4q-7 9 -3 33.5t15 33.5q54 2 82 5.5t55.5 13.5t41.5 31t26 52.5t22 84.5l54 280q10 58 8.5 81.5t-19.5 68.5l-164 440q-31 82 -61.5 106t-95.5 29q-7 9 -3 35t15 35q118 -4 277 -4q85 0 245 4q7 -9 2 -35 t-16 -35q-80 -4 -97 -30t7 -84l131 -377q6 -17 15 -23t19 -1.5t19 18.5l271 397q29 46 7.5 70.5t-87.5 29.5q-7 9 -3 35t15 35q156 -4 217 -4q66 0 184 4q7 -9 2 -35t-16 -35q-74 -7 -110.5 -23.5t-77.5 -74.5l-338 -438q-25 -31 -39 -68.5t-27 -101.5z" />
<glyph unicode="&#x179;" horiz-adv-x="1224" d="M1039 1706q36 -18 69 -50t48 -63l-9 -24l-312 -119q-36 -14 -74 -14q-14 0 -25.5 9t-10.5 21q4 26 26 43q106 82 288 197zM860 90q95 0 178 73t138 199q52 0 75 -10q-79 -263 -123 -362q0 -6 -10 -6q-197 16 -454 16h-588q-37 0 -31 31q3 22 25 47l950 1108q9 10 14 16.5 t9 14.5t-0.5 12t-16.5 4h-377q-188 0 -301 -258q-54 0 -76 10q58 140 119 346q0 6 10 6q197 -16 455 -16h395q31 0 75.5 2t53.5 2q19 0 26 -5t5 -15q-3 -18 -14 -35.5t-47 -59.5l-904 -1063q-18 -21 -23 -32.5t4.5 -18t39.5 -6.5h393z" />
<glyph unicode="&#x17a;" horiz-adv-x="935" d="M937 922q43 -13 77 -58q-34 -36 -601 -625q9 2 18.5 3.5t17 2.5t17.5 0.5t16 -0.5t15.5 -2t14 -2.5t14.5 -3.5t13 -3.5t13.5 -4t12.5 -3.5q16 -5 51.5 -18t63 -20t55.5 -7q19 0 32 2.5t36.5 13t51 39.5t57.5 74q24 0 40.5 -15t22.5 -34q-38 -79 -84.5 -136t-94.5 -87.5 t-93 -44t-90 -13.5q-112 0 -203 43q-82 38 -149 38q-35 -11 -96 -86q-73 11 -86 40q5 12 60.5 74t100.5 108q293 301 460 477q-15 0 -38.5 -2t-39.5 -2q-26 0 -72.5 14t-101.5 14q-46 0 -110 -37t-82 -77q-47 0 -65 22q32 94 125 193.5t161 99.5q146 0 319 -49q18 -5 43 -5 q13 5 19.5 8t27.5 20.5t51 48.5zM767 1380q12 4 34 4q76 0 110 -49l13 -47l-276 -221q-42 -33 -83 -33q-12 0 -21 10t-7 19q4 27 23 49z" />
<glyph unicode="&#x17b;" horiz-adv-x="1224" d="M809 1579q0 53 37.5 90t89.5 37t89.5 -37t37.5 -90t-37.5 -90t-89.5 -37t-89.5 37t-37.5 90zM860 90q95 0 178 73t138 199q52 0 75 -10q-79 -263 -123 -362q0 -6 -10 -6q-197 16 -454 16h-588q-37 0 -31 31q3 22 25 47l950 1108q9 10 14 16.5t9 14.5t-0.5 12t-16.5 4 h-377q-188 0 -301 -258q-54 0 -76 10q58 140 119 346q0 6 10 6q197 -16 455 -16h395q31 0 75.5 2t53.5 2q19 0 26 -5t5 -15q-3 -18 -14 -35.5t-47 -59.5l-904 -1063q-18 -21 -23 -32.5t4.5 -18t39.5 -6.5h393z" />
<glyph unicode="&#x17c;" horiz-adv-x="935" d="M937 922q43 -13 77 -58q-34 -36 -601 -625q9 2 18.5 3.5t17 2.5t17.5 0.5t16 -0.5t15.5 -2t14 -2.5t14.5 -3.5t13 -3.5t13.5 -4t12.5 -3.5q16 -5 51.5 -18t63 -20t55.5 -7q19 0 32 2.5t36.5 13t51 39.5t57.5 74q24 0 40.5 -15t22.5 -34q-38 -79 -84.5 -136t-94.5 -87.5 t-93 -44t-90 -13.5q-112 0 -203 43q-82 38 -149 38q-35 -11 -96 -86q-73 11 -86 40q5 12 60.5 74t100.5 108q293 301 460 477q-15 0 -38.5 -2t-39.5 -2q-26 0 -72.5 14t-101.5 14q-46 0 -110 -37t-82 -77q-47 0 -65 22q32 94 125 193.5t161 99.5q146 0 319 -49q18 -5 43 -5 q13 5 19.5 8t27.5 20.5t51 48.5zM596 1221q0 50 37.5 88.5t105.5 38.5q60 0 96.5 -42.5t36.5 -93.5q0 -45 -40.5 -86t-104.5 -41q-59 0 -95 41t-36 95z" />
<glyph unicode="&#x17d;" horiz-adv-x="1224" d="M860 90q95 0 178 73t138 199q52 0 75 -10q-79 -263 -123 -362q0 -6 -10 -6q-197 16 -454 16h-588q-37 0 -31 31q3 22 25 47l950 1108q9 10 14 16.5t9 14.5t-0.5 12t-16.5 4h-377q-188 0 -301 -258q-54 0 -76 10q58 140 119 346q0 6 10 6q197 -16 455 -16h395q31 0 75.5 2 t53.5 2q19 0 26 -5t5 -15q-3 -18 -14 -35.5t-47 -59.5l-904 -1063q-18 -21 -23 -32.5t4.5 -18t39.5 -6.5h393zM639 1655q2 16 13.5 31.5t26.5 21.5q67 -22 135.5 -53.5t102.5 -61.5q100 66 268 115q12 -6 17.5 -22.5t3.5 -32.5q-142 -83 -290 -213l-30 -10 q-47 55 -118 119.5t-129 105.5z" />
</font>
</defs>
</svg>
